<?xml version="1.0" standalone="no"?>
<!DOCTYPE svg PUBLIC "-//W3C//DTD SVG 20010904//EN"
 "http://www.w3.org/TR/2001/REC-SVG-20010904/DTD/svg10.dtd">
<svg version="1.0" xmlns="http://www.w3.org/2000/svg"
 width="700.000000pt" height="700.000000pt" viewBox="0 0 700.000000 700.000000"
 preserveAspectRatio="xMidYMid meet">
<metadata>
Created by potrace 1.11, written by Peter Selinger 2001-2013
</metadata>
<g transform="translate(0.000000,700.000000) scale(0.100000,-0.100000)"
fill="#000000" stroke="none">
<path d="M3279 6996 c-2 -2 -40 -6 -84 -10 -744 -55 -1494 -388 -2065 -914
-348 -321 -641 -726 -820 -1132 -23 -52 -45 -104 -50 -115 -11 -22 -19 -43
-62 -160 -46 -125 -105 -344 -133 -489 -50 -265 -60 -376 -60 -676 0 -238 6
-342 30 -505 178 -1216 990 -2256 2132 -2731 257 -107 597 -200 838 -229 28
-4 61 -8 75 -11 150 -26 668 -25 850 2 447 66 781 168 1135 346 394 198 730
454 1035 788 224 245 449 589 591 905 134 299 245 686 274 955 4 30 8 61 11
68 25 78 25 644 -1 822 -3 19 -7 56 -10 81 -3 25 -7 54 -9 65 -2 10 -11 60
-21 109 -127 683 -484 1343 -992 1835 -121 117 -228 212 -282 250 -20 14 -45
33 -56 43 -32 30 -283 197 -294 197 -6 0 -11 5 -11 10 0 6 -5 10 -10 10 -6 0
-29 12 -52 26 -127 80 -445 222 -643 287 -261 85 -412 117 -760 162 -50 7
-550 17 -556 11z"/>
</g>
</svg>
