<?xml version="1.0" standalone="no"?>
<!DOCTYPE svg PUBLIC "-//W3C//DTD SVG 20010904//EN"
 "http://www.w3.org/TR/2001/REC-SVG-20010904/DTD/svg10.dtd">
<svg version="1.0" xmlns="http://www.w3.org/2000/svg"
 width="333.000000pt" height="333.000000pt" viewBox="0 0 333.000000 333.000000"
 preserveAspectRatio="xMidYMid meet">
<metadata>
Created by potrace 1.11, written by Peter Selinger 2001-2013
</metadata>
<g transform="translate(0.000000,333.000000) scale(0.100000,-0.100000)"
fill="#000000" stroke="none">
<path d="M1235 3063 c-261 -55 -490 -247 -593 -496 -87 -207 -84 -451 8 -659
l38 -87 -65 -42 c-125 -82 -245 -224 -306 -364 -84 -193 -90 -433 -16 -631 75
-201 245 -381 442 -468 278 -122 609 -84 846 98 79 61 170 161 210 233 l35 60
70 -33 c113 -53 176 -67 326 -70 115 -3 148 0 226 20 190 50 345 154 467 316
218 290 216 704 -5 1000 -42 56 -137 144 -200 186 -126 84 -249 128 -390 140
l-74 7 -12 88 c-48 349 -310 630 -658 704 -88 19 -258 18 -349 -2z"/>
</g>
</svg>
