<?xml version="1.0" encoding="UTF-8" standalone="no"?>
<!-- Generator: Adobe Illustrator 21.1.0, SVG Export Plug-In . SVG Version: 6.00 Build 0)  -->
<svg xmlns:rdf="http://www.w3.org/1999/02/22-rdf-syntax-ns#" style="enable-background:new 0 0 600 114.2" xmlns="http://www.w3.org/2000/svg" xml:space="preserve" viewBox="0 0 600 114.2" version="1.1" y="0px" x="0px" xmlns:cc="http://creativecommons.org/ns#" xmlns:dc="http://purl.org/dc/elements/1.1/"><metadata><rdf:RDF><cc:Work rdf:about=""><dc:format>image/svg+xml</dc:format><dc:type rdf:resource="http://purl.org/dc/dcmitype/StillImage"/><dc:title/></cc:Work></rdf:RDF></metadata><style type="text/css">
	.st0{fill:#1D1D1B;}
</style><path class="st0" d="m599.5 26.4c-0.5-0.4-1.3-0.3-1.7 0.2-11.8 15.3-57.3 19.6-61.5 19.9-1-6.4-3.1-12.7-6.6-18-5.5-8.6-13.3-12.9-21.7-12.3-9.4 0.7-16.7 5.3-19.9 12.7-2.9 6.5-2 14.1 2.1 19.3 3.4 4.3 8.4 6.1 14.4 5.6 0.5 0.7 1.3 1.3 2.3 1.3 1.6 0 2.9-1.3 2.9-2.9s-1.3-2.9-2.9-2.9c-1.3 0-2.4 0.9-2.7 2.2-5 0.4-9.2-1.2-12.1-4.8-3.5-4.5-4.2-11.2-1.8-16.9 1.7-3.8 6.2-10.4 17.9-11.2 7.5-0.5 14.5 3.4 19.5 11.2 7.9 12.2 9 30.3 2.5 42.1-3.5 6.4-10.8 14.1-25.8 14.1-19.4 0-27.7-9.8-40.2-24.7-9.5-11.3-21.2-25.1-41.6-39.9 4.8-1.4 20.8-7.3 20.6-20.2 0-0.7-0.4-1.2-1.2-1.2-0.7 0-1.2 0.5-1.2 1.2 0.2 13-19.9 18.2-20.1 18.3-0.2 0-0.3 0.2-0.4 0.3-0.8-0.6-1.5-1.1-2.3-1.7-51-35.1-112.7 30-118 35.8-5.3-5.8-67-70.9-118.2-35.8-0.8 0.6-1.5 1.1-2.3 1.7-0.1-0.1-0.2-0.3-0.4-0.3-0.2-0.1-20.3-5.3-20.1-18.3 0-0.7-0.5-1.2-1.2-1.2-0.6 0-1.2 0.5-1.2 1.2-0.2 12.9 15.9 18.8 20.6 20.2-20.4 14.8-32.1 28.6-41.6 39.9-12.5 14.8-20.7 24.7-40.1 24.7-15 0-22.3-7.7-25.8-14.1-6.4-11.8-5.3-29.9 2.5-42.1 5-7.8 11.9-11.8 19.5-11.2 11.7 0.9 16.2 7.4 17.9 11.2 2.5 5.7 1.8 12.4-1.8 16.9-2.8 3.6-7.1 5.1-12.1 4.8-0.3-1.2-1.4-2.2-2.7-2.2-1.6 0-2.9 1.3-2.9 2.9s1.3 2.8 2.9 2.8c1 0 1.8-0.5 2.3-1.3 5.9 0.5 11-1.3 14.4-5.6 4.1-5.2 4.9-12.8 2.1-19.3-3.2-7.3-10.5-11.9-19.9-12.6-8.5-0.6-16.2 3.7-21.7 12.3-3.4 5.3-5.6 11.6-6.6 18-4.2-0.4-49.6-4.6-61.5-19.9-0.4-0.5-1.1-0.6-1.6-0.2s-0.6 1.1-0.2 1.7c12.5 16.2 58 20.4 63.1 20.8-0.9 8.6 0.4 17.2 4.2 24.2s11.7 15.3 27.9 15.3c20.5 0 29.1-10.2 42-25.5 6.1-7.3 13.2-15.7 23-24.7-7.4 20.5-6.3 40.4 3.4 55.1 8.1 12.2 21.3 19.2 36.2 19.2 10.6 0 19.5-3.6 25.5-10.5 5.3-6 8.2-14.1 8.2-22.9 0-16.3-10.5-33.7-29.9-33.7-6.4 0-11.7 2.1-15.4 6-3.3 3.5-5 8.1-5 13.1 0 9.2 6.2 18.5 18.2 18.5 0.5 0.6 1.3 1 2.1 1 1.6 0 2.9-1.3 2.9-2.9s-1.3-2.9-2.9-2.9c-1.4 0-2.5 1-2.8 2.3-10-0.3-15.2-8.2-15.2-16.1 0-4.4 1.6-8.5 4.4-11.5 3.2-3.4 8-5.3 13.7-5.3 17.9 0 27.6 16.1 27.6 31.3 0 15.4-9.7 31-31.3 31-14.1 0-26.6-6.6-34.3-18.1-10-15-10.6-35.8-1.7-57.1 5.5-4.8 11.6-9.7 19-14.7 51.5-35.3 114.8 35.2 115.4 36 0.1 0.1 0.1 0.1 0.2 0.1 0 0.1-0.1 0.1-0.1 0.2v4.7c0 0.2 0.1 0.3 0.2 0.4-4.1 0.3-7.3 2.7-7.3 5.7 0 2.9 3.1 5.3 7.1 5.6v0.1 10.6c-2.4 0.8-4.1 3.9-4.1 7.6 0 3.9 1.8 7 4.2 7.7 0 0.1-0.1 0.2-0.1 0.3v14c0 0.7 0.5 1.2 1.2 1.2s1.2-0.5 1.2-1.2v-13.9c0-0.1-0.1-0.2-0.1-0.3 2.4-0.7 4.2-3.8 4.2-7.7 0-3.8-1.7-6.9-4.1-7.6v-10.7-0.1c4.1-0.4 7.1-2.7 7.1-5.6 0-3-3.1-5.3-7.3-5.7 0.1-0.1 0.2-0.2 0.2-0.4v-4.7c0-0.1-0.1-0.1-0.1-0.2 0.1-0.1 0.2-0.1 0.3-0.2 0.6-0.7 63.8-71.2 115.4-35.9 7.3 5 13.5 9.9 19 14.7 8.9 21.2 8.3 42-1.7 57.1-7.6 11.5-20.1 18.1-34.3 18.1-21.6 0-31.3-15.6-31.3-31 0-15.2 9.7-31.3 27.6-31.3 5.7 0 10.4 1.8 13.7 5.3 2.8 3 4.4 7.1 4.4 11.5 0 7.9-5.2 15.8-15.2 16.1-0.3-1.3-1.4-2.3-2.8-2.3-1.6 0-2.9 1.3-2.9 2.9s1.3 2.9 2.9 2.9c0.9 0 1.6-0.4 2.1-1 11.9 0 18.2-9.3 18.2-18.5 0-5-1.8-9.7-5-13.1-3.7-3.9-9-6-15.4-6-19.5 0-29.9 17.4-29.9 33.7 0 16.6 10.4 33.4 33.7 33.4 15 0 28.2-7 36.2-19.2 9.7-14.7 10.9-34.5 3.4-55.1 9.8 9 16.9 17.4 23 24.7 12.9 15.4 21.4 25.5 42 25.5 16.2 0 24.1-8.3 27.9-15.3 3.8-6.9 5.1-15.6 4.2-24.2 5.1-0.4 50.6-4.7 63.1-20.8 0.6-0.6 0.5-1.3-0.1-1.7zm-299.6 70.1c-1.4 0-2.9-2.2-2.9-5.5 0-3.2 1.5-5.5 2.9-5.5s2.9 2.2 2.9 5.5-1.5 5.5-2.9 5.5zm5.9-29.5c0 1.8-2.8 3.3-5.9 3.3s-5.9-1.6-5.9-3.3 2.8-3.3 5.9-3.3c3.2 0 5.9 1.5 5.9 3.3z"/></svg>
