<svg xmlns="http://www.w3.org/2000/svg" version="1.1" viewBox="0 0 197 135.75">
  <defs>
    <style>.cls-1{isolation:isolate;}.cls-2{mix-blend-mode:multiply;}.cls-3{fill:#9ac22c;}.cls-4{fill:#0086a8;}.cls-5{fill:#a48958;}</style>
  </defs>
  <title>Zeichenfläche 1</title>
  <g class="cls-1">
    <g data-name="Ebene 1">
      <g class="cls-2">
        <path class="cls-3" d="m22.61 61.7a19.26 19.26 0 1 0 -22.31 -15.62 19.25 19.25 0 0 0 22.31 15.62"/>
      </g>
      <g class="cls-2">
        <path class="cls-4" d="m49.86 53.47a19.26 19.26 0 1 0 -22.58 -15.23 19.26 19.26 0 0 0 22.58 15.23"/>
      </g>
      <g class="cls-2">
        <path class="cls-5" d="m21.09 37.63a19.26 19.26 0 1 0 -12.57 -24.16 19.25 19.25 0 0 0 12.57 24.16"/>
      </g>
      <g id="text">
        <path d="m119.75 126.75h-0.75a0.38 0.38 0 0 0 -0.28 0.11 0.36 0.36 0 0 0 -0.12 0.28v8a0.34 0.34 0 0 0 0.12 0.27 0.35 0.35 0 0 0 0.28 0.12h0.74a0.36 0.36 0 0 0 0.28 -0.12 0.33 0.33 0 0 0 0.11 -0.27v-8a0.36 0.36 0 0 0 -0.11 -0.28 0.39 0.39 0 0 0 -0.27 -0.11z"/>
        <path d="m14.78 123.7h-0.78a0.34 0.34 0 0 0 -0.28 0.11 0.36 0.36 0 0 0 -0.11 0.29v8.59l-5.69-8.76a1.36 1.36 0 0 0 -0.17 -0.17 0.44 0.44 0 0 0 -0.25 -0.06h-0.73a0.33 0.33 0 0 0 -0.27 0.11 0.39 0.39 0 0 0 -0.1 0.29v11.09a0.36 0.36 0 0 0 0.1 0.27 0.34 0.34 0 0 0 0.27 0.12h0.78a0.36 0.36 0 0 0 0.28 -0.12 0.37 0.37 0 0 0 0.11 -0.27v-8.52l5.69 8.67a0.41 0.41 0 0 0 0.4 0.24h0.77a0.38 0.38 0 0 0 0.28 -0.12 0.44 0.44 0 0 0 0.11 -0.29v-11.07a0.4 0.4 0 0 0 -0.11 -0.29 0.39 0.39 0 0 0 -0.3 -0.11z"/>
        <path d="m119.87 123.41h-1a0.36 0.36 0 0 0 -0.28 0.12 0.39 0.39 0 0 0 -0.11 0.28v0.89a0.41 0.41 0 0 0 0.11 0.28 0.39 0.39 0 0 0 0.28 0.11h1a0.44 0.44 0 0 0 0.29 -0.11 0.38 0.38 0 0 0 0.12 -0.28v-0.89a0.36 0.36 0 0 0 -0.12 -0.28 0.4 0.4 0 0 0 -0.29 -0.12z"/>
        <path d="m111 126.58a3.35 3.35 0 0 0 -2.85 1.31v-0.75a0.44 0.44 0 0 0 -0.1 -0.29 0.39 0.39 0 0 0 -0.29 -0.1h-0.73a0.38 0.38 0 0 0 -0.28 0.11 0.36 0.36 0 0 0 -0.11 0.28v8a0.33 0.33 0 0 0 0.11 0.27 0.35 0.35 0 0 0 0.28 0.12h0.78a0.38 0.38 0 0 0 0.28 -0.12 0.37 0.37 0 0 0 0.11 -0.27v-4.71a2.66 2.66 0 0 1 0.64 -1.89 2.26 2.26 0 0 1 1.73 -0.69 2.15 2.15 0 0 1 1.7 0.68 2.79 2.79 0 0 1 0.6 1.9v4.71a0.33 0.33 0 0 0 0.11 0.27 0.35 0.35 0 0 0 0.28 0.12h0.78a0.38 0.38 0 0 0 0.28 -0.12 0.37 0.37 0 0 0 0.11 -0.27v-4.81a4.09 4.09 0 0 0 -0.9 -2.76 3.19 3.19 0 0 0 -2.53 -0.99z"/>
        <path d="m46.11 126.75h-0.78a0.38 0.38 0 0 0 -0.39 0.39v4.7a2.62 2.62 0 0 1 -0.64 1.89 2.21 2.21 0 0 1 -1.72 0.69c-1.49 0-2.24-0.86-2.24-2.58v-4.7a0.38 0.38 0 0 0 -0.39 -0.39h-0.78a0.38 0.38 0 0 0 -0.39 0.39v4.79a4.15 4.15 0 0 0 0.88 2.77 3.08 3.08 0 0 0 2.5 1.05 3.74 3.74 0 0 0 1.68 -0.34 3.26 3.26 0 0 0 1.15 -1v0.77a0.37 0.37 0 0 0 0.11 0.27 0.38 0.38 0 0 0 0.28 0.12h0.73a0.36 0.36 0 0 0 0.28 -0.12 0.33 0.33 0 0 0 0.11 -0.27v-8a0.36 0.36 0 0 0 -0.11 -0.28 0.39 0.39 0 0 0 -0.28 -0.15z"/>
        <path d="m55.28 126.75h-0.67a2.52 2.52 0 0 0 -2.35 1.15v-0.74a0.38 0.38 0 0 0 -0.12 -0.3 0.4 0.4 0 0 0 -0.29 -0.11h-0.71a0.38 0.38 0 0 0 -0.29 0.12 0.41 0.41 0 0 0 -0.1 0.29v8a0.36 0.36 0 0 0 0.1 0.27 0.38 0.38 0 0 0 0.29 0.12h0.76a0.4 0.4 0 0 0 0.29 -0.12 0.34 0.34 0 0 0 0.12 -0.27v-5a1.85 1.85 0 0 1 2 -2h1a0.4 0.4 0 0 0 0.29 -0.11 0.43 0.43 0 0 0 0.1 -0.28v-0.63a0.44 0.44 0 0 0 -0.1 -0.29 0.39 0.39 0 0 0 -0.32 -0.1z"/>
        <path d="m35.13 134.23h-1a1 1 0 0 1 -1 -0.44 2.41 2.41 0 0 1 -0.28 -1.3v-4.43h2.15a0.43 0.43 0 0 0 0.28 -0.1 0.38 0.38 0 0 0 0.11 -0.28v-0.54a0.38 0.38 0 0 0 -0.39 -0.39h-2.1v-2.83a0.38 0.38 0 0 0 -0.11 -0.28 0.37 0.37 0 0 0 -0.28 -0.11h-0.75a0.33 0.33 0 0 0 -0.27 0.11 0.37 0.37 0 0 0 -0.1 0.28v2.83h-1.39a0.38 0.38 0 0 0 -0.28 0.11 0.43 0.43 0 0 0 -0.1 0.28v0.54a0.35 0.35 0 0 0 0.38 0.38h1.34v4.55c0 2 0.87 3 2.63 3h1.15a0.34 0.34 0 0 0 0.27 -0.12 0.36 0.36 0 0 0 0.1 -0.27v-0.56a0.41 0.41 0 0 0 -0.1 -0.29 0.37 0.37 0 0 0 -0.26 -0.14z"/>
        <path d="m23 126.58a4.24 4.24 0 0 0 -1.87 0.38 3.08 3.08 0 0 0 -1.12 0.9 1.64 1.64 0 0 0 -0.37 0.91 0.36 0.36 0 0 0 0.11 0.26 0.33 0.33 0 0 0 0.26 0.11h0.67a0.33 0.33 0 0 0 0.21 -0.06 0.48 0.48 0 0 0 0.14 -0.23 2 2 0 0 1 0.7 -0.73 2.23 2.23 0 0 1 1.25 -0.32c1.35 0 2 0.59 2 1.75v0.45l-2.54 0.36a5.29 5.29 0 0 0 -2.5 0.95 2.28 2.28 0 0 0 -0.5 3.13 2.93 2.93 0 0 0 1.12 0.93 3.62 3.62 0 0 0 1.54 0.34 3.89 3.89 0 0 0 1.83 -0.38 2.88 2.88 0 0 0 1.09 -0.93v0.75a0.36 0.36 0 0 0 0.1 0.27 0.34 0.34 0 0 0 0.27 0.12h0.75a0.36 0.36 0 0 0 0.28 -0.12 0.37 0.37 0 0 0 0.11 -0.27v-5.52a3.13 3.13 0 0 0 -0.83 -2.21 3.59 3.59 0 0 0 -2.7 -0.84zm2 5.08a2.91 2.91 0 0 1 -0.71 2.12 2.46 2.46 0 0 1 -1.83 0.73 2.4 2.4 0 0 1 -1.35 -0.38 1.2 1.2 0 0 1 -0.57 -1.07 1.19 1.19 0 0 1 0.63 -1 4.43 4.43 0 0 1 1.85 -0.58l2-0.29z"/>
        <path d="m128.07 130.57a10.58 10.58 0 0 1 -1.56 -0.43 1.9 1.9 0 0 1 -0.72 -0.46 1 1 0 0 1 -0.18 -0.6 1.1 1.1 0 0 1 0.44 -0.93 2 2 0 0 1 1.27 -0.35 3.08 3.08 0 0 1 0.94 0.13 1.93 1.93 0 0 1 0.56 0.3c0.13 0.12 0.29 0.29 0.49 0.51a0.36 0.36 0 0 0 0.34 0.18h0.64a0.35 0.35 0 0 0 0.26 -0.1 0.32 0.32 0 0 0 0.12 -0.25 1.36 1.36 0 0 0 -0.39 -0.8 3 3 0 0 0 -1.13 -0.83 4.27 4.27 0 0 0 -1.83 -0.36 4 4 0 0 0 -1.76 0.36 2.77 2.77 0 0 0 -1.11 1 2.2 2.2 0 0 0 -0.37 1.21 2.14 2.14 0 0 0 0.61 1.58 4.25 4.25 0 0 0 2.09 0.93 15.22 15.22 0 0 1 1.64 0.44 2.19 2.19 0 0 1 0.79 0.46 1 1 0 0 1 0.23 0.68 1.07 1.07 0 0 1 -0.55 1 2.76 2.76 0 0 1 -1.47 0.34 2.7 2.7 0 0 1 -1.3 -0.27 3.18 3.18 0 0 1 -0.87 -0.74l-0.16-0.16a0.35 0.35 0 0 0 -0.16 0h-0.71a0.41 0.41 0 0 0 -0.26 0.09 0.31 0.31 0 0 0 -0.12 0.26 1.46 1.46 0 0 0 0.39 0.82 3.21 3.21 0 0 0 1.2 0.87 4.54 4.54 0 0 0 2 0.39 5.28 5.28 0 0 0 2 -0.34 2.67 2.67 0 0 0 1.23 -0.94 2.23 2.23 0 0 0 0.42 -1.32 2.08 2.08 0 0 0 -0.67 -1.61 4.87 4.87 0 0 0 -2.34 -1.06z"/>
        <path d="m138.39 130.57a10.58 10.58 0 0 1 -1.56 -0.43 1.9 1.9 0 0 1 -0.72 -0.46 1 1 0 0 1 -0.18 -0.6 1.1 1.1 0 0 1 0.44 -0.93 2 2 0 0 1 1.27 -0.35 3 3 0 0 1 0.93 0.13 1.87 1.87 0 0 1 0.57 0.3c0.13 0.12 0.29 0.29 0.49 0.51a0.35 0.35 0 0 0 0.34 0.18h0.64a0.35 0.35 0 0 0 0.26 -0.1 0.31 0.31 0 0 0 0.11 -0.25 1.34 1.34 0 0 0 -0.38 -0.8 3 3 0 0 0 -1.14 -0.83 4.19 4.19 0 0 0 -1.82 -0.36 4 4 0 0 0 -1.76 0.36 2.77 2.77 0 0 0 -1.11 1 2.2 2.2 0 0 0 -0.37 1.21 2.14 2.14 0 0 0 0.61 1.58 4.25 4.25 0 0 0 2.09 0.93 14.3 14.3 0 0 1 1.63 0.44 2 2 0 0 1 0.79 0.46 1 1 0 0 1 0.24 0.68 1.07 1.07 0 0 1 -0.55 1 2.76 2.76 0 0 1 -1.47 0.34 2.7 2.7 0 0 1 -1.3 -0.27 3.18 3.18 0 0 1 -0.87 -0.74l-0.16-0.16a0.35 0.35 0 0 0 -0.16 0h-0.72a0.4 0.4 0 0 0 -0.25 0.09 0.31 0.31 0 0 0 -0.12 0.26 1.46 1.46 0 0 0 0.39 0.82 3.21 3.21 0 0 0 1.2 0.87 4.51 4.51 0 0 0 2 0.39 5.28 5.28 0 0 0 2 -0.34 2.72 2.72 0 0 0 1.23 -0.94 2.23 2.23 0 0 0 0.42 -1.32 2.08 2.08 0 0 0 -0.67 -1.61 4.87 4.87 0 0 0 -2.34 -1.06z"/>
        <path d="m87.2 126.58a3.64 3.64 0 0 0 -2.77 1.09 4.37 4.37 0 0 0 -1.13 2.92v1.13a4.41 4.41 0 0 0 1.13 2.95 3.67 3.67 0 0 0 2.77 1.08 4.56 4.56 0 0 0 1.93 -0.39 3.6 3.6 0 0 0 1.29 -0.9 1.5 1.5 0 0 0 0.46 -0.9 0.23 0.23 0 0 0 -0.11 -0.22 0.39 0.39 0 0 0 -0.26 -0.09h-0.75a0.71 0.71 0 0 0 -0.29 0 1 1 0 0 0 -0.23 0.25 2.66 2.66 0 0 1 -0.76 0.65 2.41 2.41 0 0 1 -1.3 0.32 2 2 0 0 1 -1.66 -0.78 3.13 3.13 0 0 1 -0.68 -1.89v-0.15h5.89a0.38 0.38 0 0 0 0.39 -0.39v-0.26a4.74 4.74 0 0 0 -1 -3.22 3.62 3.62 0 0 0 -2.92 -1.2zm2.38 4h-4.74v-0.05a2.89 2.89 0 0 1 0.63 -1.93 2.14 2.14 0 0 1 1.73 -0.75 2.17 2.17 0 0 1 1.73 0.75 2.85 2.85 0 0 1 0.65 1.93z"/>
        <path d="m148.52 126.58a3.64 3.64 0 0 0 -2.77 1.09 4.37 4.37 0 0 0 -1.13 2.92v1.13a4.41 4.41 0 0 0 1.13 2.95 3.67 3.67 0 0 0 2.77 1.08 4.56 4.56 0 0 0 1.93 -0.39 3.6 3.6 0 0 0 1.29 -0.9 1.5 1.5 0 0 0 0.46 -0.9 0.23 0.23 0 0 0 -0.11 -0.22 0.39 0.39 0 0 0 -0.26 -0.09h-0.75a0.71 0.71 0 0 0 -0.29 0 1 1 0 0 0 -0.23 0.25 2.66 2.66 0 0 1 -0.76 0.65 2.41 2.41 0 0 1 -1.3 0.32 2 2 0 0 1 -1.66 -0.78 3.13 3.13 0 0 1 -0.68 -1.89v-0.15h5.89a0.38 0.38 0 0 0 0.39 -0.39v-0.26a4.74 4.74 0 0 0 -1 -3.22 3.62 3.62 0 0 0 -2.92 -1.2zm2.38 4h-4.74v-0.05a2.89 2.89 0 0 1 0.63 -1.93 2.13 2.13 0 0 1 1.73 -0.75 2.17 2.17 0 0 1 1.73 0.75 2.85 2.85 0 0 1 0.65 1.93z"/>
        <path d="m74.37 126.75h-0.66a2.52 2.52 0 0 0 -2.36 1.15v-0.74a0.41 0.41 0 0 0 -0.11 -0.3 0.42 0.42 0 0 0 -0.3 -0.11h-0.71a0.35 0.35 0 0 0 -0.28 0.12 0.38 0.38 0 0 0 -0.11 0.29v8a0.33 0.33 0 0 0 0.11 0.27 0.35 0.35 0 0 0 0.28 0.12h0.77a0.38 0.38 0 0 0 0.29 -0.12 0.34 0.34 0 0 0 0.12 -0.27v-5a2 2 0 0 1 0.53 -1.48 2 2 0 0 1 1.47 -0.54h1a0.4 0.4 0 0 0 0.29 -0.11 0.39 0.39 0 0 0 0.1 -0.28v-0.63a0.35 0.35 0 0 0 -0.39 -0.39z"/>
        <path d="m79.07 123.53h-0.75a0.4 0.4 0 0 0 -0.28 0.1 0.38 0.38 0 0 0 -0.11 0.29v11.27a0.37 0.37 0 0 0 0.11 0.27 0.38 0.38 0 0 0 0.28 0.12h0.75a0.36 0.36 0 0 0 0.28 -0.12 0.37 0.37 0 0 0 0.11 -0.27v-11.27a0.38 0.38 0 0 0 -0.11 -0.28 0.36 0.36 0 0 0 -0.28 -0.11z"/>
        <path d="m62.15 126.58a3.64 3.64 0 0 0 -2.77 1.09 4.37 4.37 0 0 0 -1.13 2.92v1.13a4.41 4.41 0 0 0 1.13 2.95 3.67 3.67 0 0 0 2.77 1.08 4.56 4.56 0 0 0 1.93 -0.39 3.6 3.6 0 0 0 1.29 -0.9 1.5 1.5 0 0 0 0.46 -0.9 0.23 0.23 0 0 0 -0.11 -0.22 0.39 0.39 0 0 0 -0.26 -0.09h-0.75a0.71 0.71 0 0 0 -0.29 0 1 1 0 0 0 -0.23 0.25 2.8 2.8 0 0 1 -0.76 0.65 2.41 2.41 0 0 1 -1.3 0.32 2 2 0 0 1 -1.66 -0.78 3.19 3.19 0 0 1 -0.68 -1.89v-0.15h5.89a0.38 0.38 0 0 0 0.39 -0.39v-0.26a4.74 4.74 0 0 0 -1 -3.22 3.62 3.62 0 0 0 -2.92 -1.2zm2.38 4h-4.74v-0.05a2.89 2.89 0 0 1 0.63 -1.93 2.13 2.13 0 0 1 1.73 -0.75 2.17 2.17 0 0 1 1.73 0.75 2.85 2.85 0 0 1 0.65 1.93z"/>
        <path d="m101.87 127.74a3.16 3.16 0 0 0 -2.67 -1.16 3.23 3.23 0 0 0 -2.75 1.26v-3.92a0.38 0.38 0 0 0 -0.11 -0.28 0.36 0.36 0 0 0 -0.28 -0.11h-0.76a0.37 0.37 0 0 0 -0.28 0.1 0.36 0.36 0 0 0 -0.12 0.29v11.27a0.34 0.34 0 0 0 0.12 0.27 0.35 0.35 0 0 0 0.28 0.12h0.7a0.38 0.38 0 0 0 0.28 -0.12 0.37 0.37 0 0 0 0.11 -0.27v-0.73a3.31 3.31 0 0 0 2.8 1.29 3.13 3.13 0 0 0 2.67 -1.17 4.8 4.8 0 0 0 0.94 -2.91 3.56 3.56 0 0 0 0 -0.51 3.71 3.71 0 0 0 0 -0.51 4.84 4.84 0 0 0 -0.93 -2.91zm-0.6 3.92a3.57 3.57 0 0 1 -0.61 2 2.06 2.06 0 0 1 -1.78 0.76 2.09 2.09 0 0 1 -1.79 -0.79 3.08 3.08 0 0 1 -0.64 -1.87v-0.65s0-0.53 0-0.66a2.88 2.88 0 0 1 0.65 -1.79 2.2 2.2 0 0 1 1.78 -0.76c1.6 0 2.41 1.09 2.41 3.26 0 0.22-0.01 0.38-0.02 0.5z"/>
        <path d="m26.08 106a3.83 3.83 0 0 0 -2.86 -1 3.8 3.8 0 0 0 -2.86 1 4.08 4.08 0 0 0 -1.1 2.8v1.46a4.15 4.15 0 0 0 1.08 2.8 3.8 3.8 0 0 0 2.88 1 3.79 3.79 0 0 0 2.87 -1 4.05 4.05 0 0 0 1.08 -2.8v-0.73s0-0.48 0-0.73a4.08 4.08 0 0 0 -1.09 -2.8zm-0.45 4.18a3 3 0 0 1 -0.69 2 2.5 2.5 0 0 1 -3.45 0 3 3 0 0 1 -0.68 -2v-1.29a3 3 0 0 1 0.68 -2 2.5 2.5 0 0 1 3.45 0 3.06 3.06 0 0 1 0.69 2v0.64s0.01 0.56 0 0.68z"/>
        <path d="m35.57 105.15h-0.66a2.52 2.52 0 0 0 -2.36 1.15v-0.74a0.38 0.38 0 0 0 -0.41 -0.41h-0.71a0.36 0.36 0 0 0 -0.28 0.12 0.42 0.42 0 0 0 -0.11 0.29v8a0.38 0.38 0 0 0 0.11 0.28 0.36 0.36 0 0 0 0.28 0.11h0.76a0.38 0.38 0 0 0 0.29 -0.11 0.35 0.35 0 0 0 0.12 -0.28v-5a2 2 0 0 1 0.54 -1.48 2 2 0 0 1 1.46 -0.54h1a0.38 0.38 0 0 0 0.29 -0.11 0.4 0.4 0 0 0 0.1 -0.28v-0.63a0.35 0.35 0 0 0 -0.39 -0.39z"/>
        <path d="m75.71 105a3.64 3.64 0 0 0 -2.77 1.09 4.41 4.41 0 0 0 -1.13 2.91v1.14a4.46 4.46 0 0 0 1.13 2.95 3.66 3.66 0 0 0 2.77 1.07 4.56 4.56 0 0 0 1.93 -0.38 3.75 3.75 0 0 0 1.3 -0.91 1.52 1.52 0 0 0 0.45 -0.89 0.26 0.26 0 0 0 -0.11 -0.23 0.45 0.45 0 0 0 -0.26 -0.08h-0.75a0.63 0.63 0 0 0 -0.28 0 0.81 0.81 0 0 0 -0.24 0.25 3 3 0 0 1 -0.76 0.65 2.41 2.41 0 0 1 -1.3 0.32 2 2 0 0 1 -1.66 -0.79 3.16 3.16 0 0 1 -0.68 -1.88v-0.15h5.89a0.39 0.39 0 0 0 0.28 -0.11 0.41 0.41 0 0 0 0.11 -0.28v-0.31a4.72 4.72 0 0 0 -1 -3.22 3.62 3.62 0 0 0 -2.92 -1.15zm2.38 4h-4.74v-0.05a2.89 2.89 0 0 1 0.65 -1.95 2.14 2.14 0 0 1 1.73 -0.75 2.17 2.17 0 0 1 1.73 0.75 2.85 2.85 0 0 1 0.65 1.93z"/>
        <path d="m64.53 105a3.62 3.62 0 0 0 -2.77 1.09 4.42 4.42 0 0 0 -1.14 2.91v1.14a4.46 4.46 0 0 0 1.14 2.95 3.65 3.65 0 0 0 2.77 1.07 4.51 4.51 0 0 0 1.92 -0.38 3.66 3.66 0 0 0 1.3 -0.91 1.48 1.48 0 0 0 0.46 -0.89 0.28 0.28 0 0 0 -0.11 -0.23 0.47 0.47 0 0 0 -0.26 -0.08h-0.75a0.68 0.68 0 0 0 -0.29 0 0.81 0.81 0 0 0 -0.24 0.25 2.92 2.92 0 0 1 -0.75 0.65 2.43 2.43 0 0 1 -1.3 0.32 2 2 0 0 1 -1.66 -0.79 3.1 3.1 0 0 1 -0.68 -1.88v-0.15h5.89a0.38 0.38 0 0 0 0.39 -0.39v-0.31a4.77 4.77 0 0 0 -1 -3.22 3.63 3.63 0 0 0 -2.92 -1.15zm2.37 4h-4.73v-0.05a2.89 2.89 0 0 1 0.63 -1.95 2.12 2.12 0 0 1 1.73 -0.75 2.17 2.17 0 0 1 1.73 0.75 2.85 2.85 0 0 1 0.64 1.93z"/>
        <path d="m42.16 114.14a3.29 3.29 0 0 0 2.8 -1.29v0.73a0.37 0.37 0 0 0 0.1 0.28 0.33 0.33 0 0 0 0.27 0.11h0.73a0.36 0.36 0 0 0 0.28 -0.11 0.38 0.38 0 0 0 0.11 -0.28v-11.27a0.37 0.37 0 0 0 -0.11 -0.27 0.36 0.36 0 0 0 -0.28 -0.12h-0.76a0.35 0.35 0 0 0 -0.3 0.08 0.33 0.33 0 0 0 -0.11 0.27v3.93a3.31 3.31 0 0 0 -2.73 -1.2 3.18 3.18 0 0 0 -2.67 1.16 4.92 4.92 0 0 0 -1 2.91v1.02a4.94 4.94 0 0 0 0.95 2.92 3.18 3.18 0 0 0 2.72 1.13zm-2.07-5.07a3.47 3.47 0 0 1 0.61 -2 2 2 0 0 1 1.78 -0.77 2.14 2.14 0 0 1 1.77 0.76 2.89 2.89 0 0 1 0.66 1.79v0.66s0 0.52 0 0.65a3.29 3.29 0 0 1 -0.65 1.87 2.07 2.07 0 0 1 -1.78 0.79c-1.61 0-2.41-1.09-2.41-3.26z"/>
        <path d="m14.78 102.09h-0.78a0.35 0.35 0 0 0 -0.28 0.12 0.36 0.36 0 0 0 -0.11 0.29v8.59l-5.69-8.76a1.36 1.36 0 0 0 -0.17 -0.17 0.44 0.44 0 0 0 -0.25 -0.07h-0.73a0.34 0.34 0 0 0 -0.27 0.12 0.39 0.39 0 0 0 -0.1 0.29v11.08a0.37 0.37 0 0 0 0.1 0.28 0.33 0.33 0 0 0 0.27 0.11h0.78a0.36 0.36 0 0 0 0.28 -0.11 0.38 0.38 0 0 0 0.11 -0.28v-8.52l5.69 8.68a0.4 0.4 0 0 0 0.4 0.23h0.77a0.41 0.41 0 0 0 0.28 -0.11 0.44 0.44 0 0 0 0.11 -0.29v-11.07a0.4 0.4 0 0 0 -0.11 -0.29 0.39 0.39 0 0 0 -0.3 -0.12z"/>
        <path d="m54.39 109a10.58 10.58 0 0 1 -1.56 -0.43 1.76 1.76 0 0 1 -0.71 -0.46 1 1 0 0 1 -0.19 -0.61 1.12 1.12 0 0 1 0.44 -0.92 2.05 2.05 0 0 1 1.28 -0.35 2.78 2.78 0 0 1 0.93 0.13 1.52 1.52 0 0 1 0.57 0.3 6.49 6.49 0 0 1 0.48 0.51 0.36 0.36 0 0 0 0.34 0.18h0.65a0.35 0.35 0 0 0 0.26 -0.1 0.34 0.34 0 0 0 0.12 -0.25 1.4 1.4 0 0 0 -0.38 -0.8 3 3 0 0 0 -1.14 -0.83 4.19 4.19 0 0 0 -1.82 -0.36 4 4 0 0 0 -1.76 0.36 2.83 2.83 0 0 0 -1.11 1 2.23 2.23 0 0 0 -0.37 1.22 2.14 2.14 0 0 0 0.61 1.58 4.21 4.21 0 0 0 2.08 0.93 14.59 14.59 0 0 1 1.64 0.44 2.1 2.1 0 0 1 0.79 0.46 1 1 0 0 1 0.24 0.68 1.07 1.07 0 0 1 -0.55 1 2.76 2.76 0 0 1 -1.47 0.34 2.67 2.67 0 0 1 -1.3 -0.27 3.05 3.05 0 0 1 -0.87 -0.75 0.94 0.94 0 0 0 -0.17 -0.15 0.32 0.32 0 0 0 -0.16 0h-0.71a0.4 0.4 0 0 0 -0.25 0.09 0.31 0.31 0 0 0 -0.12 0.26 1.46 1.46 0 0 0 0.39 0.82 3.25 3.25 0 0 0 1.19 0.87 4.54 4.54 0 0 0 2 0.38 5.26 5.26 0 0 0 2 -0.33 2.75 2.75 0 0 0 1.24 -0.94 2.23 2.23 0 0 0 0.42 -1.32 2.11 2.11 0 0 0 -0.67 -1.61 4.77 4.77 0 0 0 -2.36 -1.07z"/>
        <path d="m63.06 83.45c0.58 0 1.14 0 1.67-0.06a7.75 7.75 0 0 0 1.38 -0.23l1-0.18c0.33 0 0.72-0.1 1.18-0.14a14.6 14.6 0 0 1 1.57 -0.07h0.45a3.59 3.59 0 0 1 0.47 0l0.42-1.26a1.3 1.3 0 0 0 -0.55 -0.23 8.41 8.41 0 0 0 -0.9 -0.15c-0.34 0-0.72-0.08-1.13-0.11s-0.81 0-1.2 0-0.88 0-1.27 0a7.48 7.48 0 0 0 -1 0.14 7.76 7.76 0 0 1 -1 0.19c-0.41 0.06-0.86 0.12-1.33 0.17s-0.94 0.09-1.4 0.12-0.88 0-1.25 0h-0.47a1.11 1.11 0 0 1 -0.36 0l-0.14 1.44a8.38 8.38 0 0 0 1.53 0.24c0.73 0.1 1.51 0.13 2.33 0.13z"/>
        <path d="m51.31 91.55h0.08a3.08 3.08 0 0 0 1.31 -0.55c0.58-0.38 1.18-0.81 1.79-1.29s1.18-1 1.69-1.43a12.85 12.85 0 0 0 1 -1l-0.89-1.68c-0.21 0.24-0.55 0.59-1 1a19.81 19.81 0 0 1 -1.5 1.31 12 12 0 0 1 -1.62 1.09 3.2 3.2 0 0 1 -1.51 0.48 1 1 0 0 1 -0.42 -0.08c-0.14 0-0.24-0.16-0.31-0.38a3.38 3.38 0 0 1 -0.09 -0.86 11.15 11.15 0 0 1 0.16 -1.66c0.09-0.65 0.22-1.34 0.38-2.09s0.33-1.52 0.54-2.33 0.41-1.62 0.64-2.41l0.55 0.08c0.79 0.19 1.53 0.35 2.23 0.46a10.87 10.87 0 0 0 1.81 0.17h0.3a1.27 1.27 0 0 0 0.28 0l-0.29-1.89a2.81 2.81 0 0 1 -0.94 0.16 6.84 6.84 0 0 1 -1.68 -0.23q-0.9-0.24-1.74-0.42c0.35-1.18 0.69-2.19 1-3a11.14 11.14 0 0 1 0.78 -1.73l-2.38-0.08a12.76 12.76 0 0 0 -0.74 1.77c-0.3 0.83-0.6 1.79-0.92 2.88a11.76 11.76 0 0 0 -2 0.19c-0.59 0.12-1.26 0.26-2 0.44v0.17c-0.27 0-0.55-0.1-0.83-0.17-0.6-0.16-1.17-0.3-1.73-0.42 0.35-1.18 0.69-2.19 1-3a10.9 10.9 0 0 1 0.79 -1.73l-2.39-0.08a14.15 14.15 0 0 0 -0.66 1.64c-0.3 0.83-0.6 1.79-0.92 2.88a11.63 11.63 0 0 0 -2 0.19c-0.6 0.12-1.27 0.26-2 0.44l0.18 1.91a6.72 6.72 0 0 0 1.21 -0.3 8.2 8.2 0 0 1 2.07 -0.35c-0.28 1-0.54 1.93-0.8 2.9s-0.48 1.87-0.68 2.71c-0.07 0.29-0.13 0.55-0.19 0.82v-0.18c-0.3 0.31-0.68 0.68-1.15 1.09s-1 0.81-1.51 1.19a17.25 17.25 0 0 1 -1.63 1 9.68 9.68 0 0 1 -1.48 0.71 3 3 0 0 1 0 -0.42v-0.5a10.43 10.43 0 0 1 0.09 -1.31c0.07-0.47 0.15-1 0.25-1.5l0.06-0.05v-0.08a32.6 32.6 0 0 1 0.94 -3.48c0.41-1.21 0.85-2.42 1.32-3.61l-1.71-0.26a1.9 1.9 0 0 0 -0.18 0.5 3.24 3.24 0 0 0 -0.32 -0.53 2.48 2.48 0 0 0 -0.54 -0.53 2.75 2.75 0 0 0 -0.76 -0.41 2.72 2.72 0 0 0 -1 -0.16h-0.45a2.5 2.5 0 0 0 -1.08 0.51 7.51 7.51 0 0 0 -1.16 1.12 17.62 17.62 0 0 0 -1.18 1.51c-0.13 0.17-0.24 0.36-0.36 0.54s-0.39 0.27-0.61 0.4a19.75 19.75 0 0 1 -1.85 1c-0.62 0.3-1.22 0.55-1.78 0.76a8.33 8.33 0 0 1 -1.36 0.4c0.28-0.56 0.54-1.1 0.76-1.62s0.43-1 0.61-1.4 0.31-0.77 0.41-1a2.37 2.37 0 0 0 0.14 -0.58 0.62 0.62 0 0 0 -0.34 -0.49 2.28 2.28 0 0 0 -0.66 -0.34 5.16 5.16 0 0 0 -0.84 -0.21 5 5 0 0 0 -0.81 -0.08 1.59 1.59 0 0 0 -0.76 0.13 1.58 1.58 0 0 0 -0.45 0.63 10.43 10.43 0 0 0 -0.48 1.17 11.42 11.42 0 0 0 -0.34 1.34 6.49 6.49 0 0 0 -0.13 1.2 0.79 0.79 0 0 0 0 0.26 2.08 2.08 0 0 0 0.42 1c-0.21 0.46-0.46 0.95-0.74 1.46s-0.58 1-0.92 1.54-0.69 1-1.07 1.46a10.37 10.37 0 0 1 -1.22 1.23 3.3 3.3 0 0 1 -0.55 -0.84 8.33 8.33 0 0 1 -0.41 -1.06 10.88 10.88 0 0 1 -0.27 -1.16c-0.07-0.39-0.12-0.76-0.16-1.11 0.35-0.7 0.68-1.4 1-2.09s0.59-1.33 0.83-1.9 0.42-1.08 0.56-1.5a3.37 3.37 0 0 0 0.21 -0.89v-0.11a2.07 2.07 0 0 0 -0.6 -0.72 1.68 1.68 0 0 0 -1 -0.3 2.81 2.81 0 0 0 -1.05 0.24c-0.17 0-0.33 0.24-0.46 0.57a6.32 6.32 0 0 0 -0.31 1.25c-0.08 0.5-0.15 1.07-0.2 1.72s-0.09 1.31-0.1 2c-0.32 0.69-0.65 1.35-1 2a18.5 18.5 0 0 1 -1.1 1.77 11.71 11.71 0 0 1 -1.19 1.43 5.28 5.28 0 0 1 -1.23 1 2.58 2.58 0 0 1 -0.34 -0.91 6.12 6.12 0 0 1 -0.11 -1.17 12.53 12.53 0 0 1 0.29 -2.54 25.72 25.72 0 0 1 0.69 -2.62c0.26-0.83 0.52-1.57 0.78-2.24s0.46-1.14 0.58-1.42l-1.86-1.21a2.27 2.27 0 0 0 -0.71 0.94 12.14 12.14 0 0 0 -0.69 1.68q-0.3 1-0.54 2.1c-0.16 0.76-0.29 1.49-0.41 2.19s-0.2 1.37-0.27 2-0.12 1.06-0.13 1.39v0.11a2.49 2.49 0 0 0 0.31 1.19 3.78 3.78 0 0 0 0.81 1.05 4.24 4.24 0 0 0 1.13 0.67 3.25 3.25 0 0 0 1.29 0.27 2.11 2.11 0 0 0 0.89 -0.18 3.63 3.63 0 0 0 1.24 -1.19 23.73 23.73 0 0 0 1.52 -2.38c0 0.68 0 1.27 0.05 1.77s0 0.85 0 1a1 1 0 0 0 0.71 0.8 4.14 4.14 0 0 0 1.5 0.25 6.69 6.69 0 0 0 1 -0.08 6.2 6.2 0 0 0 1 -0.21 1.74 1.74 0 0 0 0.74 -0.6 13.68 13.68 0 0 0 1 -1.33c0.35-0.53 0.71-1.14 1.09-1.82s0.75-1.39 1.11-2.11a2.64 2.64 0 0 0 1.32 0.37h0.26a6 6 0 0 0 1.37 -0.41 12.22 12.22 0 0 0 1.41 -0.7c-0.16 0.32-0.29 0.62-0.39 0.87a5.42 5.42 0 0 0 -0.31 1.86 5.82 5.82 0 0 0 0.16 1.37 5.66 5.66 0 0 0 0.43 1.24 3.23 3.23 0 0 0 0.67 0.95 1.62 1.62 0 0 0 0.86 0.46 1.07 1.07 0 0 0 0.29 0 3.7 3.7 0 0 0 2 -0.73 15 15 0 0 0 2.29 -1.82c0 0.27 0 0.51-0.05 0.75s0 0.44 0 0.62a0.87 0.87 0 0 0 0.32 0.67 3.14 3.14 0 0 0 0.82 0.53 5.49 5.49 0 0 0 1.06 0.35 4.8 4.8 0 0 0 1.08 0.13h0.05a2.28 2.28 0 0 0 1.22 -0.51 12.73 12.73 0 0 0 1.38 -1.19c0.48-0.46 0.93-0.93 1.35-1.4a2.8 2.8 0 0 1 0.22 -0.25 3.73 3.73 0 0 0 0 0.43v0.11a1.77 1.77 0 0 0 0.49 1.11 4.66 4.66 0 0 0 1.1 0.86 6.67 6.67 0 0 0 1.3 0.55 4.27 4.27 0 0 0 1.15 0.2h0.15a3.15 3.15 0 0 0 1.36 -0.61c0.57-0.38 1.17-0.81 1.78-1.29s1-0.82 1.45-1.22v0.45a1.79 1.79 0 0 0 0.46 1.06 4.46 4.46 0 0 0 1.1 0.86 6.67 6.67 0 0 0 1.3 0.55 4.27 4.27 0 0 0 1.14 0.2 0.15 0.15 0 0 0 0.08 -0.06zm-37.31-11.33a4.68 4.68 0 0 1 0.4 -0.78c0 0.43-0.1 0.84-0.17 1.22a4.79 4.79 0 0 1 -0.33 1 1.48 1.48 0 0 1 -0.08 -0.53 2.63 2.63 0 0 1 0.18 -0.91zm6.54 0.46a6.27 6.27 0 0 1 -0.6 1.22 0.53 0.53 0 0 1 0 -0.23 2.09 2.09 0 0 1 0.06 -0.67 5.07 5.07 0 0 1 0.29 -0.69 6.15 6.15 0 0 1 0.35 -0.63c0.12-0.19 0.23-0.35 0.32-0.47a9 9 0 0 1 -0.46 1.47zm10.93 5.08c-0.37 0.42-0.75 0.84-1.15 1.26s-0.77 0.8-1.14 1.13a7 7 0 0 1 -1 0.8 1.52 1.52 0 0 1 -0.76 0.31h-0.05a0.78 0.78 0 0 1 -0.73 -0.53 3.25 3.25 0 0 1 -0.19 -1.18 4.73 4.73 0 0 1 0.05 -0.75c0-0.25 0.07-0.5 0.1-0.75a3.28 3.28 0 0 1 0.4 -1c0.22-0.41 0.49-0.85 0.8-1.33s0.64-0.95 1-1.44 0.7-0.94 1-1.34 0.6-0.74 0.84-1 0.39-0.43 0.46-0.49a0.28 0.28 0 0 1 0.18 0 0.82 0.82 0 0 1 0.44 0.16 2.33 2.33 0 0 1 0.48 0.43 3.38 3.38 0 0 1 0.42 0.62 2.36 2.36 0 0 1 0.26 0.73l0.37-0.71c-0.38 1-0.73 2-1 2.88s-0.63 1.59-0.82 2.2zm17.06-3.24c-0.25 1-0.48 1.87-0.68 2.71-0.05 0.18-0.08 0.33-0.12 0.51l-0.11-0.21c-0.21 0.24-0.54 0.59-1 1a18 18 0 0 1 -1.5 1.31 11.44 11.44 0 0 1 -1.7 1.16 3.17 3.17 0 0 1 -1.51 0.48 1 1 0 0 1 -0.42 -0.08c-0.14 0-0.24-0.16-0.3-0.38a2.94 2.94 0 0 1 -0.1 -0.86 11.15 11.15 0 0 1 0.15 -1.65c0.09-0.65 0.22-1.34 0.38-2.09s0.34-1.52 0.54-2.33 0.41-1.62 0.64-2.41l0.55 0.08c0.79 0.19 1.53 0.35 2.23 0.46l0.48 0.06h0.08a10.08 10.08 0 0 0 1.26 0.1h0.3a1.24 1.24 0 0 0 0.27 0l-0.08-0.54a8.79 8.79 0 0 1 1.4 -0.19c-0.29 0.93-0.55 1.9-0.8 2.87z"/>
        <path d="m196 86.73a9.78 9.78 0 0 1 -1 0.58l-1.35 0.74c-0.54 0.28-1.11 0.57-1.7 0.89a1 1 0 0 1 0.09 -0.21l0.19-0.41c0.07-0.15 0.14-0.28 0.2-0.4a1.78 1.78 0 0 0 0.09 -0.21 3 3 0 0 0 0.2 -0.71 5.6 5.6 0 0 0 0.07 -0.84 6.69 6.69 0 0 0 -0.19 -1.49 5.24 5.24 0 0 0 -0.6 -1.48 4.27 4.27 0 0 0 -0.41 -0.56c-0.18-0.22-0.37-0.46-0.55-0.71a7.34 7.34 0 0 1 -0.49 -0.79 1.74 1.74 0 0 1 -0.21 -0.8 0.83 0.83 0 0 1 0.06 -0.29 8.39 8.39 0 0 1 0.34 -1.12c0.14-0.37 0.26-0.69 0.37-1a1.66 1.66 0 0 0 0 -0.24 1.26 1.26 0 0 0 -0.12 -0.51 2.73 2.73 0 0 0 -0.29 -0.53 1.76 1.76 0 0 0 -0.36 -0.4 0.59 0.59 0 0 0 -0.36 -0.16h-0.13a1.53 1.53 0 0 0 -0.85 1 6.77 6.77 0 0 0 -0.51 1.74l-1 1.55-1.36 2.13-1.54 2.37c-0.53 0.82-1 1.59-1.51 2.31l-0.09 0.14-1.32 0.72-1.71 0.89a0.76 0.76 0 0 1 0.1 -0.21l0.19-0.41c0.07-0.15 0.14-0.28 0.2-0.4a1.78 1.78 0 0 0 0.09 -0.21 3 3 0 0 0 0.2 -0.71 5.63 5.63 0 0 0 0.06 -0.84 6.65 6.65 0 0 0 -0.18 -1.49 5.24 5.24 0 0 0 -0.6 -1.48 4.27 4.27 0 0 0 -0.41 -0.56c-0.18-0.22-0.37-0.46-0.55-0.71a6 6 0 0 1 -0.49 -0.79 1.74 1.74 0 0 1 -0.21 -0.8 1.1 1.1 0 0 1 0 -0.29 10.26 10.26 0 0 1 0.35 -1.12l0.36-1a0.88 0.88 0 0 0 0 -0.24 1.26 1.26 0 0 0 -0.12 -0.51 2.73 2.73 0 0 0 -0.29 -0.53 1.76 1.76 0 0 0 -0.36 -0.4 0.57 0.57 0 0 0 -0.36 -0.16h0.06a1.53 1.53 0 0 0 -0.85 1 7.2 7.2 0 0 0 -0.52 1.74c-0.24 0.39-0.57 0.9-1 1.55s-0.87 1.36-1.37 2.13-1 1.56-1.53 2.37-1 1.59-1.51 2.31c-0.09 0.15-0.18 0.27-0.27 0.4l-0.23 0.21c-0.49 0.41-1 0.81-1.51 1.21a8.26 8.26 0 0 1 -1.45 0.88 3.26 3.26 0 0 1 -0.42 -1.09 6.9 6.9 0 0 1 -0.13 -1.41 13.07 13.07 0 0 1 0.08 -1.38q0.07-0.69 0.21-1.38c0.38-0.54 0.74-1.06 1.06-1.56s0.61-1 0.87-1.38 0.45-0.77 0.59-1.06a2.6 2.6 0 0 0 0.24 -0.62v-0.07a1.08 1.08 0 0 0 -0.19 -0.58 1.89 1.89 0 0 0 -0.47 -0.51 2.35 2.35 0 0 0 -0.66 -0.37 2 2 0 0 0 -0.76 -0.15 1.59 1.59 0 0 0 -1.13 0.45 2.35 2.35 0 0 0 -0.5 0.87 12.29 12.29 0 0 0 -0.39 1.31 15.69 15.69 0 0 0 -0.31 1.6c-0.09 0.58-0.16 1.16-0.21 1.76q-0.59 0.78-1.29 1.59c-0.47 0.53-1 1-1.45 1.51a18.47 18.47 0 0 1 -1.47 1.27 8.69 8.69 0 0 1 -1.34 0.88v-0.51s0-0.27 0-0.46c0-0.35 0-0.81 0.1-1.37s0.21-1.24 0.41-2.06 0.49-1.76 0.87-2.86 0.87-2.34 1.48-3.74l-2.47-0.13q-1 3-1.6 5c-0.38 1.33-0.67 2.4-0.85 3.21v0.1c-0.28 0.29-0.55 0.6-0.81 0.88-0.42 0.47-0.85 0.89-1.28 1.29a11.13 11.13 0 0 1 -1.35 1 5.56 5.56 0 0 1 -1.55 0.69 1.51 1.51 0 0 1 -0.71 -1 5.88 5.88 0 0 1 -0.18 -1.48c0-0.32 0-0.63 0.05-0.94s0.07-0.59 0.11-0.85a5 5 0 0 1 0.12 -0.68c0-0.19 0.07-0.34 0.09-0.42a25.19 25.19 0 0 0 1.4 -2.37c0.47-0.87 0.91-1.76 1.33-2.67s0.81-1.82 1.18-2.71 0.68-1.71 0.94-2.45 0.47-1.39 0.62-1.92a4.87 4.87 0 0 0 0.22 -1.09v-0.01a1.69 1.69 0 0 0 -0.69 -0.8 2.19 2.19 0 0 0 -1.3 -0.41 2.85 2.85 0 0 0 -0.62 0.08 1.8 1.8 0 0 0 -0.61 0.29 5 5 0 0 0 -1.69 1.84 18 18 0 0 0 -1.3 3 33.48 33.48 0 0 0 -1 3.57q-0.44 1.9-0.72 3.69c-0.18 1.13-0.32 2.16-0.42 3.11a8 8 0 0 1 -1.15 0.53c-0.48 0.18-1 0.37-1.59 0.56s-1.18 0.38-1.82 0.56l-1.88 0.49a7.11 7.11 0 0 0 -0.63 -0.86l1.05-0.74 1.06-0.77c0.34-0.26 0.65-0.5 0.94-0.74a6.19 6.19 0 0 0 0.62 -0.59 5.43 5.43 0 0 0 0.6 -1c0.23-0.49 0.47-1.06 0.72-1.69s0.48-1.33 0.72-2 0.45-1.43 0.64-2.1 0.35-1.29 0.46-1.84a6.33 6.33 0 0 0 0.17 -1.27v-0.11a9.42 9.42 0 0 0 -0.19 -1.19 5 5 0 0 0 -0.44 -1.21 3.17 3.17 0 0 0 -0.73 -1 1.64 1.64 0 0 0 -1.08 -0.38 2 2 0 0 0 -0.55 0.08 3.64 3.64 0 0 0 -1.48 0.92 11.76 11.76 0 0 0 -1.47 1.72 21.16 21.16 0 0 0 -1.4 2.22c-0.44 0.8-0.84 1.59-1.2 2.36s-0.67 1.5-0.92 2.18a13.89 13.89 0 0 0 -0.54 1.65c-0.09 0.32-0.19 0.78-0.31 1.38s-0.27 1.31-0.42 2.1-0.33 1.66-0.52 2.58-0.36 1.79-0.52 2.79-0.33 1.88-0.49 2.79-0.3 1.75-0.42 2.52-0.22 1.44-0.29 2a11.37 11.37 0 0 0 -0.1 1.26v0.13a2.13 2.13 0 0 0 0.29 1 3.5 3.5 0 0 0 0.64 0.87 3.43 3.43 0 0 0 0.85 0.62 2.27 2.27 0 0 0 1 0.23 1.82 1.82 0 0 0 1 -0.31 4.75 4.75 0 0 0 1.18 -1.47 19.63 19.63 0 0 0 1.14 -2.38 26.8 26.8 0 0 0 0.95 -2.74 18.3 18.3 0 0 0 0.56 -2.57 2 2 0 0 0 0.05 -0.49v-0.46a6 6 0 0 0 -0.15 -1.39c0.33-0.12 0.78-0.26 1.35-0.41l1.76-0.46 1.72-0.48c0.25-0.08 0.46-0.15 0.66-0.23v0.23a1.24 1.24 0 0 0 0 0.27 1.67 1.67 0 0 0 0.49 1 3.61 3.61 0 0 0 1 0.7 5.56 5.56 0 0 0 1.29 0.4 7.37 7.37 0 0 0 1.37 0.13 4.33 4.33 0 0 0 1.79 -0.31 8.57 8.57 0 0 0 1 -0.59 5.59 5.59 0 0 0 0.78 -0.68c0.07-0.07 0.13-0.16 0.2-0.23a1.46 1.46 0 0 0 0.07 0.19 1.73 1.73 0 0 0 0.58 0.56 2.45 2.45 0 0 0 0.85 0.31 5 5 0 0 0 1 0.1h0.71l0.71-0.09a4.14 4.14 0 0 0 1.63 -1.12 25.63 25.63 0 0 0 2.15 -2.4q0 0.52 0 0.93v1a2.19 2.19 0 0 0 0.45 1.3 1.76 1.76 0 0 0 1.47 0.54 4.93 4.93 0 0 0 1.31 -0.19 4.47 4.47 0 0 0 0.82 -0.29l0.89 0.82 1.34-2.24c0.17-0.14 0.35-0.31 0.52-0.47a7.45 7.45 0 0 0 0.68 1 8.77 8.77 0 0 0 1 1.08 6.59 6.59 0 0 0 1.1 0.81 2.86 2.86 0 0 0 1 0.39h0.08a3.81 3.81 0 0 0 1.1 -0.27c0.51-0.17 1.08-0.4 1.71-0.67s1.28-0.57 2-0.89l0.25-0.12a1.93 1.93 0 0 1 -0.17 0.21l1.31 1.21 1.69-2.81h0.08a7.64 7.64 0 0 0 0.77 1.1 8.77 8.77 0 0 0 1 1.08 6.59 6.59 0 0 0 1.1 0.81 2.86 2.86 0 0 0 1 0.39h0.18a3.74 3.74 0 0 0 1.1 -0.27c0.51-0.17 1.08-0.4 1.71-0.67s1.29-0.57 2-0.89l1.9-0.92 1.51-0.76 0.79-0.41zm-27.83-6.4a1.36 1.36 0 0 1 0.59 -0.81 2.26 2.26 0 0 1 -0.35 1.07c-0.2 0.32-0.37 0.57-0.51 0.76a9.85 9.85 0 0 0 0.3 -1.02zm-14.85-0.89c0.17-0.69 0.38-1.37 0.62-2.06a17.9 17.9 0 0 1 0.8 -2 10.91 10.91 0 0 1 1 -1.76 14.76 14.76 0 0 1 -0.48 1.94c-0.22 0.7-0.46 1.41-0.72 2.11s-0.54 1.39-0.82 2-0.54 1.19-0.78 1.66a15.83 15.83 0 0 1 0.41 -1.89zm-12.54 6c0.23-0.84 0.53-1.74 0.89-2.71s0.77-2 1.22-3 0.93-2 1.42-2.83a25.3 25.3 0 0 1 1.44 -2.33 6.34 6.34 0 0 1 1.32 -1.44 7.41 7.41 0 0 1 0.07 1 16.89 16.89 0 0 1 -0.14 2c-0.1 0.73-0.22 1.46-0.37 2.18s-0.31 1.39-0.5 2a12.9 12.9 0 0 1 -0.51 1.48 6 6 0 0 1 -0.88 1.35c-0.39 0.48-0.82 1-1.3 1.46s-0.95 1-1.43 1.42-0.89 0.86-1.22 1.21a1.56 1.56 0 0 0 -0.22 0.1l-0.2 0.11a10.11 10.11 0 0 1 0.44 -1.97zm1.22 3.29a1.34 1.34 0 0 1 -0.55 0.08 2.93 2.93 0 0 1 -0.53 0 0.81 0.81 0 0 1 -0.41 -0.17l0.43-0.25 0.44-0.25c0.14 0.11 0.27 0.21 0.39 0.32a0.64 0.64 0 0 1 0.23 0.27zm0 4.87a16.61 16.61 0 0 1 -0.71 2.28 15.62 15.62 0 0 1 -1 2.18 9.34 9.34 0 0 1 -1.29 1.78 6.06 6.06 0 0 1 -0.08 -1 15 15 0 0 1 0.08 -1.84c0.06-0.67 0.16-1.37 0.27-2.09s0.24-1.47 0.37-2.22 0.26-1.49 0.38-2.21a4 4 0 0 0 1.08 0.41 4.57 4.57 0 0 0 1.12 0.14 2.34 2.34 0 0 1 0 0.45 9.83 9.83 0 0 1 -0.22 2.12zm36.57-6.45a4.7 4.7 0 0 1 -0.21 0.95 3.46 3.46 0 0 1 -0.36 0.8 1.21 1.21 0 0 1 -0.52 0.49h-0.26a2.61 2.61 0 0 1 -0.6 0.08h-0.21a2.14 2.14 0 0 1 -0.95 -0.45 7.88 7.88 0 0 1 -0.8 -0.74c-0.25-0.27-0.5-0.54-0.75-0.79a2.73 2.73 0 0 0 -0.78 -0.57l3.91-5.59a6.61 6.61 0 0 0 0.15 0.89 3.6 3.6 0 0 0 0.35 0.87c0.12 0.23 0.25 0.45 0.38 0.67s0.25 0.45 0.37 0.68a3.78 3.78 0 0 1 0.26 0.76 4.32 4.32 0 0 1 0.09 0.91 6.22 6.22 0 0 1 -0.04 1.04zm12 0a5.5 5.5 0 0 1 -0.2 0.95 3.47 3.47 0 0 1 -0.37 0.8 1.21 1.21 0 0 1 -0.52 0.49h-0.26a2.61 2.61 0 0 1 -0.6 0.08h-0.21a2.14 2.14 0 0 1 -0.95 -0.45 7.88 7.88 0 0 1 -0.8 -0.74c-0.25-0.27-0.5-0.54-0.75-0.79a2.6 2.6 0 0 0 -0.78 -0.57l3.87-5.49a6.63 6.63 0 0 0 0.16 0.89 3.21 3.21 0 0 0 0.34 0.87c0.12 0.23 0.25 0.45 0.38 0.67s0.25 0.45 0.36 0.68a3.27 3.27 0 0 1 0.27 0.76 4.32 4.32 0 0 1 0.09 0.91 6.22 6.22 0 0 1 -0.05 0.94z"/>
        <path d="m136.48 82.77h0.45a3.71 3.71 0 0 1 0.47 0l0.42-1.26a1.3 1.3 0 0 0 -0.55 -0.23 8.22 8.22 0 0 0 -0.91 -0.15c-0.34 0-0.71-0.08-1.12-0.11s-0.81 0-1.2 0-0.88 0-1.27 0a7.22 7.22 0 0 0 -1 0.14 8.14 8.14 0 0 1 -1 0.19c-0.42 0.06-0.86 0.12-1.33 0.17s-0.94 0.09-1.41 0.12-0.87 0-1.24 0h-0.53a1.18 1.18 0 0 1 -0.37 0l-0.13 1.44a8.38 8.38 0 0 0 1.53 0.24c0.73 0.07 1.51 0.1 2.33 0.1 0.58 0 1.14 0 1.67-0.06a7.92 7.92 0 0 0 1.38 -0.23l1-0.18c0.33 0 0.72-0.1 1.18-0.14a14.6 14.6 0 0 1 1.63 -0.04z"/>
        <path d="m122.43 86.54a12.33 12.33 0 0 1 -1.11 0.83c-0.42 0.28-0.87 0.56-1.34 0.85s-0.94 0.55-1.39 0.8-0.89 0.46-1.3 0.66-0.76 0.34-1 0.44a7.24 7.24 0 0 1 -0.23 -2v-0.91s0-0.61 0.08-0.93a12.09 12.09 0 0 0 1.23 -1.87q0.69-1.23 1.41-2.7c0.48-1 0.95-2 1.4-3s0.86-2 1.22-2.93 0.66-1.67 0.88-2.32a7.36 7.36 0 0 0 0.37 -1.26v-0.08a1.16 1.16 0 0 0 -0.2 -0.6 2 2 0 0 0 -0.52 -0.57 3 3 0 0 0 -0.75 -0.42 2.36 2.36 0 0 0 -0.87 -0.17 2.46 2.46 0 0 0 -0.81 0.14 2.11 2.11 0 0 0 -0.76 0.52 4.08 4.08 0 0 0 -0.64 0.98c-0.22 0.5-0.44 1.09-0.68 1.79s-0.48 1.45-0.74 2.28-0.49 1.67-0.72 2.53a2.84 2.84 0 0 0 -0.75 -0.57 2.19 2.19 0 0 0 -1.14 -0.27h-0.44a2.39 2.39 0 0 0 -1.09 0.55 10.08 10.08 0 0 0 -1.22 1.17 14.86 14.86 0 0 0 -1.25 1.57c-0.41 0.59-0.8 1.17-1.16 1.74s-0.68 1.11-1 1.64a11.52 11.52 0 0 0 -0.63 1.34 5 5 0 0 0 -0.28 1.83c0 0.19 0 0.37 0.06 0.55a5.18 5.18 0 0 1 -0.94 0.88 9.21 9.21 0 0 1 -1.62 0.93 7.67 7.67 0 0 1 -1.86 0.56 0.54 0.54 0 0 1 -0.42 -0.35 1.69 1.69 0 0 1 -0.14 -0.73 7 7 0 0 1 0.21 -1.56c0.14-0.61 0.31-1.25 0.52-1.92s0.42-1.35 0.65-2l0.66-1.85c0.2-0.56 0.37-1 0.5-1.43a3.31 3.31 0 0 0 0.19 -0.78 0.85 0.85 0 0 0 -0.35 -0.61 5 5 0 0 0 -0.83 -0.62 5.41 5.41 0 0 0 -1 -0.47 2.26 2.26 0 0 0 -0.79 -0.19h-0.13a8.43 8.43 0 0 0 -3.38 1.92v-0.26s0-0.18 0-0.27 0-0.1 0-0.15a1.25 1.25 0 0 1 0 -0.21 2.57 2.57 0 0 0 -0.46 0.21l-0.88 0.44c-0.36 0.2-0.78 0.41-1.26 0.66l0.06 0.08a11.31 11.31 0 0 1 -0.2 1.44c-0.12 0.58-0.27 1.2-0.46 1.87s-0.41 1.35-0.66 2.07c0 0.1-0.06 0.18-0.1 0.28-0.26 0.27-0.57 0.56-1 0.89s-1 0.81-1.51 1.19a17.25 17.25 0 0 1 -1.63 1 9.68 9.68 0 0 1 -1.48 0.71v-0.42s0-0.3 0-0.5a10.55 10.55 0 0 1 0.1 -1.31c0.06-0.47 0.14-1 0.25-1.5v-0.13a30.53 30.53 0 0 1 1 -3.48c0.4-1.21 0.84-2.42 1.31-3.61l-1.71-0.26a1.9 1.9 0 0 0 -0.18 0.5 3.24 3.24 0 0 0 -0.32 -0.53 2.66 2.66 0 0 0 -0.53 -0.53 3 3 0 0 0 -0.77 -0.41 2.69 2.69 0 0 0 -1 -0.16h-0.45a2.42 2.42 0 0 0 -1.07 0.51 7.12 7.12 0 0 0 -1.17 1.12 17.62 17.62 0 0 0 -1.18 1.51c-0.4 0.55-0.76 1.1-1.11 1.66s-0.64 1.1-0.9 1.6a11.51 11.51 0 0 0 -0.6 1.32 4.89 4.89 0 0 0 -0.29 1.54l-0.72 0.78c-0.42 0.47-0.84 0.89-1.27 1.29a11.13 11.13 0 0 1 -1.35 1 5.69 5.69 0 0 1 -1.55 0.69 1.48 1.48 0 0 1 -0.71 -1 5.88 5.88 0 0 1 -0.18 -1.48 7.3 7.3 0 0 1 0 -0.94c0-0.3 0.07-0.59 0.1-0.85s0.08-0.49 0.12-0.68 0.07-0.34 0.09-0.42a25.17 25.17 0 0 0 1.5 -2.19q0.69-1.31 1.32-2.67c0.42-0.91 0.82-1.82 1.18-2.71s0.69-1.71 1-2.45 0.47-1.39 0.62-1.92a4.87 4.87 0 0 0 0.22 -1.09v-0.16a1.79 1.79 0 0 0 -0.7 -0.8 2.14 2.14 0 0 0 -1.3 -0.41 2.77 2.77 0 0 0 -0.61 0.08 1.85 1.85 0 0 0 -0.62 0.29 5 5 0 0 0 -1.6 1.84 18.93 18.93 0 0 0 -1.28 3 33.46 33.46 0 0 0 -1 3.57q-0.44 1.9-0.72 3.69c-0.19 1.19-0.33 2.29-0.43 3.29s-0.15 1.77-0.15 2.33v0.36a1.24 1.24 0 0 0 0 0.27 1.68 1.68 0 0 0 0.5 1 3.71 3.71 0 0 0 1 0.7 5.65 5.65 0 0 0 1.3 0.4 7.29 7.29 0 0 0 1.37 0.13 4.27 4.27 0 0 0 1.78 -0.31 7.76 7.76 0 0 0 1 -0.59 6.31 6.31 0 0 0 0.79 -0.68 11.14 11.14 0 0 0 0.73 -0.87 4 4 0 0 0 0.18 0.52 3.23 3.23 0 0 0 0.67 0.95 1.61 1.61 0 0 0 0.87 0.46 1 1 0 0 0 0.29 0 3.67 3.67 0 0 0 2 -0.73 15.05 15.05 0 0 0 2.25 -1.84c0 0.27 0 0.51-0.06 0.75s0 0.44 0 0.62a0.89 0.89 0 0 0 0.33 0.67 3.07 3.07 0 0 0 0.81 0.53 5.49 5.49 0 0 0 1.06 0.35 4.8 4.8 0 0 0 1.08 0.13h-0.04a2.28 2.28 0 0 0 1.22 -0.51 11.92 11.92 0 0 0 1.46 -1.19l0.35-0.37a0.14 0.14 0 0 1 0 0.06 11.23 11.23 0 0 1 -0.76 1.31l2.37 0.6c0.45-1.25 0.88-2.52 1.27-3.79a24.28 24.28 0 0 1 1.46 -3.66 8.5 8.5 0 0 1 2 -2.65 8 8 0 0 1 3 -1.71 6.69 6.69 0 0 1 -0.26 1.38c-0.16 0.57-0.35 1.2-0.56 1.89s-0.45 1.41-0.67 2.16a17.64 17.64 0 0 0 -0.53 2.21 7.62 7.62 0 0 0 -0.14 1v1a8.53 8.53 0 0 0 0.17 1.82 1.65 1.65 0 0 0 0.54 1.07 1.51 1.51 0 0 0 1 0.27 5.91 5.91 0 0 0 1.53 -0.25 10.41 10.41 0 0 0 1.78 -0.7 14.27 14.27 0 0 0 1.74 -1c0.26-0.18 0.5-0.37 0.73-0.56a3.08 3.08 0 0 0 0.63 0.82 1.76 1.76 0 0 0 0.87 0.46 0.89 0.89 0 0 0 0.29 0 2.46 2.46 0 0 0 1 -0.24 7.17 7.17 0 0 0 1.13 -0.62 14.91 14.91 0 0 0 1.22 -0.94q0.63-0.54 1.23-1.14v0.92s0 0.58 0 0.79a0.91 0.91 0 0 0 0.36 0.68 3.28 3.28 0 0 0 0.88 0.54 5.73 5.73 0 0 0 1.13 0.35 5.16 5.16 0 0 0 1.13 0.13 3 3 0 0 0 1.4 -0.51 15.16 15.16 0 0 0 1.78 -1.21c0.59-0.46 1.14-0.93 1.65-1.4a8.63 8.63 0 0 0 1 -1.1l-0.29-1.89a5.28 5.28 0 0 1 -0.68 0.82zm-4.72-7.62c0.3-1 0.62-1.93 0.94-2.79a21.67 21.67 0 0 1 1 -2.26 7.23 7.23 0 0 1 0.94 -1.47 7.61 7.61 0 0 1 -0.38 2c-0.23 0.79-0.53 1.62-0.88 2.49s-0.74 1.76-1.18 2.66-0.86 1.71-1.26 2.46c0.24-1.01 0.51-2.08 0.82-3.09zm-42 0.52c0.18-0.69 0.38-1.37 0.62-2.06a20 20 0 0 1 0.8 -2 10.93 10.93 0 0 1 1 -1.76 16.72 16.72 0 0 1 -0.49 1.94c-0.22 0.7-0.46 1.41-0.72 2.11s-0.53 1.39-0.81 2-0.54 1.19-0.79 1.66c0.1-0.57 0.23-1.21 0.4-1.89zm11.51 6.32q-0.56 0.63-1.14 1.26c-0.4 0.42-0.78 0.8-1.15 1.13a6.54 6.54 0 0 1 -1 0.8 1.49 1.49 0 0 1 -0.76 0.31 0.79 0.79 0 0 1 -0.73 -0.53 3.25 3.25 0 0 1 -0.19 -1.18 6.3 6.3 0 0 1 0 -0.75c0-0.25 0.07-0.5 0.11-0.75a3 3 0 0 1 0.39 -1c0.23-0.41 0.49-0.85 0.8-1.33s0.64-0.95 1-1.44 0.7-0.94 1-1.34l0.84-1c0.24-0.27 0.39-0.43 0.46-0.49a0.31 0.31 0 0 1 0.19 0 0.82 0.82 0 0 1 0.43 0.16 2.1 2.1 0 0 1 0.53 0.39 3.38 3.38 0 0 1 0.42 0.62 2.67 2.67 0 0 1 0.27 0.73l0.36-0.71c-0.38 1-0.73 2-1 2.88s-0.63 1.63-0.82 2.24zm27.45-2c-0.2 0.85-0.36 1.57-0.5 2.17-0.37 0.43-0.76 0.87-1.16 1.29s-0.79 0.82-1.17 1.16a9.14 9.14 0 0 1 -1 0.83 1.54 1.54 0 0 1 -0.79 0.31 0.83 0.83 0 0 1 -0.73 -0.55 3.25 3.25 0 0 1 -0.19 -1.18 4.73 4.73 0 0 1 0 -0.75c0-0.25 0.07-0.5 0.1-0.75a3.28 3.28 0 0 1 0.4 -1c0.23-0.41 0.49-0.85 0.8-1.33s0.64-1 1-1.44 0.69-0.94 1-1.34 0.59-0.74 0.84-1a6.18 6.18 0 0 1 0.47 -0.49 0.3 0.3 0 0 1 0.18 0 1.19 1.19 0 0 1 0.74 0.39 3 3 0 0 1 0.68 1c-0.25 0.92-0.47 1.8-0.66 2.65z"/>
      </g>
    </g>
  </g>
</svg>
