<svg xmlns="http://www.w3.org/2000/svg" height="62.111" width="65.488" version="1.1" y="0px" x="0px" viewBox="0 0 65.487862 62.110898">
  <path fill="#9ac22c" d="m22.611 61.8c10.5-1.8 17.5-11.8 15.6-22.3-1.8-10.5-11.8-17.5-22.3-15.6-10.5 1.8-17.5 11.8-15.6 22.3 1.8 10.5 11.8 17.5 22.3 15.6"/>
  <path fill="#0086a8" d="m49.911 53.6c10.4-2 17.3-12.1 15.2-22.6-2-10.4-12.1-17.3-22.6-15.2-10.4 2-17.3 12.1-15.2 22.6 2 10.4 12.1 17.2 22.6 15.2"/>
  <path fill="#a48958" d="m21.111 37.7c10.1 3.2 21-2.4 24.2-12.6 3.2-10.1-2.4-21-12.6-24.2-10.1-3.2-21 2.4-24.2 12.6s2.4 21 12.6 24.2"/>
  <path fill="#69792f" d="m9.0344 26.508c0.23125 0.57304 0.40859 1.1692 0.69336 1.7168 0.56875 1.0938 1.2438 2.1332 2.0137 3.1016 0.76992 0.96836 1.6352 1.8668 2.5898 2.6777 0.95469 0.81094 1.998 1.5348 3.1211 2.1562 1.123 0.62148 2.3266 1.1391 3.6016 1.5391 1.2625 0.4 2.5377 0.66367 3.8086 0.79688 1.2709 0.1332 2.5371 0.13672 3.7832 0.01953s2.4721-0.35586 3.6602-0.70703 2.3387-0.81406 3.4356-1.3828c0.45568-0.23628 0.85708-0.56411 1.293-0.83594-3.312-8.257-12.052-13.342-21.182-11.69-2.5027 0.42903-4.7865 1.351-6.8184 2.6074z"/>
  <path fill="#288345" d="m28.924 26.241c-0.14928 0.30506-0.35319 0.57946-0.48633 0.89258-0.48457 1.1396-0.86211 2.3312-1.1191 3.5586-0.25703 1.2273-0.39434 2.4904-0.40235 3.7754-0.008 1.285 0.11446 2.5918 0.37696 3.9043 0.25 1.3 0.62715 2.5434 1.1152 3.7207 0.48809 1.1773 1.0871 2.2879 1.7832 3.3223 0.69609 1.0344 1.4892 1.9922 2.3633 2.8633 0.87402 0.87109 1.8277 1.6562 2.8496 2.3438 0.35633 0.23974 0.76096 0.39949 1.1328 0.61523 1.7149-3.5301 2.4109-7.5954 1.6562-11.766-0.99661-5.8135-4.5524-10.479-9.2695-13.23z"/>
  <path fill="#29594c" d="m27.358 38.558c0.45232-0.01046 0.91163 0.04992 1.3594 0.0078 1.2461-0.11719 2.4721-0.35586 3.6602-0.70704 1.1881-0.35117 2.3387-0.81406 3.4356-1.3828 1.0969-0.56875 2.1389-1.2418 3.1113-2.0117 0.97246-0.76992 1.8746-1.6371 2.6894-2.5918 0.81484-0.95469 1.5439-1.998 2.168-3.1211 0.62402-1.123 1.143-2.3266 1.543-3.6016 0.4-1.2625 0.66367-2.5357 0.79687-3.8066s0.13672-2.5391 0.01953-3.7852c-0.06469-0.68793-0.25349-1.347-0.39062-2.0195-1.0676 0.03093-2.14 0.09558-3.2246 0.3125-10.4 2-17.301 12.1-15.201 22.6 0.0072 0.03763 0.02575 0.06989 0.0332 0.10742z"/>
  <path fill="#225936" d="m28.886 26.271c-0.14927 0.30508-0.35321 0.57943-0.48633 0.89257-0.48453 1.1397-0.86019 2.3312-1.1172 3.5586-0.25699 1.2274-0.39631 2.4904-0.4043 3.7754-0.008 1.285 0.13399 2.5605 0.39649 3.873 0.0072 0.03762 0.03747 0.17926 0.04492 0.21679 0.45209-0.01047 1.0447 0.01083 1.4922-0.03126 1.2461-0.11719 2.3412-0.33242 3.5293-0.68359s2.3426-0.79649 3.4395-1.3652c0.45561-0.23624 0.97414-0.59548 1.4102-0.86718-1.6118-4.0175-4.6528-7.3407-8.2578-9.4434z"/>
</svg>
