<?xml version="1.0" encoding="UTF-8"?>
<svg width="250" height="400" version="1.1" viewBox="0 0 250 400" xmlns="http://www.w3.org/2000/svg" xmlns:cc="http://creativecommons.org/ns#" xmlns:dc="http://purl.org/dc/elements/1.1/" xmlns:rdf="http://www.w3.org/1999/02/22-rdf-syntax-ns#">
 <metadata>
  <rdf:RDF>
   <cc:Work rdf:about="">
    <dc:format>image/svg+xml</dc:format>
    <dc:type rdf:resource="http://purl.org/dc/dcmitype/StillImage"/>
    <dc:title/>
   </cc:Work>
  </rdf:RDF>
 </metadata>
 <path class="walking-svg-path-forward" d="m4.1685 5.3634c-0.75897 85.725 212 9.6442 210.67 75.785-1.3504 67.006-163.43 21.253-163.69 70.505-0.33216 62.803 127.76 11.737 127.21 51.155-0.55649 39.418-79.476 17.912-79.077 60.256s123.95-16.838 122.69 83.296" fill="none" stroke="#000" stroke-dasharray="15.29701548, 15.29701548" stroke-width="2.5495"/>
 <style type="text/css">.st0{fill:#FFFFFF;}</style>
 <g transform="matrix(-1,0,0,1,235.89,353.51)">
  <path class="bg-color" d="m19.6 14c0 3.1-2.5 5.6-5.6 5.6s-5.6-2.6-5.6-5.6c0-3.1 2.5-5.6 5.6-5.6s5.6 2.5 5.6 5.6m7.4 0.1c0-7.2-5.8-13.1-13-13.1s-13 5.9-13 13.1c0 8.1 13 21.8 13 21.8s13-13.4 13-21.8"/>
  <path d="m14 37.4-0.7-0.8c-0.6-0.5-13.3-14.1-13.3-22.5 0-7.8 6.3-14.1 14-14.1s14 6.3 14 14.1c0 8.7-12.7 22-13.3 22.5zm0-35.4c-6.6 0-12 5.4-12 12.1 0 6.6 9.3 17.4 12 20.4 2.7-2.9 12-13.6 12-20.4 0-6.7-5.4-12.1-12-12.1zm0 18.5c-3.6 0-6.6-2.9-6.6-6.6 0-3.6 2.9-6.6 6.6-6.6s6.6 2.9 6.6 6.6-3 6.6-6.6 6.6zm0-11.1c-2.5 0-4.6 2-4.6 4.6 0 2.5 2 4.6 4.6 4.6 2.5 0 4.6-2 4.6-4.6 0-2.5-2.1-4.6-4.6-4.6z"/>
 </g>
</svg>
