<svg xmlns="http://www.w3.org/2000/svg" height="500" width="250" version="1.1" y="0px" x="0px" viewBox="0 0 250.00001 500">
  <path style="stroke:#000;stroke-width:2.8091;stroke-dasharray:16.85437173, 16.85437173;fill:none" d="m211.18 7.6375s1.2151 21.175-19.912 24.127c-56.1 7.84-158.8 29.79-160.2 85.526-1.9116 76.73 92.401-23.012 100.15 5.4522-10.732 144.66 85.472-47.304 87.578 10.236 2.8864 115.04-168.02 118.5-152.46 146.12 14.862 26.379 10.64 8.1654 63.107 39.091 38.111-18.822 92.302 49.055 72.083 41.208-27.479-10.666-19.614-12.896-48.282 6.7991s106.52 74.296 76.867 83.227c-29.655 8.93-215.35-166.88-199.91-65.007 15.445 101.87 98.089-46.367 92.969 49.474-5.1158 95.84-86.94 48.578-86.94 48.578" class="walking-svg-path-forward"/>
  <style type="text/css">.st0{fill:#FFFFFF;}</style>
  <g transform="translate(10.023,453.51)">
    <path class="bg-color" d="m19.6 14c0 3.1-2.5 5.6-5.6 5.6s-5.6-2.6-5.6-5.6c0-3.1 2.5-5.6 5.6-5.6s5.6 2.5 5.6 5.6m7.4 0.1c0-7.2-5.8-13.1-13-13.1s-13 5.9-13 13.1c0 8.1 13 21.8 13 21.8s13-13.4 13-21.8"/>
    <path d="m14 37.4-0.7-0.8c-0.6-0.5-13.3-14.1-13.3-22.5 0-7.8 6.3-14.1 14-14.1s14 6.3 14 14.1c0 8.7-12.7 22-13.3 22.5zm0-35.4c-6.6 0-12 5.4-12 12.1 0 6.6 9.3 17.4 12 20.4 2.7-2.9 12-13.6 12-20.4 0-6.7-5.4-12.1-12-12.1zm0 18.5c-3.6 0-6.6-2.9-6.6-6.6 0-3.6 2.9-6.6 6.6-6.6s6.6 2.9 6.6 6.6-3 6.6-6.6 6.6zm0-11.1c-2.5 0-4.6 2-4.6 4.6 0 2.5 2 4.6 4.6 4.6 2.5 0 4.6-2 4.6-4.6 0-2.5-2.1-4.6-4.6-4.6z"/>
  </g>
</svg>
