<?xml version="1.0" encoding="UTF-8"?>
<svg width="400" height="400" version="1.1" viewBox="0 0 400 400" xmlns="http://www.w3.org/2000/svg" xmlns:cc="http://creativecommons.org/ns#" xmlns:dc="http://purl.org/dc/elements/1.1/" xmlns:rdf="http://www.w3.org/1999/02/22-rdf-syntax-ns#">
 <metadata>
  <rdf:RDF>
   <cc:Work rdf:about="">
    <dc:format>image/svg+xml</dc:format>
    <dc:type rdf:resource="http://purl.org/dc/dcmitype/StillImage"/>
    <dc:title/>
   </cc:Work>
  </rdf:RDF>
 </metadata>
 <path class="walking-svg-path-forward" d="m381.18 14.77s-3.9825 129.14-103.97 124.85-242.42-90.082-242.18-1.6065c0.23982 88.476 114.43 152.61 218.05 175.31s170.71-105.23 44.982-116.88c-125.73-11.646-98.505 102.16-88.786 146.75" fill="none" stroke="#000" stroke-dasharray="13.03044693, 13.03044693" stroke-width="2.1717"/>
 <style type="text/css">.st0{fill:#FFFFFF;}</style>
 <g transform="translate(194.16 351.74)">
  <path class="bg-color" d="m19.6 14c0 3.1-2.5 5.6-5.6 5.6s-5.6-2.6-5.6-5.6c0-3.1 2.5-5.6 5.6-5.6s5.6 2.5 5.6 5.6m7.4 0.1c0-7.2-5.8-13.1-13-13.1s-13 5.9-13 13.1c0 8.1 13 21.8 13 21.8s13-13.4 13-21.8"/>
  <path d="m14 37.4-0.7-0.8c-0.6-0.5-13.3-14.1-13.3-22.5 0-7.8 6.3-14.1 14-14.1s14 6.3 14 14.1c0 8.7-12.7 22-13.3 22.5zm0-35.4c-6.6 0-12 5.4-12 12.1 0 6.6 9.3 17.4 12 20.4 2.7-2.9 12-13.6 12-20.4 0-6.7-5.4-12.1-12-12.1zm0 18.5c-3.6 0-6.6-2.9-6.6-6.6 0-3.6 2.9-6.6 6.6-6.6s6.6 2.9 6.6 6.6-3 6.6-6.6 6.6zm0-11.1c-2.5 0-4.6 2-4.6 4.6 0 2.5 2 4.6 4.6 4.6 2.5 0 4.6-2 4.6-4.6 0-2.5-2.1-4.6-4.6-4.6z"/>
 </g>
</svg>
