<svg xmlns="http://www.w3.org/2000/svg" height="250" width="250" version="1.1" y="0px" x="0px" viewBox="0 0 250.00001 250">
  <path class="walking-svg-path-forward" style="stroke:#000;stroke-width:2;stroke-dasharray:12, 12;fill:none" d="m25.897 7.7646s9.3344 61.8 60.496 40.262 37.078-6.594 44.824 7.8352c7.7461 14.429-0.84098 31.09 18.256 40.424 19.097 9.3337 61.609-33.71 80.847-19.56 19.239 14.15 18.446 37.971 3.912 59.983s-58.758 36.314-92.583 32.6c-33.825-3.7143-60.321-60.598-89.975-56.071-29.655 4.5268-57.699-7.0958-42.254 44.546s209.53 26.906 222.86 54.743c13.325 27.837-20.864 32.6-20.864 32.6"/>
  <style type="text/css">.st0{fill:#FFFFFF;}</style>
  <g transform="translate(184.29 211.35)">
    <path class="bg-color" d="m19.6 14c0 3.1-2.5 5.6-5.6 5.6s-5.6-2.6-5.6-5.6c0-3.1 2.5-5.6 5.6-5.6s5.6 2.5 5.6 5.6m7.4 0.1c0-7.2-5.8-13.1-13-13.1s-13 5.9-13 13.1c0 8.1 13 21.8 13 21.8s13-13.4 13-21.8"/>
    <path d="m14 37.4-0.7-0.8c-0.6-0.5-13.3-14.1-13.3-22.5 0-7.8 6.3-14.1 14-14.1s14 6.3 14 14.1c0 8.7-12.7 22-13.3 22.5zm0-35.4c-6.6 0-12 5.4-12 12.1 0 6.6 9.3 17.4 12 20.4 2.7-2.9 12-13.6 12-20.4 0-6.7-5.4-12.1-12-12.1zm0 18.5c-3.6 0-6.6-2.9-6.6-6.6 0-3.6 2.9-6.6 6.6-6.6s6.6 2.9 6.6 6.6-3 6.6-6.6 6.6zm0-11.1c-2.5 0-4.6 2-4.6 4.6 0 2.5 2 4.6 4.6 4.6 2.5 0 4.6-2 4.6-4.6 0-2.5-2.1-4.6-4.6-4.6z"/>
  </g>
</svg>
