<svg xmlns="http://www.w3.org/2000/svg" height="300" width="250" version="1.1" y="0px" x="0px" viewBox="0 0 250.00001 300">
  <path style="stroke:#000;stroke-width:2.1717;stroke-dasharray:13.03044693, 13.03044693;fill:none" d="m205.94 3.9123s8.8678 12.084-9.3243 13.511c-54.63 4.282-164.11 17.149-165.55 51.552-1.9116 45.863 92.401-13.754 100.15 3.2588 7.7461 17.013-42.334 36.659 18.256 47.665 60.589 11.006 50.083-58.231 69.322-41.546 19.239 16.684 31.816 45.316 15.438 89.209-8.0513 21.578-32.792-3.8628-75.135-20.976-18.563-7.5027-10.982 38.689-31.201 33.999-27.479-6.375-64.858-39.619-74.765-40.902-33.825-4.3796 78.449 89.998 48.795 95.336-29.655 5.3376-55.394-44.789-39.949 16.103s175.42-51.446 170.3 5.8384c-5.1158 57.285-196.05 30.284-196.05 30.284" class="walking-svg-path-forward"/>
  <style type="text/css">.st0{fill:#FFFFFF;}</style>
  <g transform="translate(10.023,253.51)">
    <path class="bg-color" d="m19.6 14c0 3.1-2.5 5.6-5.6 5.6s-5.6-2.6-5.6-5.6c0-3.1 2.5-5.6 5.6-5.6s5.6 2.5 5.6 5.6m7.4 0.1c0-7.2-5.8-13.1-13-13.1s-13 5.9-13 13.1c0 8.1 13 21.8 13 21.8s13-13.4 13-21.8"/>
    <path d="m14 37.4-0.7-0.8c-0.6-0.5-13.3-14.1-13.3-22.5 0-7.8 6.3-14.1 14-14.1s14 6.3 14 14.1c0 8.7-12.7 22-13.3 22.5zm0-35.4c-6.6 0-12 5.4-12 12.1 0 6.6 9.3 17.4 12 20.4 2.7-2.9 12-13.6 12-20.4 0-6.7-5.4-12.1-12-12.1zm0 18.5c-3.6 0-6.6-2.9-6.6-6.6 0-3.6 2.9-6.6 6.6-6.6s6.6 2.9 6.6 6.6-3 6.6-6.6 6.6zm0-11.1c-2.5 0-4.6 2-4.6 4.6 0 2.5 2 4.6 4.6 4.6 2.5 0 4.6-2 4.6-4.6 0-2.5-2.1-4.6-4.6-4.6z"/>
  </g>
</svg>
