<svg xmlns="http://www.w3.org/2000/svg" height="400" width="250" version="1.1" y="0px" x="0px" viewBox="0 0 250.00001 400">
  <path style="stroke:#000;stroke-width:2.5495;stroke-dasharray:15.29701548, 15.29701548;fill:none" class="walking-svg-path-forward" d="m18.999 7.482c-35.081 84.454 176.36 52.742 195.84 73.666 1.91 63.206-79.67 21.211-87.42 44.658 10.74 119.16-98.203-79.134-100.31-31.736-2.8864 94.76 25.703 63.531 10.144 86.281-14.862 21.729 131.68 40.808 79.214 66.282-38.111-15.504-92.302 40.409-72.083 33.944 27.479-8.7857 19.614-10.623 48.282 5.6007s-106.52 61.2-76.867 68.557c94.3 62.388 216.76-136.26 199.91-53.548-16.946 83.149-58.764-26.021-53.644 52.924 5.1158 78.947 47.615 27.843 47.615 27.843"/>
  <style type="text/css">.st0{fill:#FFFFFF;}</style>
  <g transform="matrix(-1,0,0,1,235.89,353.51)">
    <path class="bg-color" d="m19.6 14c0 3.1-2.5 5.6-5.6 5.6s-5.6-2.6-5.6-5.6c0-3.1 2.5-5.6 5.6-5.6s5.6 2.5 5.6 5.6m7.4 0.1c0-7.2-5.8-13.1-13-13.1s-13 5.9-13 13.1c0 8.1 13 21.8 13 21.8s13-13.4 13-21.8"/>
    <path d="m14 37.4-0.7-0.8c-0.6-0.5-13.3-14.1-13.3-22.5 0-7.8 6.3-14.1 14-14.1s14 6.3 14 14.1c0 8.7-12.7 22-13.3 22.5zm0-35.4c-6.6 0-12 5.4-12 12.1 0 6.6 9.3 17.4 12 20.4 2.7-2.9 12-13.6 12-20.4 0-6.7-5.4-12.1-12-12.1zm0 18.5c-3.6 0-6.6-2.9-6.6-6.6 0-3.6 2.9-6.6 6.6-6.6s6.6 2.9 6.6 6.6-3 6.6-6.6 6.6zm0-11.1c-2.5 0-4.6 2-4.6 4.6 0 2.5 2 4.6 4.6 4.6 2.5 0 4.6-2 4.6-4.6 0-2.5-2.1-4.6-4.6-4.6z"/>
  </g>
</svg>
