<?xml version="1.0" encoding="utf-8"?>
<!-- Generator: Adobe Illustrator 21.1.0, SVG Export Plug-In . SVG Version: 6.00 Build 0)  -->
<svg version="1.1" id="Ebene_1" xmlns="http://www.w3.org/2000/svg" xmlns:xlink="http://www.w3.org/1999/xlink" x="0px" y="0px"
	 viewBox="0 0 70 70" style="enable-background:new 0 0 70 70;" xml:space="preserve">
<style type="text/css">
	.st0{fill:#836FA5;}
	.st1{fill:#1D1D1B;}
	.st2{fill:#DAE7B4;}
</style>
<g>
	<g>
		<path class="st0" d="M35,2.4C17,2.4,2.4,17,2.4,35C2.4,53,17,67.6,35,67.6S67.6,53,67.6,35C67.6,17,53,2.4,35,2.4"/>
		<path class="st1" d="M35,4.8C18.3,4.8,4.8,18.3,4.8,35c0,16.7,13.6,30.2,30.2,30.2c16.7,0,30.2-13.6,30.2-30.2
			C65.2,18.3,51.7,4.8,35,4.8 M35,70C15.7,70,0,54.3,0,35S15.7,0,35,0s35,15.7,35,35S54.3,70,35,70"/>
		<path class="st2" d="M35.1,2.4C17,2.4,2.4,17,2.4,35c0,18,14.6,32.6,32.7,32.6V2.4z"/>
		<path class="st1" d="M32.7,4.9C17.1,6.1,4.8,19.1,4.8,35s12.3,28.9,27.9,30.1V4.9z M35.1,70C15.7,70,0,54.3,0,35S15.7,0,35.1,0
			c1.3,0,2.4,1.1,2.4,2.4v65.2C37.5,68.9,36.4,70,35.1,70"/>
	</g>
</g>
</svg>
