<svg style="enable-background:new 0 0 197 135.7" xmlns="http://www.w3.org/2000/svg" version="1.1" y="0px" x="0px" viewBox="0 0 197 135.7">
  <path fill="#9AC22C" d="m22.6 61.7c10.5-1.8 17.5-11.8 15.6-22.3-1.8-10.5-11.8-17.5-22.3-15.6-10.5 1.8-17.5 11.8-15.6 22.3 1.8 10.5 11.8 17.5 22.3 15.6" class="st0"/>
  <path fill="#0086A8" d="m49.9 53.5c10.4-2 17.3-12.1 15.2-22.6-2-10.4-12.1-17.3-22.6-15.2-10.4 2-17.3 12.1-15.2 22.6 2 10.4 12.1 17.2 22.6 15.2" class="st1"/>
  <path class="st2" d="m21.1 37.6c10.1 3.2 21-2.4 24.2-12.6 3.2-10.1-2.4-21-12.6-24.2-10.1-3.2-21 2.4-24.2 12.6s2.4 21 12.6 24.2" fill="#a48958"/>
  <g id="text" fill="#010202">
    <path class="st3" d="m119.8 126.8h-0.8c-0.1 0-0.2 0-0.3 0.1s-0.1 0.2-0.1 0.3v8c0 0.1 0 0.2 0.1 0.3s0.2 0.1 0.3 0.1h0.7c0.1 0 0.2 0 0.3-0.1s0.1-0.2 0.1-0.3v-8c0-0.1 0-0.2-0.1-0.3 0-0.1-0.1-0.1-0.2-0.1z"/>
    <path class="st3" d="m14.8 123.7h-0.8c-0.1 0-0.2 0-0.3 0.1s-0.1 0.2-0.1 0.3v8.6l-5.7-8.8-0.2-0.2c-0.1 0-0.1-0.1-0.3-0.1h-0.6c-0.1 0-0.2 0-0.3 0.1s-0.1 0.2-0.1 0.3v11.1c0 0.1 0 0.2 0.1 0.3s0.2 0.1 0.3 0.1h0.8c0.1 0 0.2 0 0.3-0.1s0.1-0.2 0.1-0.3v-8.5l5.7 8.7c0.1 0.2 0.2 0.2 0.4 0.2h0.8c0.1 0 0.2 0 0.3-0.1s0.1-0.2 0.1-0.3v-11.1c0-0.1 0-0.2-0.1-0.3h-0.4z"/>
    <path class="st3" d="m119.9 123.4h-1c-0.1 0-0.2 0-0.3 0.1s-0.1 0.2-0.1 0.3v0.9c0 0.1 0 0.2 0.1 0.3s0.2 0.1 0.3 0.1h1c0.1 0 0.2 0 0.3-0.1s0.1-0.2 0.1-0.3v-0.9c0-0.1 0-0.2-0.1-0.3s-0.2-0.1-0.3-0.1z"/>
    <path class="st3" d="m111 126.6c-0.7 0-1.2 0.1-1.7 0.3-0.4 0.2-0.8 0.5-1.2 1v-0.7c0-0.1 0-0.2-0.1-0.3s-0.2-0.1-0.3-0.1h-0.7c-0.1 0-0.2 0-0.3 0.1s-0.1 0.2-0.1 0.3v8c0 0.1 0 0.2 0.1 0.3s0.2 0.1 0.3 0.1h0.8c0.1 0 0.2 0 0.3-0.1s0.1-0.2 0.1-0.3v-4.7c0-0.8 0.2-1.4 0.6-1.9s1-0.7 1.7-0.7 1.3 0.2 1.7 0.7 0.6 1.1 0.6 1.9v4.7c0 0.1 0 0.2 0.1 0.3s0.2 0.1 0.3 0.1h0.8c0.1 0 0.2 0 0.3-0.1s0.1-0.2 0.1-0.3v-4.8c0-1.1-0.3-2.1-0.9-2.8-0.5-0.7-1.4-1-2.5-1z"/>
    <path class="st3" d="m46.1 126.8h-0.8c-0.1 0-0.2 0-0.3 0.1s-0.1 0.2-0.1 0.3v4.7c0 0.8-0.2 1.4-0.6 1.9s-1 0.7-1.7 0.7c-1.5 0-2.2-0.9-2.2-2.6v-4.7c0-0.1 0-0.2-0.1-0.3s-0.2-0.1-0.3-0.1h-0.8c-0.1 0-0.2 0-0.3 0.1s-0.1 0.2-0.1 0.3v4.8c0 1.2 0.3 2.1 0.9 2.8s1.4 1 2.5 1c0.7 0 1.2-0.1 1.7-0.3 0.4-0.2 0.8-0.6 1.2-1v0.8c0 0.1 0 0.2 0.1 0.3s0.2 0.1 0.3 0.1h0.7c0.1 0 0.2 0 0.3-0.1s0.1-0.2 0.1-0.3v-8c0-0.1 0-0.2-0.1-0.3-0.2-0.2-0.3-0.2-0.4-0.2z"/>
    <path class="st3" d="m55.3 126.8h-0.7c-1.1 0-1.9 0.4-2.4 1.2v-0.7c0-0.1 0-0.2-0.1-0.3s-0.2-0.1-0.3-0.1h-0.7c-0.1 0-0.2 0-0.3 0.1s-0.1 0.2-0.1 0.3v8c0 0.1 0 0.2 0.1 0.3s0.2 0.1 0.3 0.1h0.8c0.1 0 0.2 0 0.3-0.1s0.1-0.2 0.1-0.3v-5c0-0.6 0.2-1.1 0.5-1.5 0.4-0.4 0.8-0.5 1.5-0.5h1c0.1 0 0.2 0 0.3-0.1s0.1-0.2 0.1-0.3v-0.6c0-0.1 0-0.2-0.1-0.3-0.1-0.2-0.2-0.2-0.3-0.2z"/>
    <path class="st3" d="m35.1 134.2h-1c-0.5 0-0.8-0.1-1-0.4s-0.3-0.7-0.3-1.3v-4.4h2.2c0.1 0 0.2 0 0.3-0.1s0.1-0.2 0.1-0.3v-0.5c0-0.1 0-0.2-0.1-0.3s-0.2-0.1-0.3-0.1h-2.1v-2.8c0-0.1 0-0.2-0.1-0.3s-0.2-0.1-0.3-0.1h-0.7c-0.1 0-0.2 0-0.3 0.1s-0.1 0.2-0.1 0.3v2.8h-1.4c-0.1 0-0.2 0-0.3 0.1s-0.1 0.2-0.1 0.3v0.5c0 0.1 0 0.2 0.1 0.3s0.2 0.1 0.3 0.1h1.3v4.5c0 2 0.9 3 2.6 3h1.2c0.1 0 0.2 0 0.3-0.1s0.1-0.2 0.1-0.3v-0.6c0-0.1 0-0.2-0.1-0.3-0.1 0-0.2-0.1-0.3-0.1z"/>
    <path class="st3" d="m23 126.6c-0.7 0-1.4 0.1-1.9 0.4s-0.9 0.6-1.1 0.9-0.4 0.6-0.4 0.9c0 0.1 0 0.2 0.1 0.3s0.2 0.1 0.3 0.1h0.7c0.1 0 0.2 0 0.2-0.1 0.1 0 0.1-0.1 0.1-0.2 0.1-0.3 0.4-0.5 0.7-0.7s0.7-0.3 1.3-0.3c1.3 0 2 0.6 2 1.7v0.5l-2.5 0.4c-1.1 0.2-1.9 0.5-2.5 1s-0.9 1.1-0.9 1.8c0 0.5 0.1 0.9 0.4 1.3s0.7 0.7 1.1 0.9c0.5 0.2 1 0.3 1.5 0.3 0.7 0 1.4-0.1 1.8-0.4 0.5-0.2 0.8-0.6 1.1-0.9v0.7c0 0.1 0 0.2 0.1 0.3s0.2 0.1 0.3 0.1h0.7c0.1 0 0.2 0 0.3-0.1s0.1-0.2 0.1-0.3v-5.5c0-0.9-0.3-1.6-0.8-2.2-0.6-0.6-1.5-0.9-2.7-0.9zm2 5.1c0 0.9-0.2 1.6-0.7 2.1s-1.1 0.7-1.8 0.7c-0.5 0-1-0.1-1.4-0.4-0.4-0.2-0.6-0.6-0.6-1.1 0-0.4 0.2-0.7 0.6-1s1-0.5 1.9-0.6l2-0.3v0.6z"/>
    <path class="st3" d="m128.1 130.6c-0.7-0.1-1.2-0.3-1.6-0.4s-0.6-0.3-0.7-0.5-0.2-0.4-0.2-0.6c0-0.4 0.1-0.7 0.4-0.9s0.7-0.3 1.3-0.3c0.4 0 0.7 0 0.9 0.1l0.6 0.3 0.5 0.5c0.1 0.1 0.2 0.2 0.3 0.2h0.6c0.1 0 0.2 0 0.3-0.1s0.1-0.2 0.1-0.3c0-0.2-0.1-0.5-0.4-0.8s-0.6-0.6-1.1-0.8-1.1-0.4-1.8-0.4-1.3 0.1-1.8 0.4c-0.5 0.2-0.9 0.6-1.1 1s-0.4 0.8-0.4 1.2c0 0.6 0.2 1.2 0.6 1.6s1.1 0.7 2.1 0.9c0.7 0.2 1.3 0.3 1.6 0.4 0.4 0.1 0.6 0.3 0.8 0.5s0.2 0.4 0.2 0.7c0 0.4-0.2 0.8-0.6 1s-0.9 0.3-1.5 0.3c-0.5 0-1-0.1-1.3-0.3s-0.6-0.4-0.9-0.7l-0.2-0.2h-0.9c-0.1 0-0.2 0-0.3 0.1s-0.1 0.1-0.1 0.3 0.1 0.5 0.4 0.8 0.7 0.6 1.2 0.9 1.2 0.4 2 0.4 1.4-0.1 2-0.3c0.5-0.2 1-0.5 1.2-0.9 0.3-0.4 0.4-0.8 0.4-1.3 0-0.7-0.2-1.2-0.7-1.6-0.1-0.7-0.9-1-1.9-1.2z"/>
    <path class="st3" d="m138.4 130.6c-0.7-0.1-1.2-0.3-1.6-0.4s-0.6-0.3-0.7-0.5-0.2-0.4-0.2-0.6c0-0.4 0.1-0.7 0.4-0.9s0.7-0.3 1.3-0.3c0.4 0 0.7 0 0.9 0.1l0.6 0.3 0.5 0.5c0.1 0.1 0.2 0.2 0.3 0.2h0.6c0.1 0 0.2 0 0.3-0.1s0.1-0.2 0.1-0.3c0-0.2-0.1-0.5-0.4-0.8s-0.6-0.6-1.1-0.8-1.1-0.4-1.8-0.4-1.3 0.1-1.8 0.4c-0.5 0.2-0.9 0.6-1.1 1s-0.4 0.8-0.4 1.2c0 0.6 0.2 1.2 0.6 1.6s1.1 0.7 2.1 0.9c0.7 0.2 1.3 0.3 1.6 0.4 0.4 0.1 0.6 0.3 0.8 0.5s0.2 0.4 0.2 0.7c0 0.4-0.2 0.8-0.6 1s-0.9 0.3-1.5 0.3c-0.5 0-1-0.1-1.3-0.3s-0.6-0.4-0.9-0.7l-0.2-0.2h-0.9c-0.1 0-0.2 0-0.3 0.1s-0.1 0.1-0.1 0.3 0.1 0.5 0.4 0.8 0.7 0.6 1.2 0.9c0.5 0.3 1.2 0.4 2 0.4s1.4-0.1 2-0.3c0.5-0.2 1-0.5 1.2-0.9 0.3-0.4 0.4-0.8 0.4-1.3 0-0.7-0.2-1.2-0.7-1.6-0.1-0.7-0.8-1-1.9-1.2z"/>
    <path class="st3" d="m87.2 126.6c-1.2 0-2.1 0.4-2.8 1.1s-1.1 1.7-1.1 2.9v1.2c0.1 1.2 0.4 2.2 1.1 2.9s1.6 1.1 2.8 1.1c0.7 0 1.4-0.1 1.9-0.4 0.6-0.3 1-0.6 1.3-0.9 0.3-0.4 0.5-0.7 0.5-0.9 0-0.1 0-0.2-0.1-0.2-0.1-0.1-0.2-0.1-0.3-0.1h-1c-0.1 0-0.1 0.1-0.2 0.2-0.2 0.2-0.4 0.4-0.8 0.7-0.3 0.2-0.8 0.3-1.3 0.3-0.7 0-1.2-0.3-1.7-0.8-0.4-0.5-0.6-1.1-0.7-1.9v-0.2h5.9c0.1 0 0.2 0 0.3-0.1s0.1-0.2 0.1-0.3v-0.2c0-1.4-0.3-2.4-1-3.2s-1.7-1.2-2.9-1.2zm2.4 3.9h-4.7v-0.1c0-0.8 0.2-1.4 0.6-1.9s1-0.7 1.7-0.7 1.3 0.2 1.7 0.7c0.5 0.5 0.7 1.2 0.7 2z"/>
    <path class="st3" d="m148.5 126.6c-1.2 0-2.1 0.4-2.8 1.1s-1.1 1.7-1.1 2.9v1.2c0.1 1.2 0.4 2.2 1.1 2.9s1.6 1.1 2.8 1.1c0.7 0 1.4-0.1 1.9-0.4 0.6-0.3 1-0.6 1.3-0.9 0.3-0.4 0.5-0.7 0.5-0.9 0-0.1 0-0.2-0.1-0.2-0.1-0.1-0.2-0.1-0.3-0.1h-1c-0.1 0-0.1 0.1-0.2 0.2-0.2 0.2-0.4 0.4-0.8 0.7-0.3 0.2-0.8 0.3-1.3 0.3-0.7 0-1.2-0.3-1.7-0.8-0.4-0.5-0.6-1.1-0.7-1.9v-0.2h5.9c0.1 0 0.2 0 0.3-0.1s0.1-0.2 0.1-0.3v-0.2c0-1.4-0.3-2.4-1-3.2s-1.6-1.2-2.9-1.2zm2.4 3.9h-4.7v-0.1c0-0.8 0.2-1.4 0.6-1.9s1-0.7 1.7-0.7 1.3 0.2 1.7 0.7c0.5 0.5 0.7 1.2 0.7 2z"/>
    <path class="st3" d="m74.4 126.8h-0.7c-1.1 0-1.9 0.4-2.4 1.2v-0.7c0-0.1 0-0.2-0.1-0.3s-0.2-0.1-0.3-0.1h-0.7c-0.1 0-0.2 0-0.3 0.1s-0.1 0.2-0.1 0.3v8c0 0.1 0 0.2 0.1 0.3s0.2 0.1 0.3 0.1h0.8c0.1 0 0.2 0 0.3-0.1s0.1-0.2 0.1-0.3v-5c0-0.6 0.2-1.1 0.5-1.5 0.4-0.4 0.8-0.5 1.5-0.5h1c0.1 0 0.2 0 0.3-0.1s0.1-0.2 0.1-0.3v-0.6c0-0.1 0-0.2-0.1-0.3-0.1-0.2-0.2-0.2-0.3-0.2z"/>
    <path class="st3" d="m79.1 123.5h-0.7c-0.1 0-0.2 0-0.3 0.1s-0.1 0.2-0.1 0.3v11.3c0 0.1 0 0.2 0.1 0.3s0.2 0.1 0.3 0.1h0.7c0.1 0 0.2 0 0.3-0.1s0.1-0.2 0.1-0.3v-11.3c0-0.1 0-0.2-0.1-0.3-0.1 0-0.2-0.1-0.3-0.1z"/>
    <path class="st3" d="m62.2 126.6c-1.2 0-2.1 0.4-2.8 1.1s-1.1 1.7-1.1 2.9v1.2c0.1 1.2 0.4 2.2 1.1 2.9s1.6 1.1 2.8 1.1c0.7 0 1.4-0.1 1.9-0.4 0.6-0.3 1-0.6 1.3-0.9 0.3-0.4 0.5-0.7 0.5-0.9 0-0.1 0-0.2-0.1-0.2-0.1-0.1-0.2-0.1-0.3-0.1h-1c-0.1 0-0.1 0.1-0.2 0.2-0.2 0.2-0.4 0.4-0.8 0.7-0.3 0.2-0.8 0.3-1.3 0.3-0.7 0-1.2-0.3-1.7-0.8-0.4-0.5-0.6-1.1-0.7-1.9v-0.2h5.9c0.1 0 0.2 0 0.3-0.1s0.1-0.2 0.1-0.3v-0.2c0-1.4-0.3-2.4-1-3.2s-1.7-1.2-2.9-1.2zm2.3 3.9h-4.7v-0.1c0-0.8 0.2-1.4 0.6-1.9s1-0.7 1.7-0.7 1.3 0.2 1.7 0.7c0.5 0.5 0.7 1.2 0.7 2z"/>
    <path class="st3" d="m101.9 127.7c-0.6-0.8-1.5-1.2-2.7-1.2s-2.1 0.4-2.7 1.3v-3.9c0-0.1 0-0.2-0.1-0.3s-0.2-0.1-0.3-0.1h-0.8c-0.1 0-0.2 0-0.3 0.1s-0.1 0.2-0.1 0.3v11.3c0 0.1 0 0.2 0.1 0.3s0.2 0.1 0.3 0.1h0.7c0.1 0 0.2 0 0.3-0.1s0.1-0.2 0.1-0.3v-0.7c0.6 0.9 1.6 1.3 2.8 1.3s2.1-0.4 2.7-1.2 0.9-1.7 0.9-2.9v-0.5s0-0.4 0-0.5c0-1.2-0.3-2.2-0.9-3zm-0.6 4c0 0.8-0.2 1.5-0.6 2s-1 0.8-1.8 0.8-1.4-0.3-1.8-0.8-0.6-1.2-0.6-1.9v-1.3c0-0.7 0.2-1.3 0.7-1.8 0.4-0.5 1-0.8 1.8-0.8 1.6 0 2.4 1.1 2.4 3.3-0.1 0.2-0.1 0.3-0.1 0.5z"/>
    <path class="st3" d="m26.1 106c-0.7-0.7-1.6-1.1-2.9-1.1-1.2 0-2.2 0.4-2.9 1.1s-1 1.6-1.1 2.8v1.4c0 1.2 0.4 2.1 1.1 2.8s1.6 1.1 2.9 1.1c1.2 0 2.2-0.4 2.9-1.1s1-1.6 1.1-2.8v-0.7s0-0.5 0-0.7c-0.1-1.1-0.4-2.1-1.1-2.8zm-0.5 4.2c0 0.9-0.3 1.5-0.7 2s-1 0.7-1.7 0.7-1.3-0.2-1.7-0.7-0.7-1.1-0.7-2v-1.2c0-0.9 0.3-1.5 0.7-2s1-0.7 1.7-0.7 1.3 0.2 1.7 0.7 0.7 1.1 0.7 2v0.6s0 0.5 0 0.6z"/>
    <path class="st3" d="m35.6 105.1h-0.7c-1.1 0-1.9 0.4-2.4 1.2v-0.7c0-0.1 0-0.2-0.1-0.3s-0.2-0.1-0.3-0.1h-0.7c-0.1 0-0.2 0-0.3 0.1s-0.1 0.2-0.1 0.3v8c0 0.1 0 0.2 0.1 0.3s0.2 0.1 0.3 0.1h0.8c0.1 0 0.2 0 0.3-0.1s0.1-0.2 0.1-0.3v-5c0-0.6 0.2-1.1 0.5-1.5 0.4-0.4 0.8-0.5 1.5-0.5h1c0.1 0 0.2 0 0.3-0.1s0.1-0.2 0.1-0.3v-0.6c0-0.1 0-0.2-0.1-0.3s-0.2-0.2-0.3-0.2z"/>
    <path class="st3" d="m75.7 105c-1.2 0-2.1 0.4-2.8 1.1s-1.1 1.7-1.1 2.9v1.2c0.1 1.2 0.4 2.2 1.1 2.9s1.6 1.1 2.8 1.1c0.7 0 1.4-0.1 1.9-0.4 0.6-0.3 1-0.6 1.3-0.9 0.3-0.4 0.5-0.7 0.5-0.9 0-0.1 0-0.2-0.1-0.2-0.1-0.1-0.2-0.1-0.3-0.1h-1c-0.1 0-0.1 0.1-0.2 0.2-0.2 0.2-0.4 0.4-0.8 0.7-0.3 0.2-0.8 0.3-1.3 0.3-0.7 0-1.2-0.3-1.7-0.8-0.4-0.5-0.6-1.1-0.7-1.9v-0.2h5.9c0.1 0 0.2 0 0.3-0.1s0.1-0.2 0.1-0.3v-0.3c0-1.4-0.3-2.4-1-3.2-0.7-0.7-1.6-1.1-2.9-1.1zm2.4 3.9h-4.7v-0.1c0-0.8 0.2-1.4 0.6-1.9s1-0.7 1.7-0.7 1.3 0.2 1.7 0.7c0.5 0.5 0.7 1.2 0.7 2z"/>
    <path class="st3" d="m64.5 105c-1.2 0-2.1 0.4-2.8 1.1s-1.1 1.7-1.1 2.9v1.2c0.1 1.2 0.4 2.2 1.1 2.9s1.6 1.1 2.8 1.1c0.7 0 1.4-0.1 1.9-0.4 0.6-0.3 1-0.6 1.3-0.9 0.3-0.4 0.5-0.7 0.5-0.9 0-0.1 0-0.2-0.1-0.2-0.1-0.1-0.2-0.1-0.3-0.1h-1c-0.1 0-0.1 0.1-0.2 0.2-0.2 0.2-0.4 0.4-0.8 0.7-0.3 0.2-0.8 0.3-1.3 0.3-0.7 0-1.2-0.3-1.7-0.8-0.4-0.5-0.6-1.1-0.7-1.9v-0.2h5.9c0.1 0 0.2 0 0.3-0.1s0.1-0.2 0.1-0.3v-0.3c0-1.4-0.3-2.4-1-3.2-0.7-0.7-1.6-1.1-2.9-1.1zm2.4 3.9h-4.7v-0.1c0-0.8 0.2-1.4 0.6-1.9s1-0.7 1.7-0.7 1.3 0.2 1.7 0.7c0.5 0.5 0.7 1.2 0.7 2z"/>
    <path class="st3" d="m42.2 114.1c1.2 0 2.2-0.4 2.8-1.3v0.7c0 0.1 0 0.2 0.1 0.3s0.2 0.1 0.3 0.1h0.7c0.1 0 0.2 0 0.3-0.1s0.1-0.2 0.1-0.3v-11.3c0-0.1 0-0.2-0.1-0.3s-0.2-0.1-0.3-0.1h-0.8c-0.1 0-0.2 0-0.3 0.1s-0.1 0.2-0.1 0.3v3.9c-0.7-0.8-1.6-1.3-2.7-1.3-1.2 0-2.1 0.4-2.7 1.2s-0.9 1.7-1 2.9v1c0 1.2 0.4 2.1 1 2.9 0.6 1 1.5 1.3 2.7 1.3zm-2.1-5c0-0.8 0.2-1.5 0.6-2s1-0.8 1.8-0.8 1.4 0.3 1.8 0.8 0.6 1.1 0.7 1.8v1.3c0 0.7-0.2 1.4-0.6 1.9s-1 0.8-1.8 0.8c-1.6 0-2.4-1.1-2.4-3.3l-0.1-0.5z"/>
    <path class="st3" d="m14.8 102.1h-0.8c-0.1 0-0.2 0-0.3 0.1s-0.1 0.2-0.1 0.3v8.6l-5.7-8.8-0.2-0.2c-0.1 0-0.1-0.1-0.3-0.1h-0.6c-0.1 0-0.2 0-0.3 0.1s-0.1 0.2-0.1 0.3v11.1c0 0.1 0 0.2 0.1 0.3s0.2 0.1 0.3 0.1h0.8c0.1 0 0.2 0 0.3-0.1s0.1-0.2 0.1-0.3v-8.5l5.7 8.7c0.1 0.2 0.2 0.2 0.4 0.2h0.8c0.1 0 0.2 0 0.3-0.1s0.1-0.2 0.1-0.3v-11.1c0-0.1 0-0.2-0.1-0.3h-0.4z"/>
    <path class="st3" d="m54.4 109c-0.7-0.1-1.2-0.3-1.6-0.4s-0.6-0.3-0.7-0.5-0.2-0.4-0.2-0.6c0-0.4 0.1-0.7 0.4-0.9s0.7-0.3 1.3-0.3c0.4 0 0.7 0 0.9 0.1l0.6 0.3 0.5 0.5c0.1 0.1 0.2 0.2 0.3 0.2h0.6c0.1 0 0.2 0 0.3-0.1s0.1-0.2 0.1-0.3c0-0.2-0.1-0.5-0.4-0.8s-0.6-0.6-1.1-0.8-1.1-0.4-1.8-0.4-1.3 0.1-1.8 0.4c-0.5 0.2-0.9 0.6-1.1 1s-0.4 0.8-0.4 1.2c0 0.6 0.2 1.2 0.6 1.6s1.1 0.7 2.1 0.9c0.7 0.2 1.3 0.3 1.6 0.4 0.4 0.1 0.6 0.3 0.8 0.5s0.2 0.4 0.2 0.7c0 0.4-0.2 0.8-0.6 1s-0.9 0.3-1.5 0.3c-0.5 0-1-0.1-1.3-0.3s-0.6-0.4-0.9-0.7l-0.2-0.2h-0.9c-0.1 0-0.2 0-0.3 0.1s-0.1 0.1-0.1 0.3 0.1 0.5 0.4 0.8 0.7 0.6 1.2 0.9 1.2 0.4 2 0.4 1.4-0.1 2-0.3c0.5-0.2 1-0.5 1.2-0.9 0.3-0.4 0.4-0.8 0.4-1.3 0-0.7-0.2-1.2-0.7-1.6-0.1-0.7-0.8-1-1.9-1.2z"/>
    <path class="st3" d="m63.1 83.5c0.6 0 1.1 0 1.7-0.1 0.5 0 1-0.1 1.4-0.2 0.3-0.1 0.6-0.1 1-0.2 0.3-0.1 0.7-0.1 1.2-0.1s1-0.1 1.6-0.1h0.9l0.4-1.3c-0.1-0.1-0.3-0.2-0.6-0.2-0.3-0.1-0.6-0.1-0.9-0.2-0.3 0-0.7-0.1-1.1-0.1h-1.2c-0.5 0-0.9 0-1.3 0.1-0.4 0-0.7 0.1-1 0.1-0.2 0.1-0.6 0.1-1 0.2s-0.9 0.1-1.3 0.2c-0.5 0.1-0.9 0.1-1.4 0.1h-1.7c-0.2 0-0.3 0-0.4-0.1l-0.1 1.4c0.3 0.1 0.8 0.2 1.5 0.2 0.7 0.2 1.4 0.3 2.3 0.3z"/>
    <path class="st3" d="m51.3 91.6c0-0.1 0.1-0.1 0 0 0.4 0 0.8-0.2 1.4-0.6s1.2-0.8 1.8-1.3 1.2-1 1.7-1.4c0.5-0.5 0.9-0.8 1-1l-0.9-1.7c-0.2 0.2-0.5 0.6-1 1s-1 0.9-1.5 1.3-1.1 0.8-1.7 1.1-1.1 0.5-1.5 0.5c-0.2 0-0.3 0-0.4-0.1-0.1 0-0.2-0.2-0.3-0.4s-0.1-0.5-0.1-0.9c0-0.5 0-1 0.1-1.7 0.1-0.6 0.2-1.3 0.4-2.1 0.2-0.7 0.3-1.5 0.5-2.3l0.6-2.4c0.2 0 0.4 0.1 0.6 0.1 0.8 0.2 1.5 0.3 2.2 0.5 0.7 0.1 1.3 0.2 1.8 0.2h0.6l-0.3-1.9c-0.3 0.1-0.6 0.2-0.9 0.2-0.5 0-1.1-0.1-1.7-0.2-0.6-0.2-1.2-0.3-1.7-0.4 0.4-1.2 0.7-2.2 1-3 0.3-0.9 0.6-1.4 0.8-1.7l-2.4-0.1c-0.2 0.4-0.4 0.9-0.7 1.8-0.3 0.8-0.6 1.8-0.9 2.9-0.7 0-1.4 0.1-2 0.2s-1.3 0.3-2 0.4v0.2c-0.3 0-0.5-0.1-0.8-0.2-0.6-0.2-1.2-0.3-1.7-0.4 0.4-1.2 0.7-2.2 1-3 0.3-0.9 0.6-1.4 0.8-1.7l-2.4-0.1c-0.2 0.4-0.4 0.9-0.7 1.8-0.3 0.8-0.6 1.8-0.9 2.9-0.7 0-1.4 0.1-2 0.2s-1.3 0.3-2 0.4l0.2 1.9c0.2 0 0.6-0.1 1.2-0.3 0.5-0.2 1.2-0.3 2.1-0.4-0.3 1-0.5 1.9-0.8 2.9s-0.5 1.9-0.7 2.7c-0.1 0.3-0.1 0.6-0.2 0.8v-0.2c-0.3 0.3-0.7 0.7-1.2 1.1l-1.5 1.2c-0.5 0.4-1.1 0.7-1.6 1.1-0.6 0.3-1 0.6-1.5 0.7v-0.9c0-0.4 0-0.8 0.1-1.3s0.1-1 0.3-1.5l0.1-0.1v-0.1c0.2-1.1 0.5-2.3 0.9-3.5s0.8-2.4 1.3-3.6l-1.7-0.3c-0.1 0.1-0.1 0.3-0.2 0.5-0.1-0.2-0.2-0.3-0.3-0.5s-0.3-0.4-0.5-0.5c-0.2-0.2-0.5-0.3-0.8-0.4s-0.6-0.2-1-0.2h-0.4c-0.3 0.1-0.7 0.2-1.1 0.5s-0.8 0.7-1.2 1.1l-1.2 1.5c-0.1 0.2-0.2 0.4-0.4 0.5s-0.4 0.3-0.6 0.4c-0.6 0.4-1.2 0.7-1.9 1-0.6 0.3-1.2 0.6-1.8 0.8s-1 0.3-1.4 0.4c0.3-0.6 0.5-1.1 0.8-1.6 0.2-0.5 0.4-1 0.6-1.4s0.3-0.8 0.4-1c0.1-0.3 0.1-0.5 0.1-0.6 0-0.2-0.1-0.3-0.3-0.5-0.2-0.1-0.4-0.3-0.7-0.3-0.3-0.1-0.5-0.2-0.8-0.2-0.3-0.1-0.6-0.1-0.8-0.1-0.4 0-0.6 0-0.8 0.1-0.1 0.1-0.3 0.3-0.4 0.6-0.2 0.3-0.3 0.7-0.4 1.1s-0.3 0.9-0.3 1.3c-0.1 0.5-0.1 0.9-0.1 1.2v0.3c0 0.3 0.2 0.6 0.4 1-0.2 0.5-0.5 0.9-0.7 1.5-0.3 0.5-0.6 1-0.9 1.5s-0.7 1-1.1 1.5-0.8 0.9-1.2 1.2c-0.2-0.2-0.4-0.5-0.6-0.8s-0.3-0.7-0.4-1.1l-0.3-1.2c-0.1-0.4-0.1-0.8-0.2-1.1 0.4-0.7 0.7-1.4 1-2.1s0.6-1.3 0.8-1.9 0.4-1.1 0.6-1.5c0.1-0.4 0.2-0.7 0.2-0.9v-0.1c-0.1-0.3-0.3-0.5-0.6-0.7s-0.6-0.3-1-0.3c-0.3 0-0.7 0.1-1.1 0.2-0.2 0.1-0.3 0.2-0.5 0.6-0.1 0.3-0.2 0.7-0.3 1.2s-0.1 1.1-0.2 1.7-0.1 1.3-0.1 2c-0.3 0.7-0.6 1.3-1 2-0.4 0.6-0.7 1.2-1.1 1.8-0.4 0.5-0.8 1-1.2 1.4s-0.8 0.7-1.2 1c-0.2-0.2-0.3-0.5-0.3-0.9-0.1-0.4-0.1-0.7-0.1-1.2 0-0.8 0.1-1.6 0.3-2.5s0.4-1.8 0.7-2.6 0.5-1.6 0.8-2.2c0.3-0.7 0.5-1.1 0.6-1.4l-1.9-1.2c-0.2 0.2-0.5 0.5-0.7 0.9-0.2 0.5-0.4 1-0.6 1.7-0.2 0.6-0.4 1.3-0.5 2.1-0.2 0.8-0.3 1.5-0.4 2.2s-0.2 1.4-0.3 2-0.1 1.1-0.1 1.4v-0.1c0 0.4 0.1 0.8 0.3 1.2 0.1 0.4 0.3 0.8 0.7 1.1 0.3 0.3 0.7 0.6 1.1 0.7 0.4 0.2 0.8 0.3 1.3 0.3 0.3 0 0.6-0.1 0.9-0.2s0.7-0.5 1.2-1.2 1-1.4 1.5-2.4c0 0.7 0 1.3 0.1 1.8 0 0.5 0 0.8 0.1 1 0 0.4 0.3 0.6 0.7 0.8s0.9 0.2 1.5 0.2c0.3 0 0.6 0 1-0.1 0.3-0.1 0.7-0.1 1-0.2 0.2-0.1 0.4-0.3 0.7-0.6 0.3-0.4 0.6-0.8 1-1.3s0.7-1.1 1.1-1.8 0.7-1.4 1.1-2.1c0.4 0.2 0.9 0.4 1.3 0.4h0.3c0.4-0.1 0.8-0.2 1.4-0.4 0.5-0.2 1-0.5 1.5-0.7-0.2 0.3-0.3 0.6-0.4 0.9-0.2 0.6-0.3 1.2-0.3 1.9 0 0.5 0.1 0.9 0.2 1.4s0.3 0.9 0.4 1.2c0.2 0.4 0.4 0.7 0.7 0.9 0.3 0.3 0.6 0.4 0.9 0.5h0.3c0.6 0 1.2-0.2 2-0.7 0.7-0.5 1.5-1.1 2.2-1.8 0 0.3 0 0.5-0.1 0.7v0.6c0 0.2 0.1 0.5 0.3 0.7s0.5 0.4 0.8 0.5 0.7 0.3 1.1 0.4 0.7 0.1 1.1 0.1h0.1c0.3 0 0.7-0.2 1.2-0.5s1-0.7 1.4-1.2l1.4-1.4c0.1-0.1 0.1-0.2 0.2-0.3v0.5c0 0.4 0.2 0.7 0.5 1.1 0.3 0.3 0.7 0.6 1.1 0.9 0.4 0.2 0.9 0.4 1.3 0.6 0.4 0.1 0.8 0.2 1.1 0.2h0.2c0.3 0 0.7-0.2 1.3-0.6s1.2-0.8 1.8-1.3c0.5-0.4 1-0.8 1.4-1.2v0.4c0 0.4 0.2 0.7 0.5 1.1 0.3 0.3 0.7 0.6 1.1 0.9 0.4 0.2 0.9 0.4 1.3 0.6 0.2-0.1 0.6 0 1 0zm-37.3-11.4c0.1-0.3 0.3-0.6 0.4-0.8 0 0.4-0.1 0.8-0.2 1.2s-0.2 0.7-0.3 1c-0.1-0.2-0.1-0.3-0.1-0.5 0-0.3 0-0.6 0.2-0.9zm6.5 0.5c-0.2 0.5-0.4 0.9-0.6 1.2v-0.2c0-0.2 0-0.4 0.1-0.6s0.2-0.5 0.3-0.7 0.2-0.4 0.4-0.6c0.1-0.2 0.2-0.4 0.3-0.5-0.1 0.4-0.3 0.8-0.5 1.4zm10.9 5.1c-0.4 0.4-0.7 0.8-1.1 1.3l-1.1 1.1c-0.4 0.3-0.7 0.6-1 0.8s-0.6 0.3-0.8 0.3h-0.1c-0.4 0-0.6-0.2-0.7-0.5s-0.2-0.7-0.2-1.2c0-0.2 0-0.5 0.1-0.7 0-0.3 0.1-0.5 0.1-0.7s0.2-0.6 0.4-1 0.5-0.9 0.8-1.3c0.3-0.5 0.6-1 1-1.4 0.4-0.5 0.7-0.9 1-1.3s0.6-0.7 0.8-1 0.4-0.4 0.5-0.5 0.1-0.1 0.2-0.1 0.3 0.1 0.4 0.2c0.2 0.1 0.3 0.2 0.5 0.4s0.3 0.4 0.4 0.6 0.2 0.5 0.3 0.7l0.4-0.7c-0.4 1-0.7 2-1 2.9-0.4 0.7-0.7 1.5-0.9 2.1zm17.1-3.3c-0.3 1-0.5 1.9-0.7 2.7 0 0.2-0.1 0.3-0.1 0.5l-0.1-0.2c-0.2 0.2-0.5 0.6-1 1s-1 0.9-1.5 1.3-1.1 0.8-1.7 1.1-1.1 0.5-1.5 0.5c-0.2 0-0.3 0-0.4-0.1-0.1 0-0.2-0.2-0.3-0.4s-0.1-0.5-0.1-0.9c0-0.5 0-1 0.1-1.7 0.1-0.6 0.2-1.3 0.4-2.1 0.2-0.7 0.3-1.5 0.5-2.3l0.6-2.4c0.2 0 0.4 0.1 0.6 0.1 0.8 0.2 1.5 0.3 2.2 0.5 0.2 0 0.3 0 0.5 0.1h0.1c0.5 0.1 0.9 0.1 1.3 0.1h0.6l-0.1-0.5c0.4-0.1 0.9-0.2 1.4-0.2-0.3 1-0.6 1.9-0.8 2.9z"/>
    <path class="st3" d="m196 86.7c-0.2 0.1-0.5 0.3-1 0.6-0.4 0.2-0.9 0.5-1.4 0.7-0.5 0.3-1.1 0.6-1.7 0.9 0 0 0-0.1 0.1-0.2s0.1-0.3 0.2-0.4 0.1-0.3 0.2-0.4 0.1-0.2 0.1-0.2c0.1-0.2 0.2-0.4 0.2-0.7s0.1-0.5 0.1-0.8c0-0.5-0.1-1-0.2-1.5s-0.3-1-0.6-1.5c-0.1-0.2-0.2-0.3-0.4-0.6-0.2-0.2-0.4-0.5-0.6-0.7-0.2-0.3-0.3-0.5-0.5-0.8s-0.2-0.5-0.2-0.8c0-0.1 0-0.2 0.1-0.3 0.1-0.4 0.2-0.7 0.3-1.1s0.3-0.7 0.4-1v-0.2c0-0.2 0-0.3-0.1-0.5s-0.2-0.4-0.3-0.5c-0.1-0.2-0.2-0.3-0.4-0.4-0.1-0.1-0.2-0.2-0.4-0.2h-0.1c-0.3 0.1-0.6 0.4-0.9 1-0.2 0.5-0.4 1.1-0.5 1.7-0.2 0.4-0.6 0.9-1 1.5s-0.9 1.4-1.4 2.1l-1.5 2.4c-0.5 0.8-1 1.6-1.5 2.3l-0.1 0.1c-0.4 0.2-0.9 0.5-1.3 0.7-0.5 0.3-1.1 0.6-1.7 0.9 0 0 0-0.1 0.1-0.2s0.1-0.3 0.2-0.4 0.1-0.3 0.2-0.4 0.1-0.2 0.1-0.2c0.1-0.2 0.2-0.4 0.2-0.7s0.1-0.5 0.1-0.8c0-0.5-0.1-1-0.2-1.5s-0.3-1-0.6-1.5c-0.1-0.2-0.2-0.3-0.4-0.6-0.2-0.2-0.4-0.5-0.6-0.7-0.2-0.3-0.3-0.5-0.5-0.8s-0.2-0.5-0.2-0.8c0-0.1 0-0.2 0.1-0.3 0.1-0.4 0.2-0.7 0.3-1.1s0.3-0.7 0.4-1v-0.2c0-0.2 0-0.3-0.1-0.5s-0.2-0.4-0.3-0.5c-0.1-0.2-0.2-0.3-0.4-0.4-0.1-0.1-0.2-0.2-0.4-0.2h0.1c-0.3 0.1-0.6 0.4-0.9 1-0.2 0.5-0.4 1.1-0.5 1.7-0.2 0.4-0.6 0.9-1 1.5s-0.9 1.4-1.4 2.1l-1.5 2.4c-0.5 0.8-1 1.6-1.5 2.3-0.1 0.1-0.2 0.3-0.3 0.4s-0.2 0.1-0.2 0.2l-1.5 1.2c-0.5 0.4-1 0.7-1.4 0.9-0.2-0.3-0.3-0.7-0.4-1.1s-0.1-0.9-0.1-1.4 0-0.9 0.1-1.4 0.1-0.9 0.2-1.4c0.4-0.5 0.7-1.1 1.1-1.6 0.3-0.5 0.6-1 0.9-1.4s0.5-0.8 0.6-1.1 0.2-0.5 0.2-0.6v-0.1c0-0.2-0.1-0.4-0.2-0.6s-0.3-0.4-0.5-0.5-0.4-0.3-0.7-0.4c-0.2-0.1-0.5-0.1-0.8-0.1-0.4 0-0.8 0.1-1.1 0.4-0.2 0.2-0.4 0.5-0.5 0.9s-0.3 0.8-0.4 1.3-0.2 1-0.3 1.6-0.2 1.2-0.2 1.8c-0.4 0.5-0.8 1.1-1.3 1.6s-1 1-1.4 1.5c-0.5 0.5-1 0.9-1.5 1.3s-0.9 0.7-1.3 0.9c0-0.1 0-0.1-0.1-0.2v-0.8c0-0.3 0-0.8 0.1-1.4s0.2-1.2 0.4-2.1c0.2-0.8 0.5-1.8 0.9-2.9s0.9-2.3 1.5-3.7l-2.5-0.1c-0.7 2-1.2 3.7-1.6 5s-0.7 2.4-0.9 3.2v0.1c-0.3 0.3-0.6 0.6-0.8 0.9-0.4 0.5-0.8 0.9-1.3 1.3-0.4 0.4-0.9 0.7-1.4 1.1-0.5 0.3-1 0.5-1.5 0.7-0.4-0.2-0.6-0.5-0.7-1s-0.2-1-0.2-1.5c0-0.3 0-0.6 0.1-0.9 0-0.3 0.1-0.6 0.1-0.9s0.1-0.5 0.1-0.7 0.1-0.3 0.1-0.4c0.5-0.7 0.9-1.5 1.4-2.4s0.9-1.8 1.3-2.7l1.2-2.7c0.4-0.9 0.7-1.7 0.9-2.5 0.3-0.7 0.5-1.4 0.6-1.9s0.2-0.9 0.2-1.1v0.3c-0.1-0.3-0.3-0.5-0.7-0.8s-0.8-0.4-1.3-0.4c-0.2 0-0.4 0-0.6 0.1s-0.4 0.1-0.6 0.3c-0.6 0.4-1.1 1-1.5 1.8-0.5 0.9-0.9 1.8-1.3 3-0.4 1.1-0.7 2.3-1 3.6s-0.5 2.5-0.7 3.7c-0.2 1.1-0.3 2.2-0.4 3.1-0.3 0.2-0.7 0.4-1.2 0.5-0.5 0.2-1 0.4-1.6 0.6l-1.8 0.6c-0.6 0.2-1.3 0.3-1.9 0.5l-0.6-0.9c0.3-0.2 0.7-0.5 1.1-0.7 0.4-0.3 0.7-0.5 1.1-0.8 0.3-0.3 0.7-0.5 0.9-0.7 0.3-0.2 0.5-0.4 0.6-0.6 0.2-0.2 0.4-0.5 0.6-1s0.5-1.1 0.7-1.7 0.5-1.3 0.7-2c0.2-0.7 0.5-1.4 0.6-2.1 0.2-0.7 0.3-1.3 0.5-1.8 0.1-0.6 0.2-1 0.2-1.3v-0.1c0-0.4-0.1-0.8-0.2-1.2s-0.2-0.8-0.4-1.2-0.4-0.7-0.7-0.9c-0.3-0.3-0.7-0.4-1.1-0.4-0.2 0-0.4 0-0.6 0.1-0.5 0.1-1 0.4-1.5 0.9s-1 1-1.5 1.7-0.9 1.4-1.4 2.2l-1.2 2.4c-0.4 0.8-0.7 1.5-0.9 2.2-0.3 0.7-0.4 1.2-0.5 1.7-0.1 0.3-0.2 0.8-0.3 1.4s-0.3 1.3-0.4 2.1c-0.2 0.8-0.3 1.7-0.5 2.6s-0.4 1.9-0.5 2.8c-0.2 0.9-0.3 1.9-0.5 2.8s-0.3 1.7-0.4 2.5-0.2 1.4-0.3 2-0.1 1-0.1 1.3v0.1c0 0.3 0.1 0.7 0.3 1l0.6 0.9c0.3 0.3 0.5 0.5 0.9 0.6 0.3 0.2 0.6 0.2 1 0.2s0.7-0.1 1-0.3c0.4-0.3 0.8-0.8 1.2-1.5s0.8-1.5 1.1-2.4c0.4-0.9 0.7-1.8 0.9-2.7 0.3-0.9 0.5-1.8 0.6-2.6 0-0.2 0.1-0.3 0.1-0.5v-0.7c0-0.5-0.1-1-0.2-1.4 0.3-0.1 0.8-0.3 1.4-0.4s1.2-0.3 1.8-0.5 1.2-0.3 1.7-0.5c0.2-0.1 0.5-0.2 0.7-0.2v0.5c0.1 0.4 0.2 0.7 0.5 1s0.6 0.5 1 0.7 0.8 0.3 1.3 0.4 0.9 0.1 1.4 0.1c0.7 0 1.3-0.1 1.8-0.3 0.4-0.2 0.7-0.4 1-0.6s0.5-0.4 0.8-0.7c0.1-0.1 0.1-0.2 0.2-0.2 0 0.1 0 0.1 0.1 0.2 0.1 0.2 0.3 0.4 0.6 0.6 0.2 0.1 0.5 0.3 0.9 0.3 0.3 0.1 0.7 0.1 1 0.1h0.7c0.2 0 0.5-0.1 0.7-0.1 0.4-0.1 0.9-0.5 1.6-1.1 0.7-0.7 1.4-1.5 2.2-2.4v1.8c0 0.5 0.2 0.9 0.4 1.3 0.3 0.4 0.8 0.5 1.5 0.5 0.4 0 0.8-0.1 1.3-0.2 0.3-0.1 0.5-0.2 0.8-0.3l0.9 0.8 1.3-2.2c0.2-0.1 0.3-0.3 0.5-0.5 0.2 0.3 0.4 0.6 0.7 1s0.7 0.8 1 1.1c0.4 0.3 0.7 0.6 1.1 0.8s0.7 0.3 1 0.4h0.1c0.2 0 0.6-0.1 1.1-0.3s1.1-0.4 1.7-0.7 1.3-0.6 2-0.9c0.1 0 0.2-0.1 0.3-0.1-0.1 0.1-0.1 0.2-0.2 0.2l1.3 1.2 1.7-2.8h0.1c0.2 0.4 0.5 0.7 0.8 1.1s0.7 0.8 1 1.1c0.4 0.3 0.7 0.6 1.1 0.8s0.7 0.3 1 0.4h0.1c0.2 0 0.6-0.1 1.1-0.3s1.1-0.4 1.7-0.7 1.3-0.6 2-0.9 1.3-0.6 1.9-0.9 1.1-0.5 1.5-0.8c0.4-0.2 0.7-0.4 0.8-0.4l-1.4-1.3zm-27.8-6.4c0.1-0.3 0.3-0.6 0.6-0.8 0 0.4-0.2 0.8-0.4 1.1s-0.4 0.6-0.5 0.8c0.1-0.4 0.2-0.8 0.3-1.1zm-14.9-0.9l0.6-2.1c0.2-0.7 0.5-1.4 0.8-2s0.6-1.2 1-1.8c-0.1 0.6-0.3 1.2-0.5 1.9s-0.5 1.4-0.7 2.1c-0.3 0.7-0.5 1.4-0.8 2s-0.5 1.2-0.8 1.7c0.1-0.4 0.3-1.1 0.4-1.8zm-12.5 6.1c0.2-0.8 0.5-1.7 0.9-2.7l1.2-3c0.5-1 0.9-2 1.4-2.8 0.5-0.9 1-1.7 1.4-2.3 0.5-0.7 0.9-1.1 1.3-1.4 0.1 0.4 0.1 0.7 0.1 1 0 0.6 0 1.3-0.1 2s-0.2 1.5-0.4 2.2c-0.1 0.7-0.3 1.4-0.5 2s-0.4 1.1-0.5 1.5c-0.2 0.4-0.5 0.9-0.9 1.4s-0.8 1-1.3 1.5-0.9 1-1.4 1.4l-1.2 1.2c-0.1 0-0.2 0.1-0.2 0.1-0.1 0-0.1 0.1-0.2 0.1 0-0.7 0.2-1.4 0.4-2.2zm1.2 3.2c-0.1 0.1-0.3 0.1-0.6 0.1h-0.5c-0.2 0-0.3-0.1-0.4-0.2 0.1-0.1 0.3-0.2 0.4-0.2s0.3-0.2 0.4-0.2c0.1 0.1 0.3 0.2 0.4 0.3 0.2 0 0.2 0.1 0.3 0.2zm0 4.9c-0.2 0.8-0.4 1.5-0.7 2.3s-0.6 1.5-1 2.2-0.8 1.3-1.3 1.8c-0.1-0.3-0.1-0.6-0.1-1 0-0.5 0-1.1 0.1-1.8l0.3-2.1c0.1-0.7 0.2-1.5 0.4-2.2 0.1-0.8 0.3-1.5 0.4-2.2 0.3 0.2 0.7 0.3 1.1 0.4s0.8 0.1 1.1 0.1v0.4c0 0.6-0.1 1.3-0.3 2.1zm36.6-6.4c0 0.3-0.1 0.6-0.2 0.9s-0.2 0.6-0.4 0.8c-0.1 0.2-0.3 0.4-0.5 0.5-0.1 0-0.1 0-0.1 0.1 0 0-0.1 0-0.1 0.1-0.2 0.1-0.4 0.1-0.6 0.1h-0.2c-0.4-0.1-0.7-0.2-0.9-0.4-0.3-0.2-0.5-0.5-0.8-0.7-0.3-0.3-0.5-0.5-0.7-0.8s-0.5-0.4-0.8-0.6l3.9-5.6c0 0.3 0.1 0.6 0.2 0.9l0.3 0.9c0.1 0.2 0.2 0.5 0.4 0.7 0.1 0.2 0.3 0.4 0.4 0.7 0.1 0.2 0.2 0.5 0.3 0.8s0.1 0.6 0.1 0.9c-0.2 0-0.3 0.3-0.3 0.7zm12 0c0 0.3-0.1 0.6-0.2 0.9s-0.2 0.6-0.4 0.8c-0.1 0.2-0.3 0.4-0.5 0.5-0.1 0-0.1 0-0.1 0.1 0 0-0.1 0-0.1 0.1-0.2 0.1-0.4 0.1-0.6 0.1h-0.2c-0.4-0.1-0.7-0.2-0.9-0.4-0.3-0.2-0.5-0.5-0.8-0.7-0.3-0.3-0.5-0.5-0.7-0.8s-0.5-0.4-0.8-0.6l3.9-5.6c0 0.3 0.1 0.6 0.2 0.9l0.3 0.9c0.1 0.2 0.2 0.5 0.4 0.7 0.1 0.2 0.3 0.4 0.4 0.7 0.1 0.2 0.2 0.5 0.3 0.8s0.1 0.6 0.1 0.9c-0.3 0-0.3 0.3-0.3 0.7z"/>
    <path class="st3" d="m136.5 82.8h0.9l0.4-1.3c-0.1-0.1-0.3-0.2-0.6-0.2-0.3-0.1-0.6-0.1-0.9-0.2-0.3 0-0.7-0.1-1.1-0.1h-1.2c-0.5 0-0.9 0-1.3 0.1-0.4 0-0.7 0.1-1 0.1-0.2 0.1-0.6 0.1-1 0.2s-0.9 0.1-1.3 0.2c-0.5 0.1-0.9 0.1-1.4 0.1h-1.7c-0.2 0-0.3 0-0.4-0.1l-0.1 1.4c0.3 0.1 0.8 0.2 1.5 0.2 0.7 0.1 1.5 0.1 2.3 0.1 0.6 0 1.1 0 1.7-0.1 0.5 0 1-0.1 1.4-0.2 0.3-0.1 0.6-0.1 1-0.2 0.3-0.1 0.7-0.1 1.2-0.1 0.5 0.1 1 0.1 1.6 0.1z"/>
    <path class="st3" d="m122.4 86.5c-0.3 0.3-0.7 0.5-1.1 0.8s-0.9 0.6-1.3 0.9c-0.5 0.3-0.9 0.6-1.4 0.8s-0.9 0.5-1.3 0.7-0.8 0.3-1 0.4c-0.2-0.5-0.2-1.2-0.2-2v-0.9c0-0.3 0-0.6 0.1-0.9 0.4-0.4 0.8-1.1 1.2-1.9 0.5-0.8 0.9-1.7 1.4-2.7s0.9-2 1.4-3c0.5-1.1 0.9-2 1.2-2.9 0.4-0.9 0.7-1.7 0.9-2.3s0.3-1.1 0.4-1.3v-0.1c0-0.2-0.1-0.4-0.2-0.6s-0.3-0.4-0.5-0.6-0.5-0.3-0.7-0.4c-0.3-0.1-0.6-0.2-0.9-0.2s-0.6 0-0.8 0.1c-0.3 0.1-0.5 0.3-0.8 0.5-0.2 0.2-0.4 0.6-0.6 1.1s-0.4 1.1-0.7 1.8-0.5 1.5-0.7 2.3c-0.3 0.8-0.5 1.7-0.7 2.5-0.2-0.2-0.4-0.4-0.7-0.6s-0.7-0.3-1.1-0.3h-0.4c-0.3 0.1-0.7 0.2-1.1 0.6-0.4 0.3-0.8 0.7-1.2 1.2s-0.8 1-1.2 1.6-0.8 1.2-1.2 1.7c-0.4 0.6-0.7 1.1-1 1.6s-0.5 1-0.6 1.3c-0.2 0.6-0.3 1.2-0.3 1.8 0 0.2 0 0.4 0.1 0.6l-0.9 0.9c-0.6 0.4-1.1 0.7-1.6 0.9-0.6 0.3-1.2 0.4-1.9 0.6-0.2 0-0.3-0.1-0.4-0.3s-0.1-0.4-0.1-0.7c0-0.4 0.1-1 0.2-1.6s0.3-1.2 0.5-1.9 0.4-1.3 0.7-2c0.2-0.7 0.5-1.3 0.7-1.9s0.4-1 0.5-1.4 0.2-0.7 0.2-0.8c0-0.2-0.1-0.4-0.4-0.6-0.2-0.2-0.5-0.4-0.8-0.6s-0.6-0.4-1-0.5c-0.3-0.1-0.6-0.2-0.8-0.2h-0.1c-0.5 0.1-1.1 0.4-1.7 0.7s-1.2 0.7-1.7 1.2v-1s-0.2 0.1-0.5 0.2-0.6 0.3-0.9 0.4c-0.4 0.2-0.8 0.4-1.3 0.7l0.1 0.1c0 0.4-0.1 0.9-0.2 1.4-0.1 0.6-0.3 1.2-0.5 1.9s-0.4 1.4-0.7 2.1c0 0.1-0.1 0.2-0.1 0.3-0.3 0.3-0.6 0.6-1 0.9l-1.5 1.2c-0.5 0.4-1.1 0.7-1.6 1.1-0.6 0.3-1 0.6-1.5 0.7v-0.9c0-0.4 0-0.8 0.1-1.3s0.1-1 0.2-1.5l0.1-0.1v-0.1c0.2-1.1 0.5-2.3 0.9-3.5s0.8-2.4 1.3-3.6l-1.7-0.3c-0.1 0.1-0.1 0.3-0.2 0.5-0.1-0.2-0.2-0.3-0.3-0.5s-0.3-0.4-0.5-0.5c-0.2-0.2-0.5-0.3-0.8-0.4s-0.6-0.2-1-0.2h-0.4c-0.3 0.1-0.7 0.2-1.1 0.5s-0.8 0.7-1.2 1.1l-1.2 1.5c-0.4 0.6-0.8 1.1-1.1 1.7s-0.6 1.1-0.9 1.6-0.5 0.9-0.6 1.3c-0.2 0.5-0.3 1-0.3 1.5-0.2 0.3-0.5 0.5-0.7 0.8-0.4 0.5-0.8 0.9-1.3 1.3-0.4 0.4-0.9 0.7-1.4 1.1-0.5 0.3-1 0.5-1.5 0.7-0.4-0.2-0.6-0.5-0.7-1s-0.2-1-0.2-1.5c0-0.3 0-0.6 0.1-0.9 0-0.3 0.1-0.6 0.1-0.9s0.1-0.5 0.1-0.7 0.1-0.3 0.1-0.4c0.5-0.7 0.9-1.5 1.4-2.4s0.9-1.8 1.3-2.7l1.2-2.7c0.4-0.9 0.7-1.7 0.9-2.5 0.3-0.7 0.5-1.4 0.6-1.9s0.2-0.9 0.2-1.1v0.1c-0.1-0.3-0.3-0.5-0.7-0.8s-0.8-0.4-1.3-0.4c-0.2 0-0.4 0-0.6 0.1s-0.4 0.1-0.6 0.3c-0.6 0.4-1.1 1-1.5 1.8-0.5 0.9-0.9 1.8-1.3 3-0.4 1.1-0.7 2.3-1 3.6s-0.5 2.5-0.7 3.7-0.3 2.3-0.4 3.3-0.1 1.8-0.1 2.3v0.7c0.1 0.4 0.2 0.7 0.5 1s0.6 0.5 1 0.7 0.8 0.3 1.3 0.4 0.9 0.1 1.4 0.1c0.7 0 1.3-0.1 1.8-0.3 0.4-0.2 0.7-0.4 1-0.6s0.5-0.4 0.8-0.7c0.2-0.3 0.5-0.5 0.7-0.9 0.1 0.2 0.1 0.4 0.2 0.5 0.2 0.4 0.4 0.7 0.7 0.9 0.3 0.3 0.6 0.4 0.9 0.5h0.3c0.6 0 1.2-0.2 2-0.7 0.7-0.5 1.5-1.1 2.2-1.8 0 0.3 0 0.5-0.1 0.7v0.6c0 0.2 0.1 0.5 0.3 0.7s0.5 0.4 0.8 0.5 0.7 0.3 1.1 0.4 0.7 0.1 1.1 0.1h-0.4c0.3 0 0.7-0.2 1.2-0.5s1-0.7 1.4-1.2l0.4-0.4v0.1l-0.7 1.4 2.4 0.6c0.5-1.3 0.9-2.5 1.3-3.8s0.9-2.5 1.5-3.7c0.5-1 1.1-1.9 2-2.7s1.9-1.4 3-1.7c0 0.4-0.1 0.8-0.3 1.4s-0.3 1.2-0.6 1.9c-0.2 0.7-0.4 1.4-0.7 2.2-0.2 0.8-0.4 1.5-0.5 2.2-0.1 0.4-0.1 0.7-0.1 1v1c0 0.7 0.1 1.3 0.2 1.8s0.3 0.9 0.5 1.1 0.6 0.3 1 0.3 1-0.1 1.5-0.2c0.6-0.2 1.2-0.4 1.8-0.7s1.2-0.6 1.7-1c0.3-0.2 0.5-0.4 0.7-0.6 0.2 0.3 0.4 0.6 0.6 0.8 0.3 0.2 0.6 0.4 0.9 0.5h0.3c0.3 0 0.6-0.1 1-0.2 0.4-0.2 0.7-0.4 1.1-0.6l1.2-0.9c0.4-0.4 0.8-0.7 1.2-1.1v1.7c0 0.2 0.1 0.5 0.4 0.7 0.2 0.2 0.5 0.4 0.9 0.5s0.7 0.3 1.1 0.4 0.8 0.1 1.1 0.1h0.1c0.3 0 0.8-0.2 1.4-0.5s1.2-0.7 1.8-1.2 1.1-0.9 1.7-1.4c0.5-0.5 0.9-0.8 1-1.1l-0.3-1.9c-0.2 0-0.4 0.3-0.8 0.5zm-4.7-7.6c0.3-1 0.6-1.9 0.9-2.8s0.7-1.6 1-2.3c0.3-0.6 0.6-1.1 0.9-1.5 0 0.5-0.1 1.2-0.4 2-0.2 0.8-0.5 1.6-0.9 2.5s-0.7 1.8-1.2 2.7c-0.4 0.9-0.9 1.7-1.3 2.5 0.4-1 0.7-2.1 1-3.1zm-42 0.5l0.6-2.1c0.2-0.7 0.5-1.4 0.8-2s0.6-1.2 1-1.8c-0.1 0.6-0.3 1.2-0.5 1.9s-0.5 1.4-0.7 2.1c-0.3 0.7-0.5 1.4-0.8 2s-0.5 1.2-0.8 1.7c0.1-0.4 0.2-1.1 0.4-1.8zm11.5 6.4c-0.4 0.4-0.7 0.8-1.1 1.3l-1.1 1.1c-0.4 0.3-0.7 0.6-1 0.8s-0.6 0.3-0.8 0.3h-0.1c-0.4 0-0.6-0.2-0.7-0.5s-0.2-0.7-0.2-1.2c0-0.2 0-0.5 0.1-0.7 0-0.3 0.1-0.5 0.1-0.7s0.2-0.6 0.4-1 0.5-0.9 0.8-1.3c0.3-0.5 0.6-1 1-1.4 0.4-0.5 0.7-0.9 1-1.3s0.6-0.7 0.8-1 0.4-0.4 0.5-0.5 0.1-0.1 0.2-0.1 0.3 0.1 0.4 0.2c0.2 0.1 0.3 0.2 0.5 0.4s0.3 0.4 0.4 0.6 0.2 0.5 0.3 0.7l0.4-0.7c-0.4 1-0.7 2-1 2.9-0.4 0.7-0.7 1.5-0.9 2.1zm27.5-2.1c-0.2 0.8-0.4 1.6-0.5 2.2-0.4 0.4-0.8 0.9-1.2 1.3l-1.2 1.2c-0.4 0.3-0.7 0.6-1 0.8s-0.6 0.3-0.8 0.3c-0.4 0-0.6-0.2-0.7-0.6-0.1-0.3-0.2-0.7-0.2-1.2 0-0.2 0-0.5 0.1-0.7 0-0.3 0.1-0.5 0.1-0.7s0.2-0.6 0.4-1 0.5-0.9 0.8-1.3c0.3-0.5 0.6-1 1-1.4 0.4-0.5 0.7-0.9 1-1.3s0.6-0.7 0.8-1 0.4-0.4 0.5-0.5 0.1-0.1 0.2-0.1c0.2 0 0.5 0.1 0.7 0.4 0.3 0.3 0.5 0.6 0.7 1-0.3 0.9-0.5 1.8-0.7 2.6z"/>
  </g>
  <path d="m9.0233 26.408c0.23125 0.57304 0.40859 1.1692 0.69336 1.7168 0.56875 1.0938 1.2438 2.1332 2.0137 3.1016 0.76992 0.96836 1.6352 1.8668 2.5898 2.6777 0.95469 0.81094 1.998 1.5348 3.1211 2.1562 1.123 0.62148 2.3266 1.1391 3.6016 1.5391 1.2625 0.4 2.5377 0.66367 3.8086 0.79688 1.2709 0.1332 2.5371 0.13672 3.7832 0.01953s2.4721-0.35586 3.6602-0.70703 2.3387-0.81406 3.4356-1.3828c0.45568-0.23628 0.85708-0.56411 1.293-0.83594-3.312-8.257-12.052-13.342-21.182-11.69-2.5027 0.42903-4.7865 1.351-6.8184 2.6074z" fill="#69792f"/>
  <path d="m28.913 26.141c-0.14928 0.30506-0.35319 0.57946-0.48633 0.89258-0.48457 1.1396-0.86211 2.3312-1.1191 3.5586-0.25703 1.2273-0.39434 2.4904-0.40235 3.7754-0.008 1.285 0.11446 2.5918 0.37696 3.9043 0.25 1.3 0.62715 2.5434 1.1152 3.7207 0.48809 1.1773 1.0871 2.2879 1.7832 3.3223 0.69609 1.0344 1.4892 1.9922 2.3633 2.8633 0.87402 0.87109 1.8277 1.6562 2.8496 2.3438 0.35633 0.23974 0.76096 0.39949 1.1328 0.61523 1.7149-3.5301 2.4109-7.5954 1.6562-11.766-0.99661-5.8135-4.5524-10.479-9.2695-13.23z" fill="#288345"/>
  <path d="m27.347 38.458c0.45232-0.01046 0.91163 0.04992 1.3594 0.0078 1.2461-0.11719 2.4721-0.35586 3.6602-0.70704 1.1881-0.35117 2.3387-0.81406 3.4356-1.3828 1.0969-0.56875 2.1389-1.2418 3.1113-2.0117 0.97246-0.76992 1.8746-1.6371 2.6894-2.5918 0.81484-0.95469 1.5439-1.998 2.168-3.1211 0.62402-1.123 1.143-2.3266 1.543-3.6016 0.4-1.2625 0.66367-2.5357 0.79687-3.8066s0.13672-2.5391 0.01953-3.7852c-0.06469-0.68793-0.25349-1.347-0.39062-2.0195-1.0676 0.03093-2.14 0.09558-3.2246 0.3125-10.4 2-17.301 12.1-15.201 22.6 0.0072 0.03763 0.02575 0.06989 0.0332 0.10742z" fill="#29594c"/>
  <path d="m28.875 26.171c-0.14927 0.30508-0.35321 0.57943-0.48633 0.89257-0.48453 1.1397-0.86019 2.3312-1.1172 3.5586-0.25699 1.2274-0.39631 2.4904-0.4043 3.7754-0.008 1.285 0.13399 2.5605 0.39649 3.873 0.0072 0.03762 0.03747 0.17926 0.04492 0.21679 0.45209-0.01047 1.0447 0.01083 1.4922-0.03126 1.2461-0.11719 2.3412-0.33242 3.5293-0.68359s2.3426-0.79649 3.4395-1.3652c0.45561-0.23624 0.97414-0.59548 1.4102-0.86718-1.6118-4.0175-4.6528-7.3407-8.2578-9.4434z" fill="#225936"/>
</svg>
