<svg xmlns="http://www.w3.org/2000/svg" version="1.1" y="0px" x="0px" viewBox="0 0 192 65.6">
  <g id="text" fill="#010202" transform="translate(-5.4,-70.3)">
    <path class="st3" d="m119.8 126.8h-0.8c-0.1 0-0.2 0-0.3 0.1s-0.1 0.2-0.1 0.3v8c0 0.1 0 0.2 0.1 0.3s0.2 0.1 0.3 0.1h0.7c0.1 0 0.2 0 0.3-0.1s0.1-0.2 0.1-0.3v-8c0-0.1 0-0.2-0.1-0.3 0-0.1-0.1-0.1-0.2-0.1z"/>
    <path class="st3" d="m14.8 123.7h-0.8c-0.1 0-0.2 0-0.3 0.1s-0.1 0.2-0.1 0.3v8.6l-5.7-8.8-0.2-0.2c-0.1 0-0.1-0.1-0.3-0.1h-0.6c-0.1 0-0.2 0-0.3 0.1s-0.1 0.2-0.1 0.3v11.1c0 0.1 0 0.2 0.1 0.3s0.2 0.1 0.3 0.1h0.8c0.1 0 0.2 0 0.3-0.1s0.1-0.2 0.1-0.3v-8.5l5.7 8.7c0.1 0.2 0.2 0.2 0.4 0.2h0.8c0.1 0 0.2 0 0.3-0.1s0.1-0.2 0.1-0.3v-11.1c0-0.1 0-0.2-0.1-0.3z"/>
    <path class="st3" d="m119.9 123.4h-1c-0.1 0-0.2 0-0.3 0.1s-0.1 0.2-0.1 0.3v0.9c0 0.1 0 0.2 0.1 0.3s0.2 0.1 0.3 0.1h1c0.1 0 0.2 0 0.3-0.1s0.1-0.2 0.1-0.3v-0.9c0-0.1 0-0.2-0.1-0.3s-0.2-0.1-0.3-0.1z"/>
    <path class="st3" d="m111 126.6c-0.7 0-1.2 0.1-1.7 0.3-0.4 0.2-0.8 0.5-1.2 1v-0.7c0-0.1 0-0.2-0.1-0.3s-0.2-0.1-0.3-0.1h-0.7c-0.1 0-0.2 0-0.3 0.1s-0.1 0.2-0.1 0.3v8c0 0.1 0 0.2 0.1 0.3s0.2 0.1 0.3 0.1h0.8c0.1 0 0.2 0 0.3-0.1s0.1-0.2 0.1-0.3v-4.7c0-0.8 0.2-1.4 0.6-1.9s1-0.7 1.7-0.7 1.3 0.2 1.7 0.7 0.6 1.1 0.6 1.9v4.7c0 0.1 0 0.2 0.1 0.3s0.2 0.1 0.3 0.1h0.8c0.1 0 0.2 0 0.3-0.1s0.1-0.2 0.1-0.3v-4.8c0-1.1-0.3-2.1-0.9-2.8-0.5-0.7-1.4-1-2.5-1z"/>
    <path class="st3" d="m46.1 126.8h-0.8c-0.1 0-0.2 0-0.3 0.1s-0.1 0.2-0.1 0.3v4.7c0 0.8-0.2 1.4-0.6 1.9s-1 0.7-1.7 0.7c-1.5 0-2.2-0.9-2.2-2.6v-4.7c0-0.1 0-0.2-0.1-0.3s-0.2-0.1-0.3-0.1h-0.8c-0.1 0-0.2 0-0.3 0.1s-0.1 0.2-0.1 0.3v4.8c0 1.2 0.3 2.1 0.9 2.8s1.4 1 2.5 1c0.7 0 1.2-0.1 1.7-0.3 0.4-0.2 0.8-0.6 1.2-1v0.8c0 0.1 0 0.2 0.1 0.3s0.2 0.1 0.3 0.1h0.7c0.1 0 0.2 0 0.3-0.1s0.1-0.2 0.1-0.3v-8c0-0.1 0-0.2-0.1-0.3-0.2-0.2-0.3-0.2-0.4-0.2z"/>
    <path class="st3" d="m55.3 126.8h-0.7c-1.1 0-1.9 0.4-2.4 1.2v-0.7c0-0.1 0-0.2-0.1-0.3s-0.2-0.1-0.3-0.1h-0.7c-0.1 0-0.2 0-0.3 0.1s-0.1 0.2-0.1 0.3v8c0 0.1 0 0.2 0.1 0.3s0.2 0.1 0.3 0.1h0.8c0.1 0 0.2 0 0.3-0.1s0.1-0.2 0.1-0.3v-5c0-0.6 0.2-1.1 0.5-1.5 0.4-0.4 0.8-0.5 1.5-0.5h1c0.1 0 0.2 0 0.3-0.1s0.1-0.2 0.1-0.3v-0.6c0-0.1 0-0.2-0.1-0.3-0.1-0.2-0.2-0.2-0.3-0.2z"/>
    <path class="st3" d="m35.1 134.2h-1c-0.5 0-0.8-0.1-1-0.4s-0.3-0.7-0.3-1.3v-4.4h2.2c0.1 0 0.2 0 0.3-0.1s0.1-0.2 0.1-0.3v-0.5c0-0.1 0-0.2-0.1-0.3s-0.2-0.1-0.3-0.1h-2.1v-2.8c0-0.1 0-0.2-0.1-0.3s-0.2-0.1-0.3-0.1h-0.7c-0.1 0-0.2 0-0.3 0.1s-0.1 0.2-0.1 0.3v2.8h-1.4c-0.1 0-0.2 0-0.3 0.1s-0.1 0.2-0.1 0.3v0.5c0 0.1 0 0.2 0.1 0.3s0.2 0.1 0.3 0.1h1.3v4.5c0 2 0.9 3 2.6 3h1.2c0.1 0 0.2 0 0.3-0.1s0.1-0.2 0.1-0.3v-0.6c0-0.1 0-0.2-0.1-0.3-0.1 0-0.2-0.1-0.3-0.1z"/>
    <path class="st3" d="m23 126.6c-0.7 0-1.4 0.1-1.9 0.4s-0.9 0.6-1.1 0.9-0.4 0.6-0.4 0.9c0 0.1 0 0.2 0.1 0.3s0.2 0.1 0.3 0.1h0.7c0.1 0 0.2 0 0.2-0.1 0.1 0 0.1-0.1 0.1-0.2 0.1-0.3 0.4-0.5 0.7-0.7s0.7-0.3 1.3-0.3c1.3 0 2 0.6 2 1.7v0.5l-2.5 0.4c-1.1 0.2-1.9 0.5-2.5 1s-0.9 1.1-0.9 1.8c0 0.5 0.1 0.9 0.4 1.3s0.7 0.7 1.1 0.9c0.5 0.2 1 0.3 1.5 0.3 0.7 0 1.4-0.1 1.8-0.4 0.5-0.2 0.8-0.6 1.1-0.9v0.7c0 0.1 0 0.2 0.1 0.3s0.2 0.1 0.3 0.1h0.7c0.1 0 0.2 0 0.3-0.1s0.1-0.2 0.1-0.3v-5.5c0-0.9-0.3-1.6-0.8-2.2-0.6-0.6-1.5-0.9-2.7-0.9zm2 5.1c0 0.9-0.2 1.6-0.7 2.1s-1.1 0.7-1.8 0.7c-0.5 0-1-0.1-1.4-0.4-0.4-0.2-0.6-0.6-0.6-1.1 0-0.4 0.2-0.7 0.6-1s1-0.5 1.9-0.6l2-0.3z"/>
    <path class="st3" d="m128.1 130.6c-0.7-0.1-1.2-0.3-1.6-0.4s-0.6-0.3-0.7-0.5-0.2-0.4-0.2-0.6c0-0.4 0.1-0.7 0.4-0.9s0.7-0.3 1.3-0.3c0.4 0 0.7 0 0.9 0.1l0.6 0.3 0.5 0.5c0.1 0.1 0.2 0.2 0.3 0.2h0.6c0.1 0 0.2 0 0.3-0.1s0.1-0.2 0.1-0.3c0-0.2-0.1-0.5-0.4-0.8s-0.6-0.6-1.1-0.8-1.1-0.4-1.8-0.4-1.3 0.1-1.8 0.4c-0.5 0.2-0.9 0.6-1.1 1s-0.4 0.8-0.4 1.2c0 0.6 0.2 1.2 0.6 1.6s1.1 0.7 2.1 0.9c0.7 0.2 1.3 0.3 1.6 0.4 0.4 0.1 0.6 0.3 0.8 0.5s0.2 0.4 0.2 0.7c0 0.4-0.2 0.8-0.6 1s-0.9 0.3-1.5 0.3c-0.5 0-1-0.1-1.3-0.3s-0.6-0.4-0.9-0.7l-0.2-0.2h-0.9c-0.1 0-0.2 0-0.3 0.1s-0.1 0.1-0.1 0.3 0.1 0.5 0.4 0.8 0.7 0.6 1.2 0.9 1.2 0.4 2 0.4 1.4-0.1 2-0.3c0.5-0.2 1-0.5 1.2-0.9 0.3-0.4 0.4-0.8 0.4-1.3 0-0.7-0.2-1.2-0.7-1.6-0.1-0.7-0.9-1-1.9-1.2z"/>
    <path class="st3" d="m138.4 130.6c-0.7-0.1-1.2-0.3-1.6-0.4s-0.6-0.3-0.7-0.5-0.2-0.4-0.2-0.6c0-0.4 0.1-0.7 0.4-0.9s0.7-0.3 1.3-0.3c0.4 0 0.7 0 0.9 0.1l0.6 0.3 0.5 0.5c0.1 0.1 0.2 0.2 0.3 0.2h0.6c0.1 0 0.2 0 0.3-0.1s0.1-0.2 0.1-0.3c0-0.2-0.1-0.5-0.4-0.8s-0.6-0.6-1.1-0.8-1.1-0.4-1.8-0.4-1.3 0.1-1.8 0.4c-0.5 0.2-0.9 0.6-1.1 1s-0.4 0.8-0.4 1.2c0 0.6 0.2 1.2 0.6 1.6s1.1 0.7 2.1 0.9c0.7 0.2 1.3 0.3 1.6 0.4 0.4 0.1 0.6 0.3 0.8 0.5s0.2 0.4 0.2 0.7c0 0.4-0.2 0.8-0.6 1s-0.9 0.3-1.5 0.3c-0.5 0-1-0.1-1.3-0.3s-0.6-0.4-0.9-0.7l-0.2-0.2h-0.9c-0.1 0-0.2 0-0.3 0.1s-0.1 0.1-0.1 0.3 0.1 0.5 0.4 0.8 0.7 0.6 1.2 0.9 1.2 0.4 2 0.4 1.4-0.1 2-0.3c0.5-0.2 1-0.5 1.2-0.9 0.3-0.4 0.4-0.8 0.4-1.3 0-0.7-0.2-1.2-0.7-1.6-0.1-0.7-0.8-1-1.9-1.2z"/>
    <path class="st3" d="m87.2 126.6c-1.2 0-2.1 0.4-2.8 1.1s-1.1 1.7-1.1 2.9v1.2c0.1 1.2 0.4 2.2 1.1 2.9s1.6 1.1 2.8 1.1c0.7 0 1.4-0.1 1.9-0.4 0.6-0.3 1-0.6 1.3-0.9 0.3-0.4 0.5-0.7 0.5-0.9 0-0.1 0-0.2-0.1-0.2-0.1-0.1-0.2-0.1-0.3-0.1h-1c-0.1 0-0.1 0.1-0.2 0.2-0.2 0.2-0.4 0.4-0.8 0.7-0.3 0.2-0.8 0.3-1.3 0.3-0.7 0-1.2-0.3-1.7-0.8-0.4-0.5-0.6-1.1-0.7-1.9v-0.2h5.9c0.1 0 0.2 0 0.3-0.1s0.1-0.2 0.1-0.3v-0.2c0-1.4-0.3-2.4-1-3.2s-1.7-1.2-2.9-1.2zm2.4 3.9h-4.7v-0.1c0-0.8 0.2-1.4 0.6-1.9s1-0.7 1.7-0.7 1.3 0.2 1.7 0.7c0.5 0.5 0.7 1.2 0.7 2z"/>
    <path class="st3" d="m148.5 126.6c-1.2 0-2.1 0.4-2.8 1.1s-1.1 1.7-1.1 2.9v1.2c0.1 1.2 0.4 2.2 1.1 2.9s1.6 1.1 2.8 1.1c0.7 0 1.4-0.1 1.9-0.4 0.6-0.3 1-0.6 1.3-0.9 0.3-0.4 0.5-0.7 0.5-0.9 0-0.1 0-0.2-0.1-0.2-0.1-0.1-0.2-0.1-0.3-0.1h-1c-0.1 0-0.1 0.1-0.2 0.2-0.2 0.2-0.4 0.4-0.8 0.7-0.3 0.2-0.8 0.3-1.3 0.3-0.7 0-1.2-0.3-1.7-0.8-0.4-0.5-0.6-1.1-0.7-1.9v-0.2h5.9c0.1 0 0.2 0 0.3-0.1s0.1-0.2 0.1-0.3v-0.2c0-1.4-0.3-2.4-1-3.2s-1.6-1.2-2.9-1.2zm2.4 3.9h-4.7v-0.1c0-0.8 0.2-1.4 0.6-1.9s1-0.7 1.7-0.7 1.3 0.2 1.7 0.7c0.5 0.5 0.7 1.2 0.7 2z"/>
    <path class="st3" d="m74.4 126.8h-0.7c-1.1 0-1.9 0.4-2.4 1.2v-0.7c0-0.1 0-0.2-0.1-0.3s-0.2-0.1-0.3-0.1h-0.7c-0.1 0-0.2 0-0.3 0.1s-0.1 0.2-0.1 0.3v8c0 0.1 0 0.2 0.1 0.3s0.2 0.1 0.3 0.1h0.8c0.1 0 0.2 0 0.3-0.1s0.1-0.2 0.1-0.3v-5c0-0.6 0.2-1.1 0.5-1.5 0.4-0.4 0.8-0.5 1.5-0.5h1c0.1 0 0.2 0 0.3-0.1s0.1-0.2 0.1-0.3v-0.6c0-0.1 0-0.2-0.1-0.3-0.1-0.2-0.2-0.2-0.3-0.2z"/>
    <path class="st3" d="m79.1 123.5h-0.7c-0.1 0-0.2 0-0.3 0.1s-0.1 0.2-0.1 0.3v11.3c0 0.1 0 0.2 0.1 0.3s0.2 0.1 0.3 0.1h0.7c0.1 0 0.2 0 0.3-0.1s0.1-0.2 0.1-0.3v-11.3c0-0.1 0-0.2-0.1-0.3-0.1 0-0.2-0.1-0.3-0.1z"/>
    <path class="st3" d="m62.2 126.6c-1.2 0-2.1 0.4-2.8 1.1s-1.1 1.7-1.1 2.9v1.2c0.1 1.2 0.4 2.2 1.1 2.9s1.6 1.1 2.8 1.1c0.7 0 1.4-0.1 1.9-0.4 0.6-0.3 1-0.6 1.3-0.9 0.3-0.4 0.5-0.7 0.5-0.9 0-0.1 0-0.2-0.1-0.2-0.1-0.1-0.2-0.1-0.3-0.1h-1c-0.1 0-0.1 0.1-0.2 0.2-0.2 0.2-0.4 0.4-0.8 0.7-0.3 0.2-0.8 0.3-1.3 0.3-0.7 0-1.2-0.3-1.7-0.8-0.4-0.5-0.6-1.1-0.7-1.9v-0.2h5.9c0.1 0 0.2 0 0.3-0.1s0.1-0.2 0.1-0.3v-0.2c0-1.4-0.3-2.4-1-3.2s-1.7-1.2-2.9-1.2zm2.3 3.9h-4.7v-0.1c0-0.8 0.2-1.4 0.6-1.9s1-0.7 1.7-0.7 1.3 0.2 1.7 0.7c0.5 0.5 0.7 1.2 0.7 2z"/>
    <path class="st3" d="m101.9 127.7c-0.6-0.8-1.5-1.2-2.7-1.2s-2.1 0.4-2.7 1.3v-3.9c0-0.1 0-0.2-0.1-0.3s-0.2-0.1-0.3-0.1h-0.8c-0.1 0-0.2 0-0.3 0.1s-0.1 0.2-0.1 0.3v11.3c0 0.1 0 0.2 0.1 0.3s0.2 0.1 0.3 0.1h0.7c0.1 0 0.2 0 0.3-0.1s0.1-0.2 0.1-0.3v-0.7c0.6 0.9 1.6 1.3 2.8 1.3s2.1-0.4 2.7-1.2 0.9-1.7 0.9-2.9v-0.5-0.5c0-1.2-0.3-2.2-0.9-3zm-0.6 4c0 0.8-0.2 1.5-0.6 2s-1 0.8-1.8 0.8-1.4-0.3-1.8-0.8-0.6-1.2-0.6-1.9v-1.3c0-0.7 0.2-1.3 0.7-1.8 0.4-0.5 1-0.8 1.8-0.8 1.6 0 2.4 1.1 2.4 3.3-0.1 0.2-0.1 0.3-0.1 0.5z"/>
    <path class="st3" d="m26.1 106c-0.7-0.7-1.6-1.1-2.9-1.1-1.2 0-2.2 0.4-2.9 1.1s-1 1.6-1.1 2.8v1.4c0 1.2 0.4 2.1 1.1 2.8s1.6 1.1 2.9 1.1c1.2 0 2.2-0.4 2.9-1.1s1-1.6 1.1-2.8v-0.7-0.7c-0.1-1.1-0.4-2.1-1.1-2.8zm-0.5 4.2c0 0.9-0.3 1.5-0.7 2s-1 0.7-1.7 0.7-1.3-0.2-1.7-0.7-0.7-1.1-0.7-2v-1.2c0-0.9 0.3-1.5 0.7-2s1-0.7 1.7-0.7 1.3 0.2 1.7 0.7 0.7 1.1 0.7 2v0.6 0.6z"/>
    <path class="st3" d="m35.6 105.1h-0.7c-1.1 0-1.9 0.4-2.4 1.2v-0.7c0-0.1 0-0.2-0.1-0.3s-0.2-0.1-0.3-0.1h-0.7c-0.1 0-0.2 0-0.3 0.1s-0.1 0.2-0.1 0.3v8c0 0.1 0 0.2 0.1 0.3s0.2 0.1 0.3 0.1h0.8c0.1 0 0.2 0 0.3-0.1s0.1-0.2 0.1-0.3v-5c0-0.6 0.2-1.1 0.5-1.5 0.4-0.4 0.8-0.5 1.5-0.5h1c0.1 0 0.2 0 0.3-0.1s0.1-0.2 0.1-0.3v-0.6c0-0.1 0-0.2-0.1-0.3s-0.2-0.2-0.3-0.2z"/>
    <path class="st3" d="m75.7 105c-1.2 0-2.1 0.4-2.8 1.1s-1.1 1.7-1.1 2.9v1.2c0.1 1.2 0.4 2.2 1.1 2.9s1.6 1.1 2.8 1.1c0.7 0 1.4-0.1 1.9-0.4 0.6-0.3 1-0.6 1.3-0.9 0.3-0.4 0.5-0.7 0.5-0.9 0-0.1 0-0.2-0.1-0.2-0.1-0.1-0.2-0.1-0.3-0.1h-1c-0.1 0-0.1 0.1-0.2 0.2-0.2 0.2-0.4 0.4-0.8 0.7-0.3 0.2-0.8 0.3-1.3 0.3-0.7 0-1.2-0.3-1.7-0.8-0.4-0.5-0.6-1.1-0.7-1.9v-0.2h5.9c0.1 0 0.2 0 0.3-0.1s0.1-0.2 0.1-0.3v-0.3c0-1.4-0.3-2.4-1-3.2-0.7-0.7-1.6-1.1-2.9-1.1zm2.4 3.9h-4.7v-0.1c0-0.8 0.2-1.4 0.6-1.9s1-0.7 1.7-0.7 1.3 0.2 1.7 0.7c0.5 0.5 0.7 1.2 0.7 2z"/>
    <path class="st3" d="m64.5 105c-1.2 0-2.1 0.4-2.8 1.1s-1.1 1.7-1.1 2.9v1.2c0.1 1.2 0.4 2.2 1.1 2.9s1.6 1.1 2.8 1.1c0.7 0 1.4-0.1 1.9-0.4 0.6-0.3 1-0.6 1.3-0.9 0.3-0.4 0.5-0.7 0.5-0.9 0-0.1 0-0.2-0.1-0.2-0.1-0.1-0.2-0.1-0.3-0.1h-1c-0.1 0-0.1 0.1-0.2 0.2-0.2 0.2-0.4 0.4-0.8 0.7-0.3 0.2-0.8 0.3-1.3 0.3-0.7 0-1.2-0.3-1.7-0.8-0.4-0.5-0.6-1.1-0.7-1.9v-0.2h5.9c0.1 0 0.2 0 0.3-0.1s0.1-0.2 0.1-0.3v-0.3c0-1.4-0.3-2.4-1-3.2-0.7-0.7-1.6-1.1-2.9-1.1zm2.4 3.9h-4.7v-0.1c0-0.8 0.2-1.4 0.6-1.9s1-0.7 1.7-0.7 1.3 0.2 1.7 0.7c0.5 0.5 0.7 1.2 0.7 2z"/>
    <path class="st3" d="m42.2 114.1c1.2 0 2.2-0.4 2.8-1.3v0.7c0 0.1 0 0.2 0.1 0.3s0.2 0.1 0.3 0.1h0.7c0.1 0 0.2 0 0.3-0.1s0.1-0.2 0.1-0.3v-11.3c0-0.1 0-0.2-0.1-0.3s-0.2-0.1-0.3-0.1h-0.8c-0.1 0-0.2 0-0.3 0.1s-0.1 0.2-0.1 0.3v3.9c-0.7-0.8-1.6-1.3-2.7-1.3-1.2 0-2.1 0.4-2.7 1.2s-0.9 1.7-1 2.9v1c0 1.2 0.4 2.1 1 2.9 0.6 1 1.5 1.3 2.7 1.3zm-2.1-5c0-0.8 0.2-1.5 0.6-2s1-0.8 1.8-0.8 1.4 0.3 1.8 0.8 0.6 1.1 0.7 1.8v1.3c0 0.7-0.2 1.4-0.6 1.9s-1 0.8-1.8 0.8c-1.6 0-2.4-1.1-2.4-3.3z"/>
    <path class="st3" d="m14.8 102.1h-0.8c-0.1 0-0.2 0-0.3 0.1s-0.1 0.2-0.1 0.3v8.6l-5.7-8.8-0.2-0.2c-0.1 0-0.1-0.1-0.3-0.1h-0.6c-0.1 0-0.2 0-0.3 0.1s-0.1 0.2-0.1 0.3v11.1c0 0.1 0 0.2 0.1 0.3s0.2 0.1 0.3 0.1h0.8c0.1 0 0.2 0 0.3-0.1s0.1-0.2 0.1-0.3v-8.5l5.7 8.7c0.1 0.2 0.2 0.2 0.4 0.2h0.8c0.1 0 0.2 0 0.3-0.1s0.1-0.2 0.1-0.3v-11.1c0-0.1 0-0.2-0.1-0.3z"/>
    <path class="st3" d="m54.4 109c-0.7-0.1-1.2-0.3-1.6-0.4s-0.6-0.3-0.7-0.5-0.2-0.4-0.2-0.6c0-0.4 0.1-0.7 0.4-0.9s0.7-0.3 1.3-0.3c0.4 0 0.7 0 0.9 0.1l0.6 0.3 0.5 0.5c0.1 0.1 0.2 0.2 0.3 0.2h0.6c0.1 0 0.2 0 0.3-0.1s0.1-0.2 0.1-0.3c0-0.2-0.1-0.5-0.4-0.8s-0.6-0.6-1.1-0.8-1.1-0.4-1.8-0.4-1.3 0.1-1.8 0.4c-0.5 0.2-0.9 0.6-1.1 1s-0.4 0.8-0.4 1.2c0 0.6 0.2 1.2 0.6 1.6s1.1 0.7 2.1 0.9c0.7 0.2 1.3 0.3 1.6 0.4 0.4 0.1 0.6 0.3 0.8 0.5s0.2 0.4 0.2 0.7c0 0.4-0.2 0.8-0.6 1s-0.9 0.3-1.5 0.3c-0.5 0-1-0.1-1.3-0.3s-0.6-0.4-0.9-0.7l-0.2-0.2h-0.9c-0.1 0-0.2 0-0.3 0.1s-0.1 0.1-0.1 0.3 0.1 0.5 0.4 0.8 0.7 0.6 1.2 0.9 1.2 0.4 2 0.4 1.4-0.1 2-0.3c0.5-0.2 1-0.5 1.2-0.9 0.3-0.4 0.4-0.8 0.4-1.3 0-0.7-0.2-1.2-0.7-1.6-0.1-0.7-0.8-1-1.9-1.2z"/>
    <path class="st3" d="m63.1 83.5c0.6 0 1.1 0 1.7-0.1 0.5 0 1-0.1 1.4-0.2 0.3-0.1 0.6-0.1 1-0.2 0.3-0.1 0.7-0.1 1.2-0.1s1-0.1 1.6-0.1h0.9l0.4-1.3c-0.1-0.1-0.3-0.2-0.6-0.2-0.3-0.1-0.6-0.1-0.9-0.2-0.3 0-0.7-0.1-1.1-0.1h-1.2c-0.5 0-0.9 0-1.3 0.1-0.4 0-0.7 0.1-1 0.1-0.2 0.1-0.6 0.1-1 0.2s-0.9 0.1-1.3 0.2c-0.5 0.1-0.9 0.1-1.4 0.1h-1.7c-0.2 0-0.3 0-0.4-0.1l-0.1 1.4c0.3 0.1 0.8 0.2 1.5 0.2 0.7 0.2 1.4 0.3 2.3 0.3z"/>
    <path class="st3" d="m51.3 91.6c0-0.1 0.1-0.1 0 0 0.4 0 0.8-0.2 1.4-0.6s1.2-0.8 1.8-1.3 1.2-1 1.7-1.4c0.5-0.5 0.9-0.8 1-1l-0.9-1.7c-0.2 0.2-0.5 0.6-1 1s-1 0.9-1.5 1.3-1.1 0.8-1.7 1.1-1.1 0.5-1.5 0.5c-0.2 0-0.3 0-0.4-0.1-0.1 0-0.2-0.2-0.3-0.4s-0.1-0.5-0.1-0.9c0-0.5 0-1 0.1-1.7 0.1-0.6 0.2-1.3 0.4-2.1 0.2-0.7 0.3-1.5 0.5-2.3l0.6-2.4c0.2 0 0.4 0.1 0.6 0.1 0.8 0.2 1.5 0.3 2.2 0.5 0.7 0.1 1.3 0.2 1.8 0.2h0.6l-0.3-1.9c-0.3 0.1-0.6 0.2-0.9 0.2-0.5 0-1.1-0.1-1.7-0.2-0.6-0.2-1.2-0.3-1.7-0.4 0.4-1.2 0.7-2.2 1-3 0.3-0.9 0.6-1.4 0.8-1.7l-2.4-0.1c-0.2 0.4-0.4 0.9-0.7 1.8-0.3 0.8-0.6 1.8-0.9 2.9-0.7 0-1.4 0.1-2 0.2s-1.3 0.3-2 0.4v0.2c-0.3 0-0.5-0.1-0.8-0.2-0.6-0.2-1.2-0.3-1.7-0.4 0.4-1.2 0.7-2.2 1-3 0.3-0.9 0.6-1.4 0.8-1.7l-2.4-0.1c-0.2 0.4-0.4 0.9-0.7 1.8-0.3 0.8-0.6 1.8-0.9 2.9-0.7 0-1.4 0.1-2 0.2s-1.3 0.3-2 0.4l0.2 1.9c0.2 0 0.6-0.1 1.2-0.3 0.5-0.2 1.2-0.3 2.1-0.4-0.3 1-0.5 1.9-0.8 2.9s-0.5 1.9-0.7 2.7c-0.1 0.3-0.1 0.6-0.2 0.8v-0.2c-0.3 0.3-0.7 0.7-1.2 1.1l-1.5 1.2c-0.5 0.4-1.1 0.7-1.6 1.1-0.6 0.3-1 0.6-1.5 0.7v-0.9c0-0.4 0-0.8 0.1-1.3s0.1-1 0.3-1.5l0.1-0.1v-0.1c0.2-1.1 0.5-2.3 0.9-3.5s0.8-2.4 1.3-3.6l-1.7-0.3c-0.1 0.1-0.1 0.3-0.2 0.5-0.1-0.2-0.2-0.3-0.3-0.5s-0.3-0.4-0.5-0.5c-0.2-0.2-0.5-0.3-0.8-0.4s-0.6-0.2-1-0.2h-0.4c-0.3 0.1-0.7 0.2-1.1 0.5s-0.8 0.7-1.2 1.1l-1.2 1.5c-0.1 0.2-0.2 0.4-0.4 0.5s-0.4 0.3-0.6 0.4c-0.6 0.4-1.2 0.7-1.9 1-0.6 0.3-1.2 0.6-1.8 0.8s-1 0.3-1.4 0.4c0.3-0.6 0.5-1.1 0.8-1.6 0.2-0.5 0.4-1 0.6-1.4s0.3-0.8 0.4-1c0.1-0.3 0.1-0.5 0.1-0.6 0-0.2-0.1-0.3-0.3-0.5-0.2-0.1-0.4-0.3-0.7-0.3-0.3-0.1-0.5-0.2-0.8-0.2-0.3-0.1-0.6-0.1-0.8-0.1-0.4 0-0.6 0-0.8 0.1-0.1 0.1-0.3 0.3-0.4 0.6-0.2 0.3-0.3 0.7-0.4 1.1s-0.3 0.9-0.3 1.3c-0.1 0.5-0.1 0.9-0.1 1.2v0.3c0 0.3 0.2 0.6 0.4 1-0.2 0.5-0.5 0.9-0.7 1.5-0.3 0.5-0.6 1-0.9 1.5s-0.7 1-1.1 1.5-0.8 0.9-1.2 1.2c-0.2-0.2-0.4-0.5-0.6-0.8s-0.3-0.7-0.4-1.1l-0.3-1.2c-0.1-0.4-0.1-0.8-0.2-1.1 0.4-0.7 0.7-1.4 1-2.1s0.6-1.3 0.8-1.9 0.4-1.1 0.6-1.5c0.1-0.4 0.2-0.7 0.2-0.9v-0.1c-0.1-0.3-0.3-0.5-0.6-0.7s-0.6-0.3-1-0.3c-0.3 0-0.7 0.1-1.1 0.2-0.2 0.1-0.3 0.2-0.5 0.6-0.1 0.3-0.2 0.7-0.3 1.2s-0.1 1.1-0.2 1.7-0.1 1.3-0.1 2c-0.3 0.7-0.6 1.3-1 2-0.4 0.6-0.7 1.2-1.1 1.8-0.4 0.5-0.8 1-1.2 1.4s-0.8 0.7-1.2 1c-0.2-0.2-0.3-0.5-0.3-0.9-0.1-0.4-0.1-0.7-0.1-1.2 0-0.8 0.1-1.6 0.3-2.5s0.4-1.8 0.7-2.6 0.5-1.6 0.8-2.2c0.3-0.7 0.5-1.1 0.6-1.4l-1.9-1.2c-0.2 0.2-0.5 0.5-0.7 0.9-0.2 0.5-0.4 1-0.6 1.7-0.2 0.6-0.4 1.3-0.5 2.1-0.2 0.8-0.3 1.5-0.4 2.2s-0.2 1.4-0.3 2-0.1 1.1-0.1 1.4v-0.1c0 0.4 0.1 0.8 0.3 1.2 0.1 0.4 0.3 0.8 0.7 1.1 0.3 0.3 0.7 0.6 1.1 0.7 0.4 0.2 0.8 0.3 1.3 0.3 0.3 0 0.6-0.1 0.9-0.2s0.7-0.5 1.2-1.2 1-1.4 1.5-2.4c0 0.7 0 1.3 0.1 1.8 0 0.5 0 0.8 0.1 1 0 0.4 0.3 0.6 0.7 0.8s0.9 0.2 1.5 0.2c0.3 0 0.6 0 1-0.1 0.3-0.1 0.7-0.1 1-0.2 0.2-0.1 0.4-0.3 0.7-0.6 0.3-0.4 0.6-0.8 1-1.3s0.7-1.1 1.1-1.8 0.7-1.4 1.1-2.1c0.4 0.2 0.9 0.4 1.3 0.4h0.3c0.4-0.1 0.8-0.2 1.4-0.4 0.5-0.2 1-0.5 1.5-0.7-0.2 0.3-0.3 0.6-0.4 0.9-0.2 0.6-0.3 1.2-0.3 1.9 0 0.5 0.1 0.9 0.2 1.4s0.3 0.9 0.4 1.2c0.2 0.4 0.4 0.7 0.7 0.9 0.3 0.3 0.6 0.4 0.9 0.5h0.3c0.6 0 1.2-0.2 2-0.7 0.7-0.5 1.5-1.1 2.2-1.8 0 0.3 0 0.5-0.1 0.7v0.6c0 0.2 0.1 0.5 0.3 0.7s0.5 0.4 0.8 0.5 0.7 0.3 1.1 0.4 0.7 0.1 1.1 0.1h0.1c0.3 0 0.7-0.2 1.2-0.5s1-0.7 1.4-1.2l1.4-1.4c0.1-0.1 0.1-0.2 0.2-0.3v0.5c0 0.4 0.2 0.7 0.5 1.1 0.3 0.3 0.7 0.6 1.1 0.9 0.4 0.2 0.9 0.4 1.3 0.6 0.4 0.1 0.8 0.2 1.1 0.2h0.2c0.3 0 0.7-0.2 1.3-0.6s1.2-0.8 1.8-1.3c0.5-0.4 1-0.8 1.4-1.2v0.4c0 0.4 0.2 0.7 0.5 1.1 0.3 0.3 0.7 0.6 1.1 0.9 0.4 0.2 0.9 0.4 1.3 0.6 0.2-0.1 0.6 0 1 0zm-37.3-11.4c0.1-0.3 0.3-0.6 0.4-0.8 0 0.4-0.1 0.8-0.2 1.2s-0.2 0.7-0.3 1c-0.1-0.2-0.1-0.3-0.1-0.5 0-0.3 0-0.6 0.2-0.9zm6.5 0.5c-0.2 0.5-0.4 0.9-0.6 1.2v-0.2c0-0.2 0-0.4 0.1-0.6s0.2-0.5 0.3-0.7 0.2-0.4 0.4-0.6c0.1-0.2 0.2-0.4 0.3-0.5-0.1 0.4-0.3 0.8-0.5 1.4zm10.9 5.1c-0.4 0.4-0.7 0.8-1.1 1.3l-1.1 1.1c-0.4 0.3-0.7 0.6-1 0.8s-0.6 0.3-0.8 0.3h-0.1c-0.4 0-0.6-0.2-0.7-0.5s-0.2-0.7-0.2-1.2c0-0.2 0-0.5 0.1-0.7 0-0.3 0.1-0.5 0.1-0.7s0.2-0.6 0.4-1 0.5-0.9 0.8-1.3c0.3-0.5 0.6-1 1-1.4 0.4-0.5 0.7-0.9 1-1.3s0.6-0.7 0.8-1 0.4-0.4 0.5-0.5 0.1-0.1 0.2-0.1 0.3 0.1 0.4 0.2c0.2 0.1 0.3 0.2 0.5 0.4s0.3 0.4 0.4 0.6 0.2 0.5 0.3 0.7l0.4-0.7c-0.4 1-0.7 2-1 2.9-0.4 0.7-0.7 1.5-0.9 2.1zm17.1-3.3c-0.3 1-0.5 1.9-0.7 2.7 0 0.2-0.1 0.3-0.1 0.5l-0.1-0.2c-0.2 0.2-0.5 0.6-1 1s-1 0.9-1.5 1.3-1.1 0.8-1.7 1.1-1.1 0.5-1.5 0.5c-0.2 0-0.3 0-0.4-0.1-0.1 0-0.2-0.2-0.3-0.4s-0.1-0.5-0.1-0.9c0-0.5 0-1 0.1-1.7 0.1-0.6 0.2-1.3 0.4-2.1 0.2-0.7 0.3-1.5 0.5-2.3l0.6-2.4c0.2 0 0.4 0.1 0.6 0.1 0.8 0.2 1.5 0.3 2.2 0.5 0.2 0 0.3 0 0.5 0.1h0.1c0.5 0.1 0.9 0.1 1.3 0.1h0.6l-0.1-0.5c0.4-0.1 0.9-0.2 1.4-0.2-0.3 1-0.6 1.9-0.8 2.9z"/>
    <path class="st3" d="m196 86.7c-0.2 0.1-0.5 0.3-1 0.6-0.4 0.2-0.9 0.5-1.4 0.7-0.5 0.3-1.1 0.6-1.7 0.9 0 0 0-0.1 0.1-0.2s0.1-0.3 0.2-0.4 0.1-0.3 0.2-0.4 0.1-0.2 0.1-0.2c0.1-0.2 0.2-0.4 0.2-0.7s0.1-0.5 0.1-0.8c0-0.5-0.1-1-0.2-1.5s-0.3-1-0.6-1.5c-0.1-0.2-0.2-0.3-0.4-0.6-0.2-0.2-0.4-0.5-0.6-0.7-0.2-0.3-0.3-0.5-0.5-0.8s-0.2-0.5-0.2-0.8c0-0.1 0-0.2 0.1-0.3 0.1-0.4 0.2-0.7 0.3-1.1s0.3-0.7 0.4-1v-0.2c0-0.2 0-0.3-0.1-0.5s-0.2-0.4-0.3-0.5c-0.1-0.2-0.2-0.3-0.4-0.4-0.1-0.1-0.2-0.2-0.4-0.2h-0.1c-0.3 0.1-0.6 0.4-0.9 1-0.2 0.5-0.4 1.1-0.5 1.7-0.2 0.4-0.6 0.9-1 1.5s-0.9 1.4-1.4 2.1l-1.5 2.4c-0.5 0.8-1 1.6-1.5 2.3l-0.1 0.1c-0.4 0.2-0.9 0.5-1.3 0.7-0.5 0.3-1.1 0.6-1.7 0.9 0 0 0-0.1 0.1-0.2s0.1-0.3 0.2-0.4 0.1-0.3 0.2-0.4 0.1-0.2 0.1-0.2c0.1-0.2 0.2-0.4 0.2-0.7s0.1-0.5 0.1-0.8c0-0.5-0.1-1-0.2-1.5s-0.3-1-0.6-1.5c-0.1-0.2-0.2-0.3-0.4-0.6-0.2-0.2-0.4-0.5-0.6-0.7-0.2-0.3-0.3-0.5-0.5-0.8s-0.2-0.5-0.2-0.8c0-0.1 0-0.2 0.1-0.3 0.1-0.4 0.2-0.7 0.3-1.1s0.3-0.7 0.4-1v-0.2c0-0.2 0-0.3-0.1-0.5s-0.2-0.4-0.3-0.5c-0.1-0.2-0.2-0.3-0.4-0.4-0.1-0.1-0.2-0.2-0.4-0.2h0.1c-0.3 0.1-0.6 0.4-0.9 1-0.2 0.5-0.4 1.1-0.5 1.7-0.2 0.4-0.6 0.9-1 1.5s-0.9 1.4-1.4 2.1l-1.5 2.4c-0.5 0.8-1 1.6-1.5 2.3-0.1 0.1-0.2 0.3-0.3 0.4s-0.2 0.1-0.2 0.2l-1.5 1.2c-0.5 0.4-1 0.7-1.4 0.9-0.2-0.3-0.3-0.7-0.4-1.1s-0.1-0.9-0.1-1.4 0-0.9 0.1-1.4 0.1-0.9 0.2-1.4c0.4-0.5 0.7-1.1 1.1-1.6 0.3-0.5 0.6-1 0.9-1.4s0.5-0.8 0.6-1.1 0.2-0.5 0.2-0.6v-0.1c0-0.2-0.1-0.4-0.2-0.6s-0.3-0.4-0.5-0.5-0.4-0.3-0.7-0.4c-0.2-0.1-0.5-0.1-0.8-0.1-0.4 0-0.8 0.1-1.1 0.4-0.2 0.2-0.4 0.5-0.5 0.9s-0.3 0.8-0.4 1.3-0.2 1-0.3 1.6-0.2 1.2-0.2 1.8c-0.4 0.5-0.8 1.1-1.3 1.6s-1 1-1.4 1.5c-0.5 0.5-1 0.9-1.5 1.3s-0.9 0.7-1.3 0.9c0-0.1 0-0.1-0.1-0.2v-0.8c0-0.3 0-0.8 0.1-1.4s0.2-1.2 0.4-2.1c0.2-0.8 0.5-1.8 0.9-2.9s0.9-2.3 1.5-3.7l-2.5-0.1c-0.7 2-1.2 3.7-1.6 5s-0.7 2.4-0.9 3.2v0.1c-0.3 0.3-0.6 0.6-0.8 0.9-0.4 0.5-0.8 0.9-1.3 1.3-0.4 0.4-0.9 0.7-1.4 1.1-0.5 0.3-1 0.5-1.5 0.7-0.4-0.2-0.6-0.5-0.7-1s-0.2-1-0.2-1.5c0-0.3 0-0.6 0.1-0.9 0-0.3 0.1-0.6 0.1-0.9s0.1-0.5 0.1-0.7 0.1-0.3 0.1-0.4c0.5-0.7 0.9-1.5 1.4-2.4s0.9-1.8 1.3-2.7l1.2-2.7c0.4-0.9 0.7-1.7 0.9-2.5 0.3-0.7 0.5-1.4 0.6-1.9s0.2-0.9 0.2-1.1v0.3c-0.1-0.3-0.3-0.5-0.7-0.8s-0.8-0.4-1.3-0.4c-0.2 0-0.4 0-0.6 0.1s-0.4 0.1-0.6 0.3c-0.6 0.4-1.1 1-1.5 1.8-0.5 0.9-0.9 1.8-1.3 3-0.4 1.1-0.7 2.3-1 3.6s-0.5 2.5-0.7 3.7c-0.2 1.1-0.3 2.2-0.4 3.1-0.3 0.2-0.7 0.4-1.2 0.5-0.5 0.2-1 0.4-1.6 0.6l-1.8 0.6c-0.6 0.2-1.3 0.3-1.9 0.5l-0.6-0.9c0.3-0.2 0.7-0.5 1.1-0.7 0.4-0.3 0.7-0.5 1.1-0.8 0.3-0.3 0.7-0.5 0.9-0.7 0.3-0.2 0.5-0.4 0.6-0.6 0.2-0.2 0.4-0.5 0.6-1s0.5-1.1 0.7-1.7 0.5-1.3 0.7-2 0.5-1.4 0.6-2.1c0.2-0.7 0.3-1.3 0.5-1.8 0.1-0.6 0.2-1 0.2-1.3v-0.1c0-0.4-0.1-0.8-0.2-1.2s-0.2-0.8-0.4-1.2-0.4-0.7-0.7-0.9c-0.3-0.3-0.7-0.4-1.1-0.4-0.2 0-0.4 0-0.6 0.1-0.5 0.1-1 0.4-1.5 0.9s-1 1-1.5 1.7-0.9 1.4-1.4 2.2l-1.2 2.4c-0.4 0.8-0.7 1.5-0.9 2.2-0.3 0.7-0.4 1.2-0.5 1.7-0.1 0.3-0.2 0.8-0.3 1.4s-0.3 1.3-0.4 2.1c-0.2 0.8-0.3 1.7-0.5 2.6s-0.4 1.9-0.5 2.8c-0.2 0.9-0.3 1.9-0.5 2.8s-0.3 1.7-0.4 2.5-0.2 1.4-0.3 2-0.1 1-0.1 1.3v0.1c0 0.3 0.1 0.7 0.3 1l0.6 0.9c0.3 0.3 0.5 0.5 0.9 0.6 0.3 0.2 0.6 0.2 1 0.2s0.7-0.1 1-0.3c0.4-0.3 0.8-0.8 1.2-1.5s0.8-1.5 1.1-2.4c0.4-0.9 0.7-1.8 0.9-2.7 0.3-0.9 0.5-1.8 0.6-2.6 0-0.2 0.1-0.3 0.1-0.5v-0.7c0-0.5-0.1-1-0.2-1.4 0.3-0.1 0.8-0.3 1.4-0.4s1.2-0.3 1.8-0.5 1.2-0.3 1.7-0.5c0.2-0.1 0.5-0.2 0.7-0.2v0.5c0.1 0.4 0.2 0.7 0.5 1s0.6 0.5 1 0.7 0.8 0.3 1.3 0.4 0.9 0.1 1.4 0.1c0.7 0 1.3-0.1 1.8-0.3 0.4-0.2 0.7-0.4 1-0.6s0.5-0.4 0.8-0.7c0.1-0.1 0.1-0.2 0.2-0.2 0 0.1 0 0.1 0.1 0.2 0.1 0.2 0.3 0.4 0.6 0.6 0.2 0.1 0.5 0.3 0.9 0.3 0.3 0.1 0.7 0.1 1 0.1h0.7c0.2 0 0.5-0.1 0.7-0.1 0.4-0.1 0.9-0.5 1.6-1.1 0.7-0.7 1.4-1.5 2.2-2.4v1.8c0 0.5 0.2 0.9 0.4 1.3 0.3 0.4 0.8 0.5 1.5 0.5 0.4 0 0.8-0.1 1.3-0.2 0.3-0.1 0.5-0.2 0.8-0.3l0.9 0.8 1.3-2.2c0.2-0.1 0.3-0.3 0.5-0.5 0.2 0.3 0.4 0.6 0.7 1s0.7 0.8 1 1.1c0.4 0.3 0.7 0.6 1.1 0.8s0.7 0.3 1 0.4h0.1c0.2 0 0.6-0.1 1.1-0.3s1.1-0.4 1.7-0.7 1.3-0.6 2-0.9c0.1 0 0.2-0.1 0.3-0.1-0.1 0.1-0.1 0.2-0.2 0.2l1.3 1.2 1.7-2.8h0.1c0.2 0.4 0.5 0.7 0.8 1.1s0.7 0.8 1 1.1c0.4 0.3 0.7 0.6 1.1 0.8s0.7 0.3 1 0.4h0.1c0.2 0 0.6-0.1 1.1-0.3s1.1-0.4 1.7-0.7 1.3-0.6 2-0.9 1.3-0.6 1.9-0.9 1.1-0.5 1.5-0.8c0.4-0.2 0.7-0.4 0.8-0.4zm-27.8-6.4c0.1-0.3 0.3-0.6 0.6-0.8 0 0.4-0.2 0.8-0.4 1.1s-0.4 0.6-0.5 0.8c0.1-0.4 0.2-0.8 0.3-1.1zm-14.9-0.9 0.6-2.1c0.2-0.7 0.5-1.4 0.8-2s0.6-1.2 1-1.8c-0.1 0.6-0.3 1.2-0.5 1.9s-0.5 1.4-0.7 2.1c-0.3 0.7-0.5 1.4-0.8 2s-0.5 1.2-0.8 1.7c0.1-0.4 0.3-1.1 0.4-1.8zm-12.5 6.1c0.2-0.8 0.5-1.7 0.9-2.7l1.2-3c0.5-1 0.9-2 1.4-2.8 0.5-0.9 1-1.7 1.4-2.3 0.5-0.7 0.9-1.1 1.3-1.4 0.1 0.4 0.1 0.7 0.1 1 0 0.6 0 1.3-0.1 2s-0.2 1.5-0.4 2.2c-0.1 0.7-0.3 1.4-0.5 2s-0.4 1.1-0.5 1.5c-0.2 0.4-0.5 0.9-0.9 1.4s-0.8 1-1.3 1.5-0.9 1-1.4 1.4l-1.2 1.2c-0.1 0-0.2 0.1-0.2 0.1-0.1 0-0.1 0.1-0.2 0.1 0-0.7 0.2-1.4 0.4-2.2zm1.2 3.2c-0.1 0.1-0.3 0.1-0.6 0.1h-0.5c-0.2 0-0.3-0.1-0.4-0.2 0.1-0.1 0.3-0.2 0.4-0.2s0.3-0.2 0.4-0.2c0.1 0.1 0.3 0.2 0.4 0.3 0.2 0 0.2 0.1 0.3 0.2zm0 4.9c-0.2 0.8-0.4 1.5-0.7 2.3s-0.6 1.5-1 2.2-0.8 1.3-1.3 1.8c-0.1-0.3-0.1-0.6-0.1-1 0-0.5 0-1.1 0.1-1.8l0.3-2.1c0.1-0.7 0.2-1.5 0.4-2.2 0.1-0.8 0.3-1.5 0.4-2.2 0.3 0.2 0.7 0.3 1.1 0.4s0.8 0.1 1.1 0.1v0.4c0 0.6-0.1 1.3-0.3 2.1zm36.6-6.4c0 0.3-0.1 0.6-0.2 0.9s-0.2 0.6-0.4 0.8c-0.1 0.2-0.3 0.4-0.5 0.5-0.1 0-0.1 0-0.1 0.1 0 0-0.1 0-0.1 0.1-0.2 0.1-0.4 0.1-0.6 0.1h-0.2c-0.4-0.1-0.7-0.2-0.9-0.4-0.3-0.2-0.5-0.5-0.8-0.7-0.3-0.3-0.5-0.5-0.7-0.8s-0.5-0.4-0.8-0.6l3.9-5.6c0 0.3 0.1 0.6 0.2 0.9l0.3 0.9c0.1 0.2 0.2 0.5 0.4 0.7 0.1 0.2 0.3 0.4 0.4 0.7 0.1 0.2 0.2 0.5 0.3 0.8s0.1 0.6 0.1 0.9c-0.2 0-0.3 0.3-0.3 0.7zm12 0c0 0.3-0.1 0.6-0.2 0.9s-0.2 0.6-0.4 0.8c-0.1 0.2-0.3 0.4-0.5 0.5-0.1 0-0.1 0-0.1 0.1 0 0-0.1 0-0.1 0.1-0.2 0.1-0.4 0.1-0.6 0.1h-0.2c-0.4-0.1-0.7-0.2-0.9-0.4-0.3-0.2-0.5-0.5-0.8-0.7-0.3-0.3-0.5-0.5-0.7-0.8s-0.5-0.4-0.8-0.6l3.9-5.6c0 0.3 0.1 0.6 0.2 0.9l0.3 0.9c0.1 0.2 0.2 0.5 0.4 0.7 0.1 0.2 0.3 0.4 0.4 0.7 0.1 0.2 0.2 0.5 0.3 0.8s0.1 0.6 0.1 0.9c-0.3 0-0.3 0.3-0.3 0.7z"/>
    <path class="st3" d="m136.5 82.8h0.9l0.4-1.3c-0.1-0.1-0.3-0.2-0.6-0.2-0.3-0.1-0.6-0.1-0.9-0.2-0.3 0-0.7-0.1-1.1-0.1h-1.2c-0.5 0-0.9 0-1.3 0.1-0.4 0-0.7 0.1-1 0.1-0.2 0.1-0.6 0.1-1 0.2s-0.9 0.1-1.3 0.2c-0.5 0.1-0.9 0.1-1.4 0.1h-1.7c-0.2 0-0.3 0-0.4-0.1l-0.1 1.4c0.3 0.1 0.8 0.2 1.5 0.2 0.7 0.1 1.5 0.1 2.3 0.1 0.6 0 1.1 0 1.7-0.1 0.5 0 1-0.1 1.4-0.2 0.3-0.1 0.6-0.1 1-0.2 0.3-0.1 0.7-0.1 1.2-0.1 0.5 0.1 1 0.1 1.6 0.1z"/>
    <path class="st3" d="m122.4 86.5c-0.3 0.3-0.7 0.5-1.1 0.8s-0.9 0.6-1.3 0.9c-0.5 0.3-0.9 0.6-1.4 0.8s-0.9 0.5-1.3 0.7-0.8 0.3-1 0.4c-0.2-0.5-0.2-1.2-0.2-2v-0.9c0-0.3 0-0.6 0.1-0.9 0.4-0.4 0.8-1.1 1.2-1.9 0.5-0.8 0.9-1.7 1.4-2.7s0.9-2 1.4-3c0.5-1.1 0.9-2 1.2-2.9 0.4-0.9 0.7-1.7 0.9-2.3s0.3-1.1 0.4-1.3v-0.1c0-0.2-0.1-0.4-0.2-0.6s-0.3-0.4-0.5-0.6-0.5-0.3-0.7-0.4c-0.3-0.1-0.6-0.2-0.9-0.2s-0.6 0-0.8 0.1c-0.3 0.1-0.5 0.3-0.8 0.5-0.2 0.2-0.4 0.6-0.6 1.1s-0.4 1.1-0.7 1.8-0.5 1.5-0.7 2.3c-0.3 0.8-0.5 1.7-0.7 2.5-0.2-0.2-0.4-0.4-0.7-0.6s-0.7-0.3-1.1-0.3h-0.4c-0.3 0.1-0.7 0.2-1.1 0.6-0.4 0.3-0.8 0.7-1.2 1.2s-0.8 1-1.2 1.6-0.8 1.2-1.2 1.7c-0.4 0.6-0.7 1.1-1 1.6s-0.5 1-0.6 1.3c-0.2 0.6-0.3 1.2-0.3 1.8 0 0.2 0 0.4 0.1 0.6l-0.9 0.9c-0.6 0.4-1.1 0.7-1.6 0.9-0.6 0.3-1.2 0.4-1.9 0.6-0.2 0-0.3-0.1-0.4-0.3s-0.1-0.4-0.1-0.7c0-0.4 0.1-1 0.2-1.6s0.3-1.2 0.5-1.9 0.4-1.3 0.7-2c0.2-0.7 0.5-1.3 0.7-1.9s0.4-1 0.5-1.4 0.2-0.7 0.2-0.8c0-0.2-0.1-0.4-0.4-0.6-0.2-0.2-0.5-0.4-0.8-0.6s-0.6-0.4-1-0.5c-0.3-0.1-0.6-0.2-0.8-0.2h-0.1c-0.5 0.1-1.1 0.4-1.7 0.7s-1.2 0.7-1.7 1.2v-1s-0.2 0.1-0.5 0.2-0.6 0.3-0.9 0.4c-0.4 0.2-0.8 0.4-1.3 0.7l0.1 0.1c0 0.4-0.1 0.9-0.2 1.4-0.1 0.6-0.3 1.2-0.5 1.9s-0.4 1.4-0.7 2.1c0 0.1-0.1 0.2-0.1 0.3-0.3 0.3-0.6 0.6-1 0.9l-1.5 1.2c-0.5 0.4-1.1 0.7-1.6 1.1-0.6 0.3-1 0.6-1.5 0.7v-0.9c0-0.4 0-0.8 0.1-1.3s0.1-1 0.2-1.5l0.1-0.1v-0.1c0.2-1.1 0.5-2.3 0.9-3.5s0.8-2.4 1.3-3.6l-1.7-0.3c-0.1 0.1-0.1 0.3-0.2 0.5-0.1-0.2-0.2-0.3-0.3-0.5s-0.3-0.4-0.5-0.5c-0.2-0.2-0.5-0.3-0.8-0.4s-0.6-0.2-1-0.2h-0.4c-0.3 0.1-0.7 0.2-1.1 0.5s-0.8 0.7-1.2 1.1l-1.2 1.5c-0.4 0.6-0.8 1.1-1.1 1.7s-0.6 1.1-0.9 1.6-0.5 0.9-0.6 1.3c-0.2 0.5-0.3 1-0.3 1.5-0.2 0.3-0.5 0.5-0.7 0.8-0.4 0.5-0.8 0.9-1.3 1.3-0.4 0.4-0.9 0.7-1.4 1.1-0.5 0.3-1 0.5-1.5 0.7-0.4-0.2-0.6-0.5-0.7-1s-0.2-1-0.2-1.5c0-0.3 0-0.6 0.1-0.9 0-0.3 0.1-0.6 0.1-0.9s0.1-0.5 0.1-0.7 0.1-0.3 0.1-0.4c0.5-0.7 0.9-1.5 1.4-2.4s0.9-1.8 1.3-2.7l1.2-2.7c0.4-0.9 0.7-1.7 0.9-2.5 0.3-0.7 0.5-1.4 0.6-1.9s0.2-0.9 0.2-1.1v0.1c-0.1-0.3-0.3-0.5-0.7-0.8s-0.8-0.4-1.3-0.4c-0.2 0-0.4 0-0.6 0.1s-0.4 0.1-0.6 0.3c-0.6 0.4-1.1 1-1.5 1.8-0.5 0.9-0.9 1.8-1.3 3-0.4 1.1-0.7 2.3-1 3.6s-0.5 2.5-0.7 3.7-0.3 2.3-0.4 3.3-0.1 1.8-0.1 2.3v0.7c0.1 0.4 0.2 0.7 0.5 1s0.6 0.5 1 0.7 0.8 0.3 1.3 0.4 0.9 0.1 1.4 0.1c0.7 0 1.3-0.1 1.8-0.3 0.4-0.2 0.7-0.4 1-0.6s0.5-0.4 0.8-0.7c0.2-0.3 0.5-0.5 0.7-0.9 0.1 0.2 0.1 0.4 0.2 0.5 0.2 0.4 0.4 0.7 0.7 0.9 0.3 0.3 0.6 0.4 0.9 0.5h0.3c0.6 0 1.2-0.2 2-0.7 0.7-0.5 1.5-1.1 2.2-1.8 0 0.3 0 0.5-0.1 0.7v0.6c0 0.2 0.1 0.5 0.3 0.7s0.5 0.4 0.8 0.5 0.7 0.3 1.1 0.4 0.7 0.1 1.1 0.1h-0.4c0.3 0 0.7-0.2 1.2-0.5s1-0.7 1.4-1.2l0.4-0.4v0.1l-0.7 1.4 2.4 0.6c0.5-1.3 0.9-2.5 1.3-3.8s0.9-2.5 1.5-3.7c0.5-1 1.1-1.9 2-2.7s1.9-1.4 3-1.7c0 0.4-0.1 0.8-0.3 1.4s-0.3 1.2-0.6 1.9c-0.2 0.7-0.4 1.4-0.7 2.2-0.2 0.8-0.4 1.5-0.5 2.2-0.1 0.4-0.1 0.7-0.1 1v1c0 0.7 0.1 1.3 0.2 1.8s0.3 0.9 0.5 1.1 0.6 0.3 1 0.3 1-0.1 1.5-0.2c0.6-0.2 1.2-0.4 1.8-0.7s1.2-0.6 1.7-1c0.3-0.2 0.5-0.4 0.7-0.6 0.2 0.3 0.4 0.6 0.6 0.8 0.3 0.2 0.6 0.4 0.9 0.5h0.3c0.3 0 0.6-0.1 1-0.2 0.4-0.2 0.7-0.4 1.1-0.6l1.2-0.9c0.4-0.4 0.8-0.7 1.2-1.1v1.7c0 0.2 0.1 0.5 0.4 0.7 0.2 0.2 0.5 0.4 0.9 0.5s0.7 0.3 1.1 0.4 0.8 0.1 1.1 0.1h0.1c0.3 0 0.8-0.2 1.4-0.5s1.2-0.7 1.8-1.2 1.1-0.9 1.7-1.4c0.5-0.5 0.9-0.8 1-1.1l-0.3-1.9c-0.2 0-0.4 0.3-0.8 0.5zm-4.7-7.6c0.3-1 0.6-1.9 0.9-2.8s0.7-1.6 1-2.3c0.3-0.6 0.6-1.1 0.9-1.5 0 0.5-0.1 1.2-0.4 2-0.2 0.8-0.5 1.6-0.9 2.5s-0.7 1.8-1.2 2.7c-0.4 0.9-0.9 1.7-1.3 2.5 0.4-1 0.7-2.1 1-3.1zm-42 0.5 0.6-2.1c0.2-0.7 0.5-1.4 0.8-2s0.6-1.2 1-1.8c-0.1 0.6-0.3 1.2-0.5 1.9s-0.5 1.4-0.7 2.1c-0.3 0.7-0.5 1.4-0.8 2s-0.5 1.2-0.8 1.7c0.1-0.4 0.2-1.1 0.4-1.8zm11.5 6.4c-0.4 0.4-0.7 0.8-1.1 1.3l-1.1 1.1c-0.4 0.3-0.7 0.6-1 0.8s-0.6 0.3-0.8 0.3h-0.1c-0.4 0-0.6-0.2-0.7-0.5s-0.2-0.7-0.2-1.2c0-0.2 0-0.5 0.1-0.7 0-0.3 0.1-0.5 0.1-0.7s0.2-0.6 0.4-1 0.5-0.9 0.8-1.3c0.3-0.5 0.6-1 1-1.4 0.4-0.5 0.7-0.9 1-1.3s0.6-0.7 0.8-1 0.4-0.4 0.5-0.5 0.1-0.1 0.2-0.1 0.3 0.1 0.4 0.2c0.2 0.1 0.3 0.2 0.5 0.4s0.3 0.4 0.4 0.6 0.2 0.5 0.3 0.7l0.4-0.7c-0.4 1-0.7 2-1 2.9-0.4 0.7-0.7 1.5-0.9 2.1zm27.5-2.1c-0.2 0.8-0.4 1.6-0.5 2.2-0.4 0.4-0.8 0.9-1.2 1.3l-1.2 1.2c-0.4 0.3-0.7 0.6-1 0.8s-0.6 0.3-0.8 0.3c-0.4 0-0.6-0.2-0.7-0.6-0.1-0.3-0.2-0.7-0.2-1.2 0-0.2 0-0.5 0.1-0.7 0-0.3 0.1-0.5 0.1-0.7s0.2-0.6 0.4-1 0.5-0.9 0.8-1.3c0.3-0.5 0.6-1 1-1.4 0.4-0.5 0.7-0.9 1-1.3s0.6-0.7 0.8-1 0.4-0.4 0.5-0.5 0.1-0.1 0.2-0.1c0.2 0 0.5 0.1 0.7 0.4 0.3 0.3 0.5 0.6 0.7 1-0.3 0.9-0.5 1.8-0.7 2.6z"/>
  </g>
</svg>
