<?xml version="1.0" encoding="UTF-8" standalone="no"?>
<svg
   xmlns:dc="http://purl.org/dc/elements/1.1/"
   xmlns:cc="http://creativecommons.org/ns#"
   xmlns:rdf="http://www.w3.org/1999/02/22-rdf-syntax-ns#"
   xmlns:svg="http://www.w3.org/2000/svg"
   xmlns="http://www.w3.org/2000/svg"
   xmlns:sodipodi="http://sodipodi.sourceforge.net/DTD/sodipodi-0.dtd"
   xmlns:inkscape="http://www.inkscape.org/namespaces/inkscape"
   height="328.79"
   width="349.15"
   version="1.1"
   viewBox="0 0 349.14959 328.78918"
   id="svg6"
   sodipodi:docname="walking-path-01-mobile.svg"
   inkscape:version="0.92.2 (unknown)">
  <metadata
     id="metadata12">
    <rdf:RDF>
      <cc:Work
         rdf:about="">
        <dc:format>image/svg+xml</dc:format>
        <dc:type
           rdf:resource="http://purl.org/dc/dcmitype/StillImage" />
      </cc:Work>
    </rdf:RDF>
  </metadata>
  <defs
     id="defs10" />
  <sodipodi:namedview
     pagecolor="#ffffff"
     bordercolor="#666666"
     borderopacity="1"
     objecttolerance="10"
     gridtolerance="10"
     guidetolerance="10"
     inkscape:pageopacity="0"
     inkscape:pageshadow="2"
     inkscape:window-width="1680"
     inkscape:window-height="986"
     id="namedview8"
     showgrid="false"
     inkscape:zoom="0.71778337"
     inkscape:cx="174.575"
     inkscape:cy="164.395"
     inkscape:window-x="0"
     inkscape:window-y="100"
     inkscape:window-maximized="1"
     inkscape:current-layer="svg6" />
  <path
     d="m 347.65,328.74295 c 0,0 -3.9825,-129.14 -103.97,-124.85 -99.9875,4.29 -242.42,90.082 -242.18,1.6065 C 1.73982,117.02345 115.93,52.889445 219.55,30.189445 323.17,7.4894455 390.26,135.41945 264.532,147.06945 138.802,158.71545 166.027,44.909445 175.746,0.31944546"
     class="dashed"
     id="path2"
     inkscape:connector-curvature="0"
     style="fill:none;stroke:#000000;stroke-width:2.1717;stroke-dasharray:13.03044693, 13.03044693" />
  <path
     d="m 347.65,328.74295 c 0,0 -3.9825,-129.14 -103.97,-124.85 -99.9875,4.29 -242.42,90.082 -242.18,1.6065 C 1.73982,117.02345 115.93,52.889445 219.55,30.189445 323.17,7.4894455 390.26,135.41945 264.532,147.06945 138.802,158.71545 166.027,44.909445 175.746,0.31944546"
     class="path"
     id="path4"
     inkscape:connector-curvature="0"
     style="fill:none;stroke:#ffffff;stroke-width:3" />
</svg>
